Neuton-Italic.ufo
<glyph name="exclam" format="1">
  <advance width="530"/>
  <unicode hex="0021"/>
  <outline>
    <contour>
      <point x="133" y="185"/>
      <point x="208" y="258"/>
      <point x="303" y="258" type="curve" smooth="yes"/>
      <point x="378" y="258"/>
      <point x="427" y="197"/>
      <point x="427" y="128" type="curve" smooth="yes"/>
      <point x="427" y="29"/>
      <point x="354" y="-40"/>
      <point x="261" y="-40" type="curve" smooth="yes"/>
      <point x="196" y="-40"/>
      <point x="133" y="27"/>
      <point x="133" y="88" type="curve" smooth="yes"/>
    </contour>
    <contour>
      <point x="385" y="432" type="line"/>
      <point x="281" y="456" type="line"/>
      <point x="281" y="460" type="line"/>
      <point x="326" y="1014"/>
      <point x="360" y="1365"/>
      <point x="383" y="1514" type="curve"/>
      <point x="385" y="1518" type="line"/>
      <point x="397" y="1549"/>
      <point x="493" y="1566"/>
      <point x="553" y="1566" type="curve" smooth="yes"/>
      <point x="589" y="1566"/>
      <point x="623" y="1553"/>
      <point x="623" y="1524" type="curve" smooth="yes"/>
      <point x="623" y="1518" type="line"/>
      <point x="596" y="1345"/>
      <point x="516" y="986"/>
      <point x="385" y="440" type="curve"/>
    </contour>
  </outline>
</glyph>
<glyph name="quotedbl" format="1">
  <advance width="621"/>
  <unicode hex="0022"/>
  <outline>
    <contour>
      <point x="566" y="1578" type="line"/>
      <point x="786" y="1558" type="line"/>
      <point x="668" y="1094" type="line"/>
      <point x="552" y="1080" type="line"/>
    </contour>
    <contour>
      <point x="314" y="1578" type="line"/>
      <point x="534" y="1558" type="line"/>
      <point x="416" y="1094" type="line"/>
      <point x="300" y="1080" type="line"/>
    </contour>
  </outline>
</glyph>
<glyph name="numbersign" format="1">
  <advance width="1163"/>
  <unicode hex="0023"/>
  <outline>
    <contour>
      <point x="450" y="440" type="line"/>
      <point x="421" y="216" type="line"/>
      <point x="293" y="206" type="line"/>
      <point x="324" y="440" type="line"/>
      <point x="120" y="440" type="line"/>
      <point x="151" y="562" type="line"/>
      <point x="347" y="562" type="line"/>
      <point x="384" y="818" type="line"/>
      <point x="188" y="818" type="line"/>
      <point x="217" y="940" type="line"/>
      <point x="405" y="940" type="line"/>
      <point x="441" y="1152" type="line"/>
      <point x="565" y="1164" type="line"/>
      <point x="529" y="940" type="line"/>
      <point x="777" y="940" type="line"/>
      <point x="811" y="1152" type="line"/>
      <point x="936" y="1162" type="line"/>
      <point x="901" y="940" type="line"/>
      <point x="1105" y="940" type="line"/>
      <point x="1076" y="818" type="line"/>
      <point x="880" y="818" type="line"/>
      <point x="843" y="562" type="line"/>
      <point x="1037" y="562" type="line"/>
      <point x="1008" y="440" type="line"/>
      <point x="820" y="440" type="line"/>
      <point x="793" y="216" type="line"/>
      <point x="665" y="206" type="line"/>
      <point x="696" y="440" type="line"/>
    </contour>
    <contour>
      <point x="471" y="562" type="line"/>
      <point x="717" y="562" type="line"/>
      <point x="756" y="818" type="line"/>
      <point x="508" y="818" type="line"/>
    </contour>
  </outline>
</glyph>
<glyph name="dollar" format="1">
  <advance width="1137"/>
  <unicode hex="0024"/>
  <outline>
    <contour>
      <point x="1106" y="1072" type="line"/>
      <point x="1016" y="1092" type="line"/>
      <point x="992" y="1324" type="line" smooth="yes"/>
      <point x="989" y="1347"/>
      <point x="932" y="1395"/>
      <point x="868" y="1418" type="curve"/>
      <point x="784" y="884" type="line"/>
      <point x="795" y="877"/>
      <point x="816" y="863"/>
      <point x="847" y="844" type="curve" smooth="yes"/>
      <point x="908" y="804"/>
      <point x="917" y="799"/>
      <point x="967" y="761" type="curve" smooth="yes"/>
      <point x="1017" y="723"/>
      <point x="1029" y="706"/>
      <point x="1062" y="665" type="curve" smooth="yes"/>
      <point x="1095" y="624"/>
      <point x="1106" y="591"/>
      <point x="1118" y="540" type="curve" smooth="yes"/>
      <point x="1123" y="515"/>
      <point x="1126" y="488"/>
      <point x="1126" y="460" type="curve" smooth="yes"/>
      <point x="1126" y="341"/>
      <point x="1064" y="225"/>
      <point x="972" y="144" type="curve" smooth="yes"/>
      <point x="880" y="63"/>
      <point x="760" y="3"/>
      <point x="640" y="-18" type="curve"/>
      <point x="622" y="-134" type="line"/>
      <point x="478" y="-134" type="line"/>
      <point x="500" y="-30" type="line"/>
      <point x="494" y="-30" type="line" smooth="yes"/>
      <point x="323" y="-30"/>
      <point x="197" y="29"/>
      <point x="114" y="148" type="curve"/>
      <point x="182" y="472" type="line"/>
      <point x="280" y="456" type="line"/>
      <point x="304" y="226" type="line"/>
      <point x="345" y="149"/>
      <point x="439" y="94"/>
      <point x="534" y="90" type="curve"/>
      <point x="620" y="638" type="line"/>
      <point x="540" y="689"/>
      <point x="499" y="716"/>
      <point x="440" y="773" type="curve" smooth="yes"/>
      <point x="380" y="829"/>
      <point x="351" y="880"/>
      <point x="328" y="961" type="curve" smooth="yes"/>
      <point x="316" y="1001"/>
      <point x="310" y="1045"/>
      <point x="310" y="1092" type="curve" smooth="yes"/>
      <point x="310" y="1213"/>
      <point x="368" y="1326"/>
      <point x="455" y="1399" type="curve" smooth="yes"/>
      <point x="542" y="1472"/>
      <point x="651" y="1522"/>
      <point x="760" y="1534" type="curve"/>
      <point x="774" y="1626" type="line"/>
      <point x="918" y="1626" type="line"/>
      <point x="904" y="1536" type="line"/>
      <point x="1018" y="1527"/>
      <point x="1110" y="1485"/>
      <point x="1180" y="1412" type="curve"/>
    </contour>
    <contour>
      <point x="764" y="1432" type="line"/>
      <point x="651" y="1419"/>
      <point x="550" y="1324"/>
      <point x="550" y="1192" type="curve" smooth="yes"/>
      <point x="550" y="1075"/>
      <point x="587" y="1001"/>
      <point x="684" y="946" type="curve"/>
    </contour>
    <contour>
      <point x="644" y="104" type="line"/>
      <point x="720" y="123"/>
      <point x="794" y="167"/>
      <point x="847" y="248" type="curve" smooth="yes"/>
      <point x="873" y="289"/>
      <point x="886" y="333"/>
      <point x="886" y="380" type="curve" smooth="yes"/>
      <point x="886" y="465"/>
      <point x="834" y="522"/>
      <point x="722" y="598" type="curve"/>
    </contour>
  </outline>
</glyph>
<glyph name="percent" format="1">
  <advance width="1419"/>
  <unicode hex="0025"/>
  <outline>
    <contour>
      <point x="969" y="111"/>
      <point x="989" y="58"/>
      <point x="1073" y="58" type="curve" smooth="yes"/>
      <point x="1170" y="58"/>
      <point x="1241" y="171"/>
      <point x="1241" y="294" type="curve" smooth="yes"/>
      <point x="1241" y="407"/>
      <point x="1220" y="462"/>
      <point x="1135" y="462" type="curve" smooth="yes"/>
      <point x="1036" y="462"/>
      <point x="969" y="351"/>
      <point x="969" y="238" type="curve" smooth="yes"/>
    </contour>
    <contour>
      <point x="1389" y="181"/>
      <point x="1308" y="68"/>
      <point x="1205" y="5" type="curve" smooth="yes"/>
      <point x="1153" y="-26"/>
      <point x="1104" y="-42"/>
      <point x="1057" y="-42" type="curve" smooth="yes"/>
      <point x="902" y="-42"/>
      <point x="813" y="53"/>
      <point x="813" y="224" type="curve" smooth="yes"/>
      <point x="813" y="327"/>
      <point x="894" y="443"/>
      <point x="999" y="510" type="curve" smooth="yes"/>
      <point x="1052" y="543"/>
      <point x="1102" y="560"/>
      <point x="1151" y="560" type="curve" smooth="yes"/>
      <point x="1310" y="560"/>
      <point x="1389" y="469"/>
      <point x="1389" y="286" type="curve" smooth="yes"/>
    </contour>
    <contour>
      <point x="369" y="733"/>
      <point x="389" y="676"/>
      <point x="473" y="676" type="curve" smooth="yes"/>
      <point x="570" y="676"/>
      <point x="641" y="789"/>
      <point x="641" y="912" type="curve" smooth="yes"/>
      <point x="641" y="1025"/>
      <point x="620" y="1080"/>
      <point x="535" y="1080" type="curve" smooth="yes"/>
      <point x="436" y="1080"/>
      <point x="369" y="972"/>
      <point x="369" y="860" type="curve" smooth="yes"/>
    </contour>
    <contour>
      <point x="789" y="799"/>
      <point x="708" y="686"/>
      <point x="605" y="623" type="curve" smooth="yes"/>
      <point x="553" y="592"/>
      <point x="504" y="576"/>
      <point x="457" y="576" type="curve" smooth="yes"/>
      <point x="304" y="576"/>
      <point x="213" y="674"/>
      <point x="213" y="846" type="curve" smooth="yes"/>
      <point x="213" y="949"/>
      <point x="294" y="1064"/>
      <point x="399" y="1129" type="curve" smooth="yes"/>
      <point x="452" y="1161"/>
      <point x="502" y="1177"/>
      <point x="551" y="1177" type="curve" smooth="yes"/>
      <point x="710" y="1177"/>
      <point x="789" y="1086"/>
      <point x="789" y="904" type="curve" smooth="yes"/>
    </contour>
    <contour>
      <point x="1227" y="1182" type="line"/>
      <point x="1361" y="1172" type="line"/>
      <point x="375" y="-46" type="line"/>
      <point x="231" y="-34" type="line"/>
    </contour>
  </outline>
</glyph>
<glyph name="ampersand" format="1">
  <advance width="1615"/>
  <unicode hex="0026"/>
  <outline>
    <contour>
      <point x="1506" y="876" type="line"/>
      <point x="1182" y="428" type="line"/>
      <point x="1242" y="349"/>
      <point x="1302" y="276"/>
      <point x="1403" y="182" type="curve" smooth="yes"/>
      <point x="1454" y="135"/>
      <point x="1495" y="106"/>
      <point x="1526" y="96" type="curve" smooth="yes"/>
      <point x="1564" y="84" type="line"/>
      <point x="1534" y="0" type="line"/>
      <point x="1484" y="-16"/>
      <point x="1434" y="-24"/>
      <point x="1384" y="-24" type="curve" smooth="yes"/>
      <point x="1263" y="-24"/>
      <point x="1151" y="81"/>
      <point x="1012" y="264" type="curve"/>
      <point x="965" y="209"/>
      <point x="931" y="172"/>
      <point x="859" y="116" type="curve" smooth="yes"/>
      <point x="787" y="59"/>
      <point x="723" y="23"/>
      <point x="624" y="-4" type="curve" smooth="yes"/>
      <point x="575" y="-17"/>
      <point x="524" y="-24"/>
      <point x="472" y="-24" type="curve" smooth="yes"/>
      <point x="343" y="-24"/>
      <point x="241" y="17"/>
      <point x="182" y="83" type="curve" smooth="yes"/>
      <point x="123" y="149"/>
      <point x="94" y="231"/>
      <point x="94" y="324" type="curve" smooth="yes"/>
      <point x="94" y="427"/>
      <point x="139" y="528"/>
      <point x="196" y="600" type="curve" smooth="yes"/>
      <point x="253" y="672"/>
      <point x="345" y="745"/>
      <point x="413" y="788" type="curve" smooth="yes"/>
      <point x="447" y="809"/>
      <point x="483" y="830"/>
      <point x="522" y="850" type="curve"/>
      <point x="439" y="930"/>
      <point x="398" y="1029"/>
      <point x="398" y="1148" type="curve" smooth="yes"/>
      <point x="398" y="1268"/>
      <point x="495" y="1402"/>
      <point x="632" y="1481" type="curve" smooth="yes"/>
      <point x="701" y="1520"/>
      <point x="769" y="1540"/>
      <point x="836" y="1540" type="curve" smooth="yes"/>
      <point x="1049" y="1540"/>
      <point x="1178" y="1461"/>
      <point x="1178" y="1252" type="curve" smooth="yes"/>
      <point x="1178" y="1176"/>
      <point x="1131" y="1096"/>
      <point x="1056" y="1029" type="curve" smooth="yes"/>
      <point x="980" y="962"/>
      <point x="909" y="913"/>
      <point x="826" y="868" type="curve"/>
      <point x="824" y="854" type="line"/>
      <point x="1110" y="512" type="line"/>
      <point x="1372" y="872" type="line"/>
      <point x="1176" y="922" type="line"/>
      <point x="1202" y="1014" type="line"/>
      <point x="1746" y="1014" type="line"/>
      <point x="1720" y="922" type="line"/>
    </contour>
    <contour>
      <point x="586" y="762" type="line"/>
      <point x="566" y="764" type="line"/>
      <point x="451" y="692"/>
      <point x="334" y="565"/>
      <point x="334" y="440" type="curve" smooth="yes"/>
      <point x="334" y="356"/>
      <point x="348" y="287"/>
      <point x="382" y="226" type="curve" smooth="yes"/>
      <point x="416" y="165"/>
      <point x="480" y="128"/>
      <point x="568" y="128" type="curve" smooth="yes"/>
      <point x="652" y="128"/>
      <point x="747" y="167"/>
      <point x="812" y="219" type="curve" smooth="yes"/>
      <point x="877" y="270"/>
      <point x="920" y="313"/>
      <point x="940" y="342" type="curve"/>
    </contour>
    <contour>
      <point x="598" y="1129"/>
      <point x="651" y="1035"/>
      <point x="756" y="936" type="curve"/>
      <point x="896" y="1021"/>
      <point x="966" y="1118"/>
      <point x="966" y="1228" type="curve" smooth="yes"/>
      <point x="966" y="1364"/>
      <point x="919" y="1438"/>
      <point x="796" y="1438" type="curve" smooth="yes"/>
      <point x="691" y="1438"/>
      <point x="598" y="1325"/>
      <point x="598" y="1220" type="curve" smooth="yes"/>
    </contour>
  </outline>
</glyph>
<glyph name="quotesingle" format="1">
  <advance width="369"/>
  <unicode hex="0027"/>
  <outline>
    <contour>
      <point x="314" y="1578" type="line"/>
      <point x="534" y="1558" type="line"/>
      <point x="416" y="1094" type="line"/>
      <point x="300" y="1080" type="line"/>
    </contour>
  </outline>
</glyph>
<glyph name="parenleft" format="1">
  <advance width="585"/>
  <unicode hex="0028"/>
  <outline>
    <contour>
      <point x="401" y="-454" type="line"/>
      <point x="361" y="-411"/>
      <point x="347" y="-400"/>
      <point x="287" y="-303" type="curve" smooth="yes"/>
      <point x="227" y="-206"/>
      <point x="194" y="-121"/>
      <point x="163" y="44" type="curve" smooth="yes"/>
      <point x="147" y="126"/>
      <point x="139" y="213"/>
      <point x="139" y="304" type="curve" smooth="yes"/>
      <point x="139" y="515"/>
      <point x="181" y="723"/>
      <point x="237" y="871" type="curve" smooth="yes"/>
      <point x="293" y="1019"/>
      <point x="383" y="1167"/>
      <point x="452" y="1256" type="curve" smooth="yes"/>
      <point x="520" y="1344"/>
      <point x="616" y="1438"/>
      <point x="657" y="1472" type="curve" smooth="yes"/>
      <point x="678" y="1489"/>
      <point x="698" y="1505"/>
      <point x="719" y="1520" type="curve"/>
      <point x="767" y="1440" type="line"/>
      <point x="704" y="1372"/>
      <point x="649" y="1306"/>
      <point x="566" y="1155" type="curve" smooth="yes"/>
      <point x="482" y="1004"/>
      <point x="423" y="854"/>
      <point x="380" y="615" type="curve" smooth="yes"/>
      <point x="358" y="496"/>
      <point x="347" y="372"/>
      <point x="347" y="244" type="curve" smooth="yes"/>
      <point x="347" y="43"/>
      <point x="396" y="-167"/>
      <point x="495" y="-384" type="curve"/>
    </contour>
  </outline>
</glyph>
<glyph name="parenright" format="1">
  <advance width="587"/>
  <unicode hex="0029"/>
  <outline>
    <contour>
      <point x="-29" y="-384" type="line"/>
      <point x="36" y="-298"/>
      <point x="86" y="-224"/>
      <point x="123" y="-162" type="curve" smooth="yes"/>
      <point x="308" y="148"/>
      <point x="406" y="479"/>
      <point x="416" y="831" type="curve" smooth="yes"/>
      <point x="417" y="850"/>
      <point x="417" y="869"/>
      <point x="417" y="888" type="curve" smooth="yes"/>
      <point x="417" y="1101"/>
      <point x="370" y="1285"/>
      <point x="277" y="1440" type="curve"/>
      <point x="349" y="1520" type="line"/>
      <point x="351" y="1518"/>
      <point x="354" y="1515"/>
      <point x="358" y="1511" type="curve" smooth="yes"/>
      <point x="391" y="1479"/>
      <point x="403" y="1468"/>
      <point x="444" y="1416" type="curve" smooth="yes"/>
      <point x="485" y="1363"/>
      <point x="508" y="1323"/>
      <point x="544" y="1244" type="curve" smooth="yes"/>
      <point x="579" y="1164"/>
      <point x="598" y="1087"/>
      <point x="614" y="974" type="curve" smooth="yes"/>
      <point x="621" y="917"/>
      <point x="625" y="858"/>
      <point x="625" y="796" type="curve" smooth="yes"/>
      <point x="625" y="591"/>
      <point x="581" y="382"/>
      <point x="523" y="230" type="curve" smooth="yes"/>
      <point x="465" y="78"/>
      <point x="373" y="-79"/>
      <point x="302" y="-174" type="curve" smooth="yes"/>
      <point x="231" y="-270"/>
      <point x="137" y="-370"/>
      <point x="98" y="-405" type="curve" smooth="yes"/>
      <point x="79" y="-423"/>
      <point x="60" y="-439"/>
      <point x="43" y="-454" type="curve"/>
    </contour>
  </outline>
</glyph>
<glyph name="asterisk" format="1">
  <advance width="1028"/>
  <unicode hex="002A"/>
  <outline>
    <contour>
      <point x="972" y="838" type="line"/>
      <point x="827" y="754" type="line"/>
      <point x="648" y="1054" type="line"/>
      <point x="710" y="1116" type="line"/>
    </contour>
    <contour>
      <point x="455" y="718" type="line"/>
      <point x="331" y="830" type="line"/>
      <point x="561" y="1094" type="line"/>
      <point x="640" y="1054" type="line"/>
    </contour>
    <contour>
      <point x="188" y="1168" type="line"/>
      <point x="253" y="1322" type="line"/>
      <point x="575" y="1184" type="line"/>
      <point x="561" y="1098" type="line"/>
    </contour>
    <contour>
      <point x="533" y="1566" type="line"/>
      <point x="697" y="1550" type="line"/>
      <point x="666" y="1202" type="line"/>
      <point x="581" y="1188" type="line"/>
    </contour>
    <contour>
      <point x="1015" y="1360" type="line"/>
      <point x="1051" y="1198" type="line"/>
      <point x="709" y="1120" type="line"/>
      <point x="669" y="1198" type="line"/>
    </contour>
  </outline>
</glyph>
<glyph name="plus" format="1">
  <advance width="833"/>
  <unicode hex="002B"/>
  <outline>
    <contour>
      <point x="563" y="496" type="line"/>
      <point x="519" y="210" type="line"/>
      <point x="387" y="224" type="line"/>
      <point x="431" y="496" type="line"/>
      <point x="163" y="496" type="line"/>
      <point x="195" y="618" type="line"/>
      <point x="449" y="618" type="line"/>
      <point x="493" y="898" type="line"/>
      <point x="621" y="884" type="line"/>
      <point x="581" y="618" type="line"/>
      <point x="847" y="618" type="line"/>
      <point x="815" y="496" type="line"/>
    </contour>
  </outline>
</glyph>
<glyph name="comma" format="1">
  <advance width="541"/>
  <unicode hex="002C"/>
  <outline>
    <contour>
      <point x="30" y="-296" type="line"/>
      <point x="185" y="-256"/>
      <point x="284" y="-157"/>
      <point x="284" y="-74" type="curve" smooth="yes"/>
      <point x="284" y="-3"/>
      <point x="243" y="44"/>
      <point x="162" y="44" type="curve" smooth="yes"/>
      <point x="157" y="44"/>
      <point x="145" y="41"/>
      <point x="126" y="36" type="curve"/>
      <point x="121" y="59"/>
      <point x="118" y="81"/>
      <point x="118" y="102" type="curve" smooth="yes"/>
      <point x="118" y="194"/>
      <point x="218" y="264"/>
      <point x="290" y="264" type="curve" smooth="yes"/>
      <point x="337" y="264"/>
      <point x="374" y="252"/>
      <point x="411" y="221" type="curve" smooth="yes"/>
      <point x="447" y="189"/>
      <point x="470" y="126"/>
      <point x="470" y="38" type="curve" smooth="yes"/>
      <point x="470" y="-11"/>
      <point x="457" y="-67"/>
      <point x="415" y="-134" type="curve" smooth="yes"/>
      <point x="373" y="-202"/>
      <point x="317" y="-260"/>
      <point x="215" y="-315" type="curve" smooth="yes"/>
      <point x="164" y="-342"/>
      <point x="107" y="-364"/>
      <point x="44" y="-380" type="curve"/>
    </contour>
  </outline>
</glyph>
<glyph name="hyphen" format="1">
  <advance width="731"/>
  <unicode hex="002D"/>
  <outline>
    <contour>
      <point x="213" y="604" type="line"/>
      <point x="707" y="626" type="line"/>
      <point x="693" y="504" type="line"/>
      <point x="199" y="482" type="line"/>
    </contour>
  </outline>
</glyph>
<glyph name="period" format="1">
  <advance width="489"/>
  <unicode hex="002E"/>
  <outline>
    <contour>
      <point x="120" y="185"/>
      <point x="195" y="258"/>
      <point x="290" y="258" type="curve" smooth="yes"/>
      <point x="365" y="258"/>
      <point x="414" y="197"/>
      <point x="414" y="128" type="curve" smooth="yes"/>
      <point x="414" y="29"/>
      <point x="341" y="-40"/>
      <point x="248" y="-40" type="curve" smooth="yes"/>
      <point x="183" y="-40"/>
      <point x="120" y="27"/>
      <point x="120" y="88" type="curve" smooth="yes"/>
    </contour>
  </outline>
</glyph>
<glyph name="slash" format="1">
  <advance width="624"/>
  <unicode hex="002F"/>
  <outline>
    <contour>
      <point x="597" y="1496" type="line"/>
      <point x="757" y="1506" type="line"/>
      <point x="193" y="-430" type="line"/>
      <point x="37" y="-440" type="line"/>
    </contour>
  </outline>
</glyph>
<glyph name="zero" format="1">
  <advance width="1224"/>
  <unicode hex="0030"/>
  <outline>
    <contour>
      <point x="413" y="617"/>
      <point x="412" y="565"/>
      <point x="412" y="498" type="curve" smooth="yes"/>
      <point x="412" y="205"/>
      <point x="501" y="88"/>
      <point x="646" y="88" type="curve" smooth="yes"/>
      <point x="745" y="88"/>
      <point x="842" y="129"/>
      <point x="914" y="250" type="curve" smooth="yes"/>
      <point x="949" y="308"/>
      <point x="977" y="390"/>
      <point x="1000" y="496" type="curve" smooth="yes"/>
      <point x="1021" y="607"/>
      <point x="1032" y="737"/>
      <point x="1032" y="888" type="curve" smooth="yes"/>
      <point x="1032" y="1149"/>
      <point x="959" y="1302"/>
      <point x="814" y="1302" type="curve" smooth="yes"/>
      <point x="757" y="1302"/>
      <point x="705" y="1289"/>
      <point x="660" y="1262" type="curve" smooth="yes"/>
      <point x="571" y="1206"/>
      <point x="514" y="1118"/>
      <point x="478" y="1006" type="curve" smooth="yes"/>
      <point x="442" y="894"/>
      <point x="425" y="784"/>
      <point x="416" y="656" type="curve" smooth="yes"/>
    </contour>
    <contour>
      <point x="1219" y="1011"/>
      <point x="1228" y="931"/>
      <point x="1228" y="846" type="curve" smooth="yes"/>
      <point x="1228" y="563"/>
      <point x="1144" y="338"/>
      <point x="1028" y="190" type="curve" smooth="yes"/>
      <point x="909" y="39"/>
      <point x="753" y="-32"/>
      <point x="628" y="-32" type="curve" smooth="yes"/>
      <point x="521" y="-32"/>
      <point x="403" y="18"/>
      <point x="334" y="110" type="curve" smooth="yes"/>
      <point x="295" y="159"/>
      <point x="265" y="219"/>
      <point x="246" y="290" type="curve"/>
      <point x="223" y="364"/>
      <point x="212" y="448"/>
      <point x="212" y="542" type="curve" smooth="yes"/>
      <point x="212" y="798"/>
      <point x="293" y="1028"/>
      <point x="408" y="1177" type="curve" smooth="yes"/>
      <point x="527" y="1333"/>
      <point x="677" y="1420"/>
      <point x="826" y="1420" type="curve" smooth="yes"/>
      <point x="885" y="1420"/>
      <point x="941" y="1407"/>
      <point x="992" y="1380" type="curve"/>
      <point x="1088" y="1324"/>
      <point x="1159" y="1233"/>
      <point x="1200" y="1086" type="curve" smooth="yes"/>
    </contour>
  </outline>
</glyph>
<glyph name="one" format="1">
  <advance width="951"/>
  <unicode hex="0031"/>
  <outline>
    <contour>
      <point x="650" y="134" type="line"/>
      <point x="966" y="98" type="line"/>
      <point x="942" y="0" type="line"/>
      <point x="82" y="0" type="line"/>
      <point x="104" y="88" type="line"/>
      <point x="446" y="142" type="line"/>
      <point x="598" y="1218" type="line"/>
      <point x="278" y="1218" type="line"/>
      <point x="298" y="1310" type="line"/>
      <point x="796" y="1400" type="line"/>
      <point x="828" y="1400" type="line"/>
    </contour>
  </outline>
</glyph>
<glyph name="two" format="1">
  <advance width="1143"/>
  <unicode hex="0032"/>
  <outline>
    <contour>
      <point x="90" y="0" type="line"/>
      <point x="100" y="124" type="line"/>
      <point x="416" y="366" type="line"/>
      <point x="592" y="506" type="line" smooth="yes"/>
      <point x="712" y="602"/>
      <point x="811" y="718"/>
      <point x="874" y="838" type="curve" smooth="yes"/>
      <point x="905" y="901"/>
      <point x="920" y="968"/>
      <point x="920" y="1038" type="curve" smooth="yes"/>
      <point x="920" y="1102"/>
      <point x="902" y="1163"/>
      <point x="874" y="1202" type="curve"/>
      <point x="839" y="1245"/>
      <point x="787" y="1270"/>
      <point x="710" y="1270" type="curve" smooth="yes"/>
      <point x="670" y="1270"/>
      <point x="631" y="1261"/>
      <point x="594" y="1242" type="curve" smooth="yes"/>
      <point x="558" y="1222"/>
      <point x="526" y="1198"/>
      <point x="498" y="1170" type="curve"/>
      <point x="439" y="1106"/>
      <point x="387" y="1027"/>
      <point x="358" y="968" type="curve"/>
      <point x="266" y="1004" type="line"/>
      <point x="303" y="1104"/>
      <point x="381" y="1215"/>
      <point x="470" y="1292" type="curve" smooth="yes"/>
      <point x="520" y="1333"/>
      <point x="572" y="1367"/>
      <point x="626" y="1392" type="curve" smooth="yes"/>
      <point x="685" y="1417"/>
      <point x="745" y="1430"/>
      <point x="804" y="1430" type="curve" smooth="yes"/>
      <point x="1027" y="1430"/>
      <point x="1140" y="1307"/>
      <point x="1140" y="1098" type="curve" smooth="yes"/>
      <point x="1140" y="903"/>
      <point x="1019" y="739"/>
      <point x="878" y="604" type="curve" smooth="yes"/>
      <point x="810" y="538"/>
      <point x="733" y="474"/>
      <point x="648" y="412" type="curve" smooth="yes"/>
      <point x="438" y="252" type="line"/>
      <point x="335" y="164" type="line"/>
      <point x="884" y="164" type="line"/>
      <point x="1026" y="370" type="line"/>
      <point x="1108" y="359" type="line"/>
      <point x="992" y="0" type="line"/>
    </contour>
  </outline>
</glyph>
<glyph name="three" format="1">
  <advance width="1033"/>
  <unicode hex="0033"/>
  <outline>
    <contour>
      <point x="162" y="230"/>
      <point x="203" y="246"/>
      <point x="256" y="252" type="curve"/>
      <point x="256" y="223"/>
      <point x="276" y="182"/>
      <point x="312" y="142" type="curve" smooth="yes"/>
      <point x="331" y="121"/>
      <point x="352" y="104"/>
      <point x="376" y="90" type="curve"/>
      <point x="398" y="75"/>
      <point x="424" y="68"/>
      <point x="454" y="68" type="curve" smooth="yes"/>
      <point x="598" y="68"/>
      <point x="678" y="121"/>
      <point x="726" y="190" type="curve" smooth="yes"/>
      <point x="770" y="258"/>
      <point x="778" y="343"/>
      <point x="778" y="376" type="curve" smooth="yes"/>
      <point x="778" y="436"/>
      <point x="747" y="511"/>
      <point x="694" y="564" type="curve" smooth="yes"/>
      <point x="634" y="620"/>
      <point x="553" y="654"/>
      <point x="458" y="654" type="curve" smooth="yes"/>
      <point x="438" y="654" type="line"/>
      <point x="438" y="732" type="line"/>
      <point x="440" y="733"/>
      <point x="443" y="734"/>
      <point x="448" y="735" type="curve"/>
      <point x="452" y="736"/>
      <point x="457" y="738"/>
      <point x="464" y="741" type="curve" smooth="yes"/>
      <point x="471" y="744"/>
      <point x="477" y="746"/>
      <point x="484" y="748" type="curve"/>
      <point x="523" y="763"/>
      <point x="575" y="787"/>
      <point x="650" y="834" type="curve" smooth="yes"/>
      <point x="710" y="874"/>
      <point x="767" y="935"/>
      <point x="798" y="996" type="curve" smooth="yes"/>
      <point x="815" y="1031"/>
      <point x="824" y="1067"/>
      <point x="824" y="1106" type="curve" smooth="yes"/>
      <point x="824" y="1149"/>
      <point x="813" y="1191"/>
      <point x="784" y="1224" type="curve" smooth="yes"/>
      <point x="757" y="1253"/>
      <point x="707" y="1278"/>
      <point x="646" y="1278" type="curve" smooth="yes"/>
      <point x="521" y="1278"/>
      <point x="444" y="1206"/>
      <point x="384" y="1098" type="curve"/>
      <point x="300" y="1128" type="line"/>
      <point x="313" y="1183"/>
      <point x="377" y="1265"/>
      <point x="456" y="1328" type="curve" smooth="yes"/>
      <point x="540" y="1391"/>
      <point x="633" y="1434"/>
      <point x="740" y="1434" type="curve" smooth="yes"/>
      <point x="777" y="1434"/>
      <point x="816" y="1427"/>
      <point x="858" y="1414" type="curve"/>
      <point x="933" y="1385"/>
      <point x="988" y="1338"/>
      <point x="1020" y="1274" type="curve" smooth="yes"/>
      <point x="1036" y="1242"/>
      <point x="1044" y="1207"/>
      <point x="1044" y="1168" type="curve" smooth="yes"/>
      <point x="1044" y="1061"/>
      <point x="999" y="981"/>
      <point x="940" y="918" type="curve" smooth="yes"/>
      <point x="872" y="850"/>
      <point x="806" y="811"/>
      <point x="711" y="778" type="curve"/>
      <point x="710" y="764" type="line"/>
      <point x="813" y="747"/>
      <point x="878" y="708"/>
      <point x="926" y="652" type="curve" smooth="yes"/>
      <point x="973" y="597"/>
      <point x="998" y="524"/>
      <point x="998" y="456" type="curve" smooth="yes"/>
      <point x="998" y="392"/>
      <point x="981" y="329"/>
      <point x="948" y="266" type="curve"/>
      <point x="875" y="138"/>
      <point x="768" y="54"/>
      <point x="616" y="2" type="curve" smooth="yes"/>
      <point x="536" y="-23"/>
      <point x="457" y="-36"/>
      <point x="378" y="-36" type="curve" smooth="yes"/>
      <point x="335" y="-36"/>
      <point x="292" y="-31"/>
      <point x="250" y="-22" type="curve"/>
      <point x="178" y="-2"/>
      <point x="131" y="23"/>
      <point x="106" y="64" type="curve"/>
      <point x="94" y="82"/>
      <point x="88" y="101"/>
      <point x="88" y="120" type="curve" smooth="yes"/>
      <point x="88" y="151"/>
      <point x="103" y="179"/>
      <point x="132" y="204" type="curve" smooth="yes"/>
    </contour>
  </outline>
</glyph>
<glyph name="four" format="1">
  <advance width="1139"/>
  <unicode hex="0034"/>
  <outline>
    <contour>
      <point x="684" y="422" type="line"/>
      <point x="108" y="422" type="line"/>
      <point x="94" y="510" type="line"/>
      <point x="952" y="1412" type="line"/>
      <point x="1024" y="1390" type="line"/>
      <point x="1023" y="1387"/>
      <point x="1016" y="1347"/>
      <point x="1002" y="1270" type="curve" smooth="yes"/>
      <point x="980" y="1128" type="line"/>
      <point x="956" y="970" type="line" smooth="yes"/>
      <point x="945" y="890"/>
      <point x="937" y="836"/>
      <point x="934" y="808" type="curve" smooth="yes"/>
      <point x="900" y="566" type="line"/>
      <point x="1198" y="566" type="line"/>
      <point x="1158" y="418" type="line"/>
      <point x="878" y="418" type="line"/>
      <point x="824" y="18" type="line"/>
      <point x="620" y="-14" type="line"/>
    </contour>
    <contour>
      <point x="772" y="1076" type="line"/>
      <point x="302" y="566" type="line"/>
      <point x="700" y="566" type="line"/>
    </contour>
  </outline>
</glyph>
<glyph name="five" format="1">
  <advance width="937"/>
  <unicode hex="0035"/>
  <outline>
    <contour>
      <point x="132" y="50" type="line"/>
      <point x="313" y="66"/>
      <point x="454" y="108"/>
      <point x="554" y="176" type="curve" smooth="yes"/>
      <point x="655" y="243"/>
      <point x="706" y="329"/>
      <point x="706" y="434" type="curve" smooth="yes"/>
      <point x="706" y="630"/>
      <point x="559" y="756"/>
      <point x="206" y="780" type="curve"/>
      <point x="442" y="1383" type="line"/>
      <point x="972" y="1416" type="line"/>
      <point x="918" y="1230" type="line"/>
      <point x="480" y="1208" type="line"/>
      <point x="380" y="950" type="line"/>
      <point x="565" y="938"/>
      <point x="695" y="891"/>
      <point x="794" y="812" type="curve" smooth="yes"/>
      <point x="885" y="737"/>
      <point x="934" y="629"/>
      <point x="934" y="512" type="curve" smooth="yes"/>
      <point x="934" y="376"/>
      <point x="867" y="241"/>
      <point x="742" y="138" type="curve" smooth="yes"/>
      <point x="679" y="87"/>
      <point x="597" y="43"/>
      <point x="494" y="6" type="curve" smooth="yes"/>
      <point x="392" y="-29"/>
      <point x="273" y="-50"/>
      <point x="138" y="-58" type="curve"/>
    </contour>
  </outline>
</glyph>
<glyph name="six" format="1">
  <advance width="1095"/>
  <unicode hex="0036"/>
  <outline>
    <contour>
      <point x="456" y="720" type="line"/>
      <point x="488" y="752"/>
      <point x="529" y="777"/>
      <point x="588" y="802" type="curve"/>
      <point x="613" y="811"/>
      <point x="642" y="819"/>
      <point x="676" y="828" type="curve"/>
      <point x="709" y="835"/>
      <point x="741" y="838"/>
      <point x="770" y="838" type="curve" smooth="yes"/>
      <point x="869" y="838"/>
      <point x="956" y="792"/>
      <point x="1012" y="724" type="curve" smooth="yes"/>
      <point x="1039" y="691"/>
      <point x="1061" y="651"/>
      <point x="1078" y="606" type="curve"/>
      <point x="1093" y="560"/>
      <point x="1100" y="514"/>
      <point x="1100" y="468" type="curve" smooth="yes"/>
      <point x="1100" y="403"/>
      <point x="1085" y="339"/>
      <point x="1054" y="278" type="curve" smooth="yes"/>
      <point x="986" y="151"/>
      <point x="888" y="66"/>
      <point x="760" y="14" type="curve" smooth="yes"/>
      <point x="695" y="-13"/>
      <point x="628" y="-26"/>
      <point x="560" y="-26" type="curve" smooth="yes"/>
      <point x="491" y="-26"/>
      <point x="431" y="-15"/>
      <point x="382" y="8" type="curve" smooth="yes"/>
      <point x="332" y="33"/>
      <point x="292" y="64"/>
      <point x="262" y="102" type="curve" smooth="yes"/>
      <point x="199" y="177"/>
      <point x="172" y="292"/>
      <point x="172" y="404" type="curve" smooth="yes"/>
      <point x="172" y="549"/>
      <point x="221" y="694"/>
      <point x="302" y="838" type="curve" smooth="yes"/>
      <point x="382" y="974"/>
      <point x="502" y="1111"/>
      <point x="622" y="1208" type="curve" smooth="yes"/>
      <point x="742" y="1305"/>
      <point x="883" y="1387"/>
      <point x="1032" y="1436" type="curve"/>
      <point x="1066" y="1368" type="line"/>
      <point x="990" y="1335"/>
      <point x="915" y="1293"/>
      <point x="840" y="1240" type="curve" smooth="yes"/>
      <point x="716" y="1149"/>
      <point x="595" y="1016"/>
      <point x="528" y="900" type="curve" smooth="yes"/>
      <point x="492" y="838"/>
      <point x="464" y="778"/>
      <point x="444" y="720" type="curve"/>
    </contour>
    <contour>
      <point x="525" y="81"/>
      <point x="552" y="72"/>
      <point x="584" y="72" type="curve" smooth="yes"/>
      <point x="708" y="72"/>
      <point x="777" y="120"/>
      <point x="824" y="192" type="curve"/>
      <point x="867" y="267"/>
      <point x="880" y="358"/>
      <point x="880" y="438" type="curve" smooth="yes"/>
      <point x="880" y="494"/>
      <point x="864" y="569"/>
      <point x="828" y="628" type="curve"/>
      <point x="791" y="683"/>
      <point x="737" y="716"/>
      <point x="668" y="716" type="curve" smooth="yes"/>
      <point x="653" y="716"/>
      <point x="630" y="713"/>
      <point x="598" y="708" type="curve"/>
      <point x="558" y="697"/>
      <point x="506" y="679"/>
      <point x="466" y="656" type="curve"/>
      <point x="448" y="644"/>
      <point x="435" y="633"/>
      <point x="428" y="624" type="curve"/>
      <point x="421" y="600"/>
      <point x="394" y="486"/>
      <point x="394" y="406" type="curve" smooth="yes"/>
      <point x="394" y="321"/>
      <point x="410" y="238"/>
      <point x="442" y="174" type="curve" smooth="yes"/>
      <point x="457" y="143"/>
      <point x="477" y="119"/>
      <point x="502" y="100" type="curve"/>
    </contour>
  </outline>
</glyph>
<glyph name="seven" format="1">
  <advance width="1023"/>
  <unicode hex="0037"/>
  <outline>
    <contour>
      <point x="370" y="1218" type="line"/>
      <point x="286" y="1056" type="line"/>
      <point x="206" y="1072" type="line"/>
      <point x="280" y="1398" type="line"/>
      <point x="1194" y="1398" type="line"/>
      <point x="1188" y="1336" type="line"/>
      <point x="486" y="-40" type="line"/>
      <point x="380" y="-4" type="line"/>
      <point x="978" y="1218" type="line"/>
    </contour>
  </outline>
</glyph>
<glyph name="eight" format="1">
  <advance width="1104"/>
  <unicode hex="0038"/>
  <outline>
    <contour>
      <point x="567" y="656" type="line"/>
      <point x="491" y="596" type="line" smooth="yes"/>
      <point x="443" y="556"/>
      <point x="406" y="515"/>
      <point x="379" y="446" type="curve" smooth="yes"/>
      <point x="367" y="414"/>
      <point x="361" y="376"/>
      <point x="361" y="332" type="curve" smooth="yes"/>
      <point x="361" y="260"/>
      <point x="384" y="207"/>
      <point x="425" y="156" type="curve" smooth="yes"/>
      <point x="444" y="133"/>
      <point x="467" y="114"/>
      <point x="493" y="100" type="curve"/>
      <point x="517" y="85"/>
      <point x="545" y="78"/>
      <point x="577" y="78" type="curve" smooth="yes"/>
      <point x="678" y="78"/>
      <point x="752" y="101"/>
      <point x="797" y="146" type="curve" smooth="yes"/>
      <point x="842" y="193"/>
      <point x="865" y="255"/>
      <point x="865" y="330" type="curve" smooth="yes"/>
      <point x="865" y="358"/>
      <point x="857" y="387"/>
      <point x="840" y="416" type="curve"/>
      <point x="822" y="444"/>
      <point x="799" y="472"/>
      <point x="771" y="500" type="curve"/>
      <point x="743" y="526"/>
      <point x="711" y="552"/>
      <point x="675" y="578" type="curve" smooth="yes"/>
    </contour>
    <contour>
      <point x="168" y="193"/>
      <point x="159" y="238"/>
      <point x="159" y="286" type="curve" smooth="yes"/>
      <point x="159" y="446"/>
      <point x="277" y="574"/>
      <point x="505" y="698" type="curve"/>
      <point x="507" y="708" type="line"/>
      <point x="489" y="719"/>
      <point x="468" y="735"/>
      <point x="445" y="756" type="curve"/>
      <point x="401" y="792"/>
      <point x="356" y="849"/>
      <point x="333" y="910" type="curve" smooth="yes"/>
      <point x="321" y="942"/>
      <point x="315" y="976"/>
      <point x="315" y="1012" type="curve" smooth="yes"/>
      <point x="315" y="1065"/>
      <point x="328" y="1115"/>
      <point x="353" y="1162" type="curve" smooth="yes"/>
      <point x="401" y="1258"/>
      <point x="484" y="1333"/>
      <point x="601" y="1384" type="curve" smooth="yes"/>
      <point x="657" y="1408"/>
      <point x="716" y="1420"/>
      <point x="777" y="1420" type="curve" smooth="yes"/>
      <point x="881" y="1420"/>
      <point x="959" y="1386"/>
      <point x="1015" y="1334" type="curve" smooth="yes"/>
      <point x="1040" y="1310"/>
      <point x="1062" y="1280"/>
      <point x="1079" y="1244" type="curve"/>
      <point x="1094" y="1206"/>
      <point x="1101" y="1169"/>
      <point x="1101" y="1132" type="curve" smooth="yes"/>
      <point x="1101" y="1095"/>
      <point x="1094" y="1056"/>
      <point x="1079" y="1016" type="curve"/>
      <point x="1062" y="977"/>
      <point x="1042" y="941"/>
      <point x="1019" y="910" type="curve"/>
      <point x="995" y="875"/>
      <point x="966" y="846"/>
      <point x="931" y="822" type="curve"/>
      <point x="896" y="795"/>
      <point x="860" y="776"/>
      <point x="825" y="764" type="curve"/>
      <point x="821" y="752" type="line"/>
      <point x="969" y="645"/>
      <point x="1063" y="525"/>
      <point x="1063" y="396" type="curve" smooth="yes"/>
      <point x="1063" y="287"/>
      <point x="1009" y="178"/>
      <point x="913" y="98" type="curve" smooth="yes"/>
      <point x="865" y="58"/>
      <point x="807" y="26"/>
      <point x="739" y="2" type="curve" smooth="yes"/>
      <point x="669" y="-21"/>
      <point x="592" y="-32"/>
      <point x="509" y="-32" type="curve" smooth="yes"/>
      <point x="413" y="-32"/>
      <point x="320" y="-3"/>
      <point x="261" y="52" type="curve" smooth="yes"/>
      <point x="229" y="80"/>
      <point x="204" y="113"/>
      <point x="187" y="152" type="curve" smooth="yes"/>
    </contour>
    <contour>
      <point x="617" y="893"/>
      <point x="676" y="846"/>
      <point x="751" y="800" type="curve"/>
      <point x="785" y="819"/>
      <point x="810" y="837"/>
      <point x="827" y="852" type="curve"/>
      <point x="848" y="869"/>
      <point x="867" y="890"/>
      <point x="883" y="914" type="curve"/>
      <point x="896" y="937"/>
      <point x="907" y="963"/>
      <point x="915" y="994" type="curve"/>
      <point x="922" y="1027"/>
      <point x="925" y="1062"/>
      <point x="925" y="1098" type="curve" smooth="yes"/>
      <point x="925" y="1166"/>
      <point x="907" y="1222"/>
      <point x="871" y="1266" type="curve" smooth="yes"/>
      <point x="834" y="1309"/>
      <point x="789" y="1330"/>
      <point x="735" y="1330" type="curve" smooth="yes"/>
      <point x="659" y="1330"/>
      <point x="607" y="1300"/>
      <point x="563" y="1256" type="curve"/>
      <point x="526" y="1215"/>
      <point x="505" y="1158"/>
      <point x="505" y="1106" type="curve" smooth="yes"/>
      <point x="505" y="1045"/>
      <point x="528" y="989"/>
      <point x="573" y="940" type="curve" smooth="yes"/>
    </contour>
  </outline>
</glyph>
<glyph name="nine" format="1">
  <advance width="1093"/>
  <unicode hex="0039"/>
  <outline>
    <contour>
      <point x="850" y="680" type="line"/>
      <point x="817" y="643"/>
      <point x="754" y="603"/>
      <point x="706" y="586" type="curve"/>
      <point x="659" y="566"/>
      <point x="594" y="552"/>
      <point x="538" y="552" type="curve" smooth="yes"/>
      <point x="431" y="552"/>
      <point x="353" y="591"/>
      <point x="298" y="652" type="curve" smooth="yes"/>
      <point x="239" y="719"/>
      <point x="214" y="797"/>
      <point x="214" y="896" type="curve" smooth="yes"/>
      <point x="214" y="1043"/>
      <point x="283" y="1173"/>
      <point x="390" y="1272" type="curve" smooth="yes"/>
      <point x="502" y="1375"/>
      <point x="634" y="1432"/>
      <point x="750" y="1432" type="curve" smooth="yes"/>
      <point x="886" y="1432"/>
      <point x="977" y="1383"/>
      <point x="1042" y="1300" type="curve" smooth="yes"/>
      <point x="1070" y="1263"/>
      <point x="1093" y="1216"/>
      <point x="1110" y="1160" type="curve"/>
      <point x="1125" y="1103"/>
      <point x="1132" y="1047"/>
      <point x="1132" y="992" type="curve" smooth="yes"/>
      <point x="1132" y="748"/>
      <point x="1043" y="513"/>
      <point x="892" y="330" type="curve" smooth="yes"/>
      <point x="741" y="147"/>
      <point x="525" y="12"/>
      <point x="270" y="-32" type="curve"/>
      <point x="254" y="56" type="line"/>
      <point x="445" y="109"/>
      <point x="588" y="194"/>
      <point x="688" y="302" type="curve" smooth="yes"/>
      <point x="784" y="406"/>
      <point x="841" y="548"/>
      <point x="870" y="680" type="curve"/>
    </contour>
    <contour>
      <point x="783" y="1327"/>
      <point x="757" y="1336"/>
      <point x="728" y="1336" type="curve" smooth="yes"/>
      <point x="621" y="1336"/>
      <point x="541" y="1295"/>
      <point x="492" y="1224" type="curve" smooth="yes"/>
      <point x="441" y="1155"/>
      <point x="418" y="1059"/>
      <point x="418" y="954" type="curve" smooth="yes"/>
      <point x="418" y="915"/>
      <point x="423" y="880"/>
      <point x="432" y="850" type="curve" smooth="yes"/>
      <point x="441" y="816"/>
      <point x="455" y="787"/>
      <point x="474" y="764" type="curve"/>
      <point x="507" y="716"/>
      <point x="562" y="680"/>
      <point x="642" y="680" type="curve" smooth="yes"/>
      <point x="665" y="680"/>
      <point x="687" y="683"/>
      <point x="708" y="688" type="curve"/>
      <point x="735" y="692"/>
      <point x="787" y="708"/>
      <point x="840" y="740" type="curve" smooth="yes"/>
      <point x="857" y="751"/>
      <point x="873" y="766"/>
      <point x="886" y="784" type="curve"/>
      <point x="913" y="871"/>
      <point x="924" y="902"/>
      <point x="924" y="1014" type="curve" smooth="yes"/>
      <point x="924" y="1047"/>
      <point x="919" y="1087"/>
      <point x="910" y="1134" type="curve"/>
      <point x="901" y="1171"/>
      <point x="887" y="1205"/>
      <point x="870" y="1238" type="curve"/>
      <point x="851" y="1268"/>
      <point x="830" y="1291"/>
      <point x="808" y="1308" type="curve" smooth="yes"/>
    </contour>
  </outline>
</glyph>
<glyph name="colon" format="1">
  <advance width="567"/>
  <unicode hex="003A"/>
  <outline>
    <contour>
      <point x="284" y="967"/>
      <point x="355" y="1036"/>
      <point x="444" y="1036" type="curve" smooth="yes"/>
      <point x="515" y="1036"/>
      <point x="560" y="979"/>
      <point x="560" y="914" type="curve" smooth="yes"/>
      <point x="560" y="822"/>
      <point x="492" y="756"/>
      <point x="404" y="756" type="curve" smooth="yes"/>
      <point x="343" y="756"/>
      <point x="284" y="819"/>
      <point x="284" y="876" type="curve" smooth="yes"/>
    </contour>
    <contour>
      <point x="168" y="209"/>
      <point x="239" y="278"/>
      <point x="328" y="278" type="curve" smooth="yes"/>
      <point x="399" y="278"/>
      <point x="446" y="218"/>
      <point x="446" y="153" type="curve" smooth="yes"/>
      <point x="446" y="61"/>
      <point x="378" y="-4"/>
      <point x="290" y="-4" type="curve" smooth="yes"/>
      <point x="229" y="-4"/>
      <point x="168" y="61"/>
      <point x="168" y="118" type="curve" smooth="yes"/>
    </contour>
  </outline>
</glyph>
<glyph name="semicolon" format="1">
  <advance width="597"/>
  <unicode hex="003B"/>
  <outline>
    <contour>
      <point x="60" y="-282" type="line"/>
      <point x="205" y="-243"/>
      <point x="298" y="-153"/>
      <point x="298" y="-74" type="curve" smooth="yes"/>
      <point x="298" y="-7"/>
      <point x="260" y="38"/>
      <point x="184" y="38" type="curve" smooth="yes"/>
      <point x="180" y="38"/>
      <point x="169" y="35"/>
      <point x="150" y="30" type="curve"/>
      <point x="145" y="51"/>
      <point x="142" y="72"/>
      <point x="142" y="92" type="curve" smooth="yes"/>
      <point x="142" y="177"/>
      <point x="236" y="244"/>
      <point x="304" y="244" type="curve" smooth="yes"/>
      <point x="347" y="244"/>
      <point x="383" y="232"/>
      <point x="417" y="203" type="curve" smooth="yes"/>
      <point x="451" y="174"/>
      <point x="472" y="113"/>
      <point x="472" y="32" type="curve" smooth="yes"/>
      <point x="472" y="-15"/>
      <point x="459" y="-67"/>
      <point x="420" y="-130" type="curve" smooth="yes"/>
      <point x="381" y="-194"/>
      <point x="328" y="-248"/>
      <point x="233" y="-299" type="curve" smooth="yes"/>
      <point x="185" y="-325"/>
      <point x="131" y="-345"/>
      <point x="72" y="-360" type="curve"/>
    </contour>
    <contour>
      <point x="314" y="967"/>
      <point x="385" y="1036"/>
      <point x="474" y="1036" type="curve" smooth="yes"/>
      <point x="545" y="1036"/>
      <point x="590" y="979"/>
      <point x="590" y="914" type="curve" smooth="yes"/>
      <point x="590" y="822"/>
      <point x="522" y="756"/>
      <point x="434" y="756" type="curve" smooth="yes"/>
      <point x="373" y="756"/>
      <point x="314" y="819"/>
      <point x="314" y="876" type="curve" smooth="yes"/>
    </contour>
  </outline>
</glyph>
<glyph name="less" format="1">
  <advance width="897"/>
  <unicode hex="003C"/>
  <outline>
    <contour>
      <point x="145" y="518" type="line"/>
      <point x="153" y="552" type="line"/>
      <point x="905" y="1177" type="line"/>
      <point x="959" y="1092" type="line"/>
      <point x="435" y="550" type="line"/>
      <point x="809" y="-16" type="line"/>
      <point x="719" y="-100" type="line"/>
    </contour>
  </outline>
</glyph>
<glyph name="equal" format="1">
  <advance width="1062"/>
  <unicode hex="003D"/>
  <outline>
    <contour>
      <point x="244" y="514" type="line"/>
      <point x="988" y="514" type="line"/>
      <point x="954" y="386" type="line"/>
      <point x="210" y="386" type="line"/>
    </contour>
    <contour>
      <point x="294" y="804" type="line"/>
      <point x="1038" y="804" type="line"/>
      <point x="1004" y="676" type="line"/>
      <point x="260" y="676" type="line"/>
    </contour>
  </outline>
</glyph>
<glyph name="greater" format="1">
  <advance width="899"/>
  <unicode hex="003E"/>
  <outline>
    <contour>
      <point x="918" y="518" type="line"/>
      <point x="148" y="-100" type="line"/>
      <point x="86" y="-16" type="line"/>
      <point x="636" y="550" type="line"/>
      <point x="284" y="1092" type="line"/>
      <point x="366" y="1177" type="line"/>
      <point x="922" y="552" type="line"/>
    </contour>
  </outline>
</glyph>
<glyph name="question" format="1">
  <advance width="827"/>
  <unicode hex="003F"/>
  <outline>
    <contour>
      <point x="230" y="185"/>
      <point x="305" y="258"/>
      <point x="400" y="258" type="curve" smooth="yes"/>
      <point x="475" y="258"/>
      <point x="524" y="197"/>
      <point x="524" y="128" type="curve" smooth="yes"/>
      <point x="524" y="29"/>
      <point x="451" y="-40"/>
      <point x="358" y="-40" type="curve" smooth="yes"/>
      <point x="293" y="-40"/>
      <point x="230" y="27"/>
      <point x="230" y="88" type="curve" smooth="yes"/>
    </contour>
    <contour>
      <point x="326" y="1279"/>
      <point x="296" y="1323"/>
      <point x="296" y="1384" type="curve" smooth="yes"/>
      <point x="296" y="1419"/>
      <point x="317" y="1459"/>
      <point x="357" y="1496" type="curve" smooth="yes"/>
      <point x="397" y="1533"/>
      <point x="473" y="1560"/>
      <point x="562" y="1560" type="curve" smooth="yes"/>
      <point x="753" y="1560"/>
      <point x="904" y="1373"/>
      <point x="904" y="1124" type="curve" smooth="yes"/>
      <point x="904" y="1019"/>
      <point x="870" y="936"/>
      <point x="819" y="887" type="curve" smooth="yes"/>
      <point x="768" y="838"/>
      <point x="704" y="800"/>
      <point x="643" y="770" type="curve" smooth="yes"/>
      <point x="582" y="740"/>
      <point x="529" y="712"/>
      <point x="498" y="665" type="curve" smooth="yes"/>
      <point x="482" y="642"/>
      <point x="474" y="615"/>
      <point x="474" y="584" type="curve" smooth="yes"/>
      <point x="474" y="544"/>
      <point x="477" y="504"/>
      <point x="482" y="464" type="curve"/>
      <point x="390" y="444" type="line"/>
      <point x="354" y="511"/>
      <point x="336" y="581"/>
      <point x="336" y="656" type="curve" smooth="yes"/>
      <point x="336" y="745"/>
      <point x="372" y="814"/>
      <point x="424" y="855" type="curve" smooth="yes"/>
      <point x="475" y="895"/>
      <point x="540" y="926"/>
      <point x="603" y="954" type="curve" smooth="yes"/>
      <point x="666" y="982"/>
      <point x="719" y="1011"/>
      <point x="752" y="1064" type="curve" smooth="yes"/>
      <point x="768" y="1091"/>
      <point x="776" y="1122"/>
      <point x="776" y="1158" type="curve" smooth="yes"/>
      <point x="776" y="1267"/>
      <point x="691" y="1348"/>
      <point x="612" y="1348" type="curve" smooth="yes"/>
      <point x="511" y="1348"/>
      <point x="429" y="1319"/>
      <point x="366" y="1262" type="curve"/>
    </contour>
  </outline>
</glyph>
<glyph name="at" format="1">
  <advance width="1682"/>
  <unicode hex="0040"/>
  <outline>
    <contour>
      <point x="1065" y="838" type="line"/>
      <point x="1028" y="847"/>
      <point x="992" y="852"/>
      <point x="959" y="852" type="curve" smooth="yes"/>
      <point x="871" y="852"/>
      <point x="789" y="747"/>
      <point x="749" y="616" type="curve" smooth="yes"/>
      <point x="729" y="551"/>
      <point x="719" y="487"/>
      <point x="719" y="424" type="curve" smooth="yes"/>
      <point x="719" y="364"/>
      <point x="723" y="319"/>
      <point x="730" y="289" type="curve" smooth="yes"/>
      <point x="745" y="228"/>
      <point x="766" y="218"/>
      <point x="811" y="218" type="curve" smooth="yes"/>
      <point x="871" y="218"/>
      <point x="935" y="256"/>
      <point x="983" y="308" type="curve"/>
    </contour>
    <contour>
      <point x="1687" y="561"/>
      <point x="1618" y="397"/>
      <point x="1513" y="280" type="curve" smooth="yes"/>
      <point x="1408" y="163"/>
      <point x="1250" y="84"/>
      <point x="1089" y="84" type="curve" smooth="yes"/>
      <point x="1022" y="84"/>
      <point x="975" y="127"/>
      <point x="975" y="204" type="curve" smooth="yes"/>
      <point x="975" y="207"/>
      <point x="975" y="210"/>
      <point x="976" y="215" type="curve" smooth="yes"/>
      <point x="977" y="220"/>
      <point x="977" y="223"/>
      <point x="977" y="226" type="curve"/>
      <point x="967" y="226" type="line"/>
      <point x="910" y="143"/>
      <point x="820" y="72"/>
      <point x="735" y="72" type="curve" smooth="yes"/>
      <point x="603" y="72"/>
      <point x="527" y="169"/>
      <point x="527" y="372" type="curve" smooth="yes"/>
      <point x="527" y="539"/>
      <point x="601" y="698"/>
      <point x="701" y="796" type="curve" smooth="yes"/>
      <point x="801" y="894"/>
      <point x="923" y="956"/>
      <point x="1027" y="956" type="curve" smooth="yes"/>
      <point x="1102" y="956"/>
      <point x="1168" y="949"/>
      <point x="1227" y="936" type="curve"/>
      <point x="1231" y="934" type="line"/>
      <point x="1251" y="910" type="line"/>
      <point x="1187" y="466" type="line" smooth="yes"/>
      <point x="1171" y="359"/>
      <point x="1163" y="292"/>
      <point x="1163" y="264" type="curve" smooth="yes"/>
      <point x="1163" y="224"/>
      <point x="1172" y="204"/>
      <point x="1191" y="204" type="curve" smooth="yes"/>
      <point x="1311" y="204"/>
      <point x="1420" y="300"/>
      <point x="1479" y="445" type="curve" smooth="yes"/>
      <point x="1508" y="517"/>
      <point x="1523" y="594"/>
      <point x="1523" y="676" type="curve" smooth="yes"/>
      <point x="1523" y="985"/>
      <point x="1324" y="1156"/>
      <point x="1027" y="1156" type="curve" smooth="yes"/>
      <point x="834" y="1156"/>
      <point x="654" y="1065"/>
      <point x="537" y="927" type="curve" smooth="yes"/>
      <point x="420" y="789"/>
      <point x="347" y="601"/>
      <point x="347" y="412" type="curve" smooth="yes"/>
      <point x="347" y="48"/>
      <point x="561" y="-164"/>
      <point x="953" y="-164" type="curve" smooth="yes"/>
      <point x="1105" y="-164"/>
      <point x="1291" y="-89"/>
      <point x="1371" y="-34" type="curve"/>
      <point x="1383" y="-24" type="line"/>
      <point x="1425" y="-100" type="line"/>
      <point x="1415" y="-106" type="line"/>
      <point x="1346" y="-151"/>
      <point x="1309" y="-174"/>
      <point x="1219" y="-214" type="curve" smooth="yes"/>
      <point x="1129" y="-255"/>
      <point x="1022" y="-276"/>
      <point x="905" y="-276" type="curve" smooth="yes"/>
      <point x="750" y="-276"/>
      <point x="614" y="-251"/>
      <point x="483" y="-186" type="curve" smooth="yes"/>
      <point x="352" y="-122"/>
      <point x="258" y="-30"/>
      <point x="202" y="121" type="curve" smooth="yes"/>
      <point x="173" y="196"/>
      <point x="159" y="281"/>
      <point x="159" y="376" type="curve" smooth="yes"/>
      <point x="159" y="615"/>
      <point x="260" y="842"/>
      <point x="421" y="1002" type="curve" smooth="yes"/>
      <point x="581" y="1162"/>
      <point x="819" y="1264"/>
      <point x="1075" y="1264" type="curve" smooth="yes"/>
      <point x="1303" y="1264"/>
      <point x="1495" y="1175"/>
      <point x="1605" y="1010" type="curve" smooth="yes"/>
      <point x="1660" y="927"/>
      <point x="1687" y="832"/>
      <point x="1687" y="724" type="curve" smooth="yes"/>
    </contour>
  </outline>
</glyph>
<glyph name="A" format="1">
  <advance width="1402"/>
  <unicode hex="0041"/>
  <outline>
    <contour>
      <point x="1057" y="1536" type="line"/>
      <point x="1285" y="150" type="line"/>
      <point x="1435" y="98" type="line"/>
      <point x="1413" y="0" type="line"/>
      <point x="827" y="0" type="line"/>
      <point x="851" y="90" type="line"/>
      <point x="1059" y="156" type="line"/>
      <point x="991" y="524" type="line"/>
      <point x="507" y="524" type="line"/>
      <point x="321" y="150" type="line"/>
      <point x="527" y="98" type="line"/>
      <point x="501" y="0" type="line"/>
      <point x="-39" y="0" type="line"/>
      <point x="-17" y="90" type="line"/>
      <point x="163" y="156" type="line"/>
      <point x="879" y="1498" type="line"/>
    </contour>
    <contour>
      <point x="569" y="646" type="line"/>
      <point x="975" y="646" type="line"/>
      <point x="879" y="1252" type="line"/>
    </contour>
    <contour>
      <point x="1262" y="10" type="move" name="ogonek"/>
    </contour>
    <contour>
      <point x="994" y="1506" type="move" name="top"/>
    </contour>
  </outline>
</glyph>
<glyph name="B" format="1">
  <advance width="1379"/>
  <unicode hex="0042"/>
  <outline>
    <contour>
      <point x="626" y="732" type="line"/>
      <point x="518" y="116" type="line"/>
      <point x="752" y="116" type="line" smooth="yes"/>
      <point x="880" y="116"/>
      <point x="986" y="162"/>
      <point x="1048" y="231" type="curve" smooth="yes"/>
      <point x="1110" y="299"/>
      <point x="1142" y="384"/>
      <point x="1142" y="472" type="curve" smooth="yes"/>
      <point x="1142" y="616"/>
      <point x="1049" y="732"/>
      <point x="884" y="732" type="curve" smooth="yes"/>
    </contour>
    <contour>
      <point x="1066" y="814" type="line"/>
      <point x="1265" y="802"/>
      <point x="1374" y="671"/>
      <point x="1374" y="510" type="curve" smooth="yes"/>
      <point x="1374" y="415"/>
      <point x="1338" y="319"/>
      <point x="1258" y="231" type="curve" smooth="yes"/>
      <point x="1178" y="142"/>
      <point x="1070" y="72"/>
      <point x="903" y="31" type="curve" smooth="yes"/>
      <point x="820" y="10"/>
      <point x="729" y="0"/>
      <point x="630" y="0" type="curve" smooth="yes"/>
      <point x="78" y="0" type="line"/>
      <point x="100" y="90" type="line"/>
      <point x="304" y="146" type="line"/>
      <point x="510" y="1338" type="line"/>
      <point x="318" y="1374" type="line"/>
      <point x="342" y="1466" type="line"/>
      <point x="589" y="1503"/>
      <point x="783" y="1522"/>
      <point x="926" y="1522" type="curve" smooth="yes"/>
      <point x="1081" y="1522"/>
      <point x="1202" y="1484"/>
      <point x="1271" y="1425" type="curve" smooth="yes"/>
      <point x="1339" y="1365"/>
      <point x="1372" y="1293"/>
      <point x="1372" y="1214" type="curve" smooth="yes"/>
      <point x="1372" y="1146"/>
      <point x="1351" y="1076"/>
      <point x="1307" y="1004" type="curve" smooth="yes"/>
      <point x="1263" y="931"/>
      <point x="1177" y="863"/>
      <point x="1068" y="824" type="curve"/>
    </contour>
    <contour>
      <point x="646" y="834" type="line"/>
      <point x="886" y="834" type="line" smooth="yes"/>
      <point x="1041" y="834"/>
      <point x="1141" y="963"/>
      <point x="1144" y="1156" type="curve" smooth="yes"/>
      <point x="1144" y="1225"/>
      <point x="1125" y="1284"/>
      <point x="1081" y="1336" type="curve" smooth="yes"/>
      <point x="1037" y="1387"/>
      <point x="953" y="1418"/>
      <point x="838" y="1418" type="curve" smooth="yes"/>
      <point x="805" y="1418"/>
      <point x="775" y="1415"/>
      <point x="746" y="1410" type="curve"/>
    </contour>
  </outline>
</glyph>
<glyph name="E" format="1">
  <advance width="1373"/>
  <unicode hex="0045"/>
  <outline>
    <contour>
      <point x="328" y="1506" type="line"/>
      <point x="1482" y="1506" type="line"/>
      <point x="1386" y="1120" type="line"/>
      <point x="1288" y="1136" type="line"/>
      <point x="1282" y="1396" type="line"/>
      <point x="736" y="1396" type="line"/>
      <point x="646" y="820" type="line"/>
      <point x="982" y="820" type="line"/>
      <point x="1056" y="964" type="line"/>
      <point x="1166" y="980" type="line"/>
      <point x="1054" y="510" type="line"/>
      <point x="952" y="494" type="line"/>
      <point x="946" y="706" type="line"/>
      <point x="628" y="706" type="line"/>
      <point x="534" y="116" type="line"/>
      <point x="1108" y="116" type="line"/>
      <point x="1266" y="394" type="line"/>
      <point x="1360" y="380" type="line"/>
      <point x="1264" y="0" type="line"/>
      <point x="100" y="0" type="line"/>
      <point x="118" y="90" type="line"/>
      <point x="318" y="146" type="line"/>
      <point x="510" y="1364" type="line"/>
      <point x="308" y="1414" type="line"/>
    </contour>
    <contour>
      <point x="687" y="0" type="move" name="bottom"/>
    </contour>
    <contour>
      <point x="1176" y="10" type="move" name="ogonek"/>
    </contour>
    <contour>
      <point x="1086" y="1506" type="move" name="top"/>
    </contour>
  </outline>
</glyph>
<glyph name="F" format="1">
  <advance width="1273"/>
  <unicode hex="0046"/>
  <outline>
    <contour>
      <point x="330" y="1506" type="line"/>
      <point x="1480" y="1506" type="line"/>
      <point x="1372" y="1118" type="line"/>
      <point x="1274" y="1134" type="line"/>
      <point x="1274" y="1396" type="line"/>
      <point x="736" y="1396" type="line"/>
      <point x="644" y="812" type="line"/>
      <point x="976" y="812" type="line"/>
      <point x="1050" y="958" type="line"/>
      <point x="1154" y="974" type="line"/>
      <point x="1050" y="500" type="line"/>
      <point x="944" y="482" type="line"/>
      <point x="942" y="700" type="line"/>
      <point x="626" y="700" type="line"/>
      <point x="538" y="148" type="line"/>
      <point x="806" y="102" type="line"/>
      <point x="782" y="0" type="line"/>
      <point x="100" y="0" type="line"/>
      <point x="118" y="90" type="line"/>
      <point x="318" y="146" type="line"/>
      <point x="510" y="1364" type="line"/>
      <point x="308" y="1414" type="line"/>
    </contour>
  </outline>
</glyph>
<glyph name="G" format="1">
  <advance width="1554"/>
  <unicode hex="0047"/>
  <outline>
    <contour>
      <point x="1483" y="1018" type="line"/>
      <point x="1385" y="1036" type="line"/>
      <point x="1381" y="1268" type="line"/>
      <point x="1336" y="1343"/>
      <point x="1217" y="1406"/>
      <point x="1025" y="1406" type="curve" smooth="yes"/>
      <point x="912" y="1406"/>
      <point x="809" y="1376"/>
      <point x="711" y="1300" type="curve" smooth="yes"/>
      <point x="613" y="1224"/>
      <point x="541" y="1116"/>
      <point x="498" y="943" type="curve" smooth="yes"/>
      <point x="476" y="856"/>
      <point x="465" y="759"/>
      <point x="465" y="652" type="curve" smooth="yes"/>
      <point x="465" y="285"/>
      <point x="621" y="92"/>
      <point x="933" y="92" type="curve" smooth="yes"/>
      <point x="1034" y="92"/>
      <point x="1106" y="111"/>
      <point x="1149" y="148" type="curve"/>
      <point x="1209" y="526" type="line"/>
      <point x="943" y="572" type="line"/>
      <point x="967" y="672" type="line"/>
      <point x="1609" y="672" type="line"/>
      <point x="1587" y="582" type="line"/>
      <point x="1437" y="532" type="line"/>
      <point x="1371" y="106" type="line"/>
      <point x="1235" y="15"/>
      <point x="1025" y="-38"/>
      <point x="773" y="-38" type="curve" smooth="yes"/>
      <point x="581" y="-38"/>
      <point x="429" y="31"/>
      <point x="340" y="143" type="curve" smooth="yes"/>
      <point x="251" y="255"/>
      <point x="205" y="399"/>
      <point x="205" y="564" type="curve" smooth="yes"/>
      <point x="205" y="801"/>
      <point x="280" y="1017"/>
      <point x="398" y="1168" type="curve" smooth="yes"/>
      <point x="516" y="1319"/>
      <point x="673" y="1432"/>
      <point x="845" y="1486" type="curve" smooth="yes"/>
      <point x="930" y="1513"/>
      <point x="1016" y="1526"/>
      <point x="1103" y="1526" type="curve" smooth="yes"/>
      <point x="1317" y="1526"/>
      <point x="1475" y="1487"/>
      <point x="1577" y="1408" type="curve"/>
    </contour>
    <contour>
      <point x="777" y="0" type="move" name="bottom"/>
    </contour>
    <contour>
      <point x="1133" y="1506" type="move" name="top"/>
    </contour>
  </outline>
</glyph>
<glyph name="H" format="1">
  <advance width="1700"/>
  <unicode hex="0048"/>
  <outline>
    <contour>
      <point x="702" y="0" type="line"/>
      <point x="108" y="0" type="line"/>
      <point x="126" y="90" type="line"/>
      <point x="316" y="146" type="line"/>
      <point x="508" y="1364" type="line"/>
      <point x="316" y="1414" type="line"/>
      <point x="336" y="1506" type="line"/>
      <point x="935" y="1506" type="line"/>
      <point x="914" y="1414" type="line"/>
      <point x="722" y="1368" type="line"/>
      <point x="640" y="838" type="line"/>
      <point x="1328" y="838" type="line"/>
      <point x="1410" y="1364" type="line"/>
      <point x="1216" y="1414" type="line"/>
      <point x="1238" y="1506" type="line"/>
      <point x="1836" y="1506" type="line"/>
      <point x="1816" y="1414" type="line"/>
      <point x="1624" y="1368" type="line"/>
      <point x="1430" y="138" type="line"/>
      <point x="1626" y="98" type="line"/>
      <point x="1604" y="0" type="line"/>
      <point x="1008" y="0" type="line"/>
      <point x="1030" y="90" type="line"/>
      <point x="1218" y="146" type="line"/>
      <point x="1308" y="716" type="line"/>
      <point x="618" y="714" type="line"/>
      <point x="528" y="138" type="line"/>
      <point x="728" y="98" type="line"/>
    </contour>
    <contour>
      <point x="850" y="753" type="move" name="center"/>
    </contour>
    <contour>
      <point x="1113" y="1506" type="move" name="top"/>
    </contour>
  </outline>
</glyph>
<glyph name="I" format="1">
  <advance width="811"/>
  <unicode hex="0049"/>
  <outline>
    <contour>
      <point x="721" y="0" type="line"/>
      <point x="100" y="0" type="line"/>
      <point x="118" y="90" type="line"/>
      <point x="318" y="146" type="line"/>
      <point x="510" y="1364" type="line"/>
      <point x="308" y="1414" type="line"/>
      <point x="328" y="1506" type="line"/>
      <point x="956" y="1506" type="line"/>
      <point x="936" y="1414" type="line"/>
      <point x="732" y="1368" type="line"/>
      <point x="538" y="138" type="line"/>
      <point x="744" y="98" type="line"/>
    </contour>
    <contour>
      <point x="730" y="10" type="move" name="ogonek"/>
    </contour>
    <contour>
      <point x="676" y="1506" type="move" name="top"/>
    </contour>
  </outline>
</glyph>
<glyph name="J" format="1">
  <advance width="768"/>
  <unicode hex="004A"/>
  <outline>
    <contour>
      <point x="575" y="466" type="line" smooth="yes"/>
      <point x="548" y="298"/>
      <point x="520" y="178"/>
      <point x="474" y="73" type="curve" smooth="yes"/>
      <point x="428" y="-32"/>
      <point x="381" y="-103"/>
      <point x="300" y="-180" type="curve" smooth="yes"/>
      <point x="219" y="-257"/>
      <point x="140" y="-313"/>
      <point x="9" y="-394" type="curve"/>
      <point x="-12" y="-362"/>
      <point x="-27" y="-327"/>
      <point x="-37" y="-288" type="curve"/>
      <point x="176" y="-104"/>
      <point x="284" y="50"/>
      <point x="315" y="238" type="curve" smooth="yes"/>
      <point x="495" y="1364" type="line"/>
      <point x="295" y="1414" type="line"/>
      <point x="313" y="1506" type="line"/>
      <point x="941" y="1506" type="line"/>
      <point x="925" y="1414" type="line"/>
      <point x="721" y="1368" type="line"/>
    </contour>
    <contour>
      <point x="384" y="1506" type="move" name="top"/>
    </contour>
  </outline>
</glyph>
<glyph name="K" format="1">
  <advance width="1463"/>
  <unicode hex="004B"/>
  <outline>
    <contour>
      <point x="749" y="616" type="line"/>
      <point x="714" y="673"/>
      <point x="688" y="712"/>
      <point x="669" y="732" type="curve"/>
      <point x="675" y="762" type="line"/>
      <point x="737" y="809"/>
      <point x="786" y="852"/>
      <point x="821" y="892" type="curve" smooth="yes"/>
      <point x="1235" y="1358" type="line"/>
      <point x="1057" y="1414" type="line"/>
      <point x="1075" y="1506" type="line"/>
      <point x="1649" y="1506" type="line"/>
      <point x="1627" y="1414" type="line"/>
      <point x="1413" y="1358" type="line"/>
      <point x="885" y="786" type="line"/>
      <point x="1095" y="460" type="line" smooth="yes"/>
      <point x="1246" y="228"/>
      <point x="1318" y="149"/>
      <point x="1451" y="102" type="curve" smooth="yes"/>
      <point x="1491" y="88" type="line"/>
      <point x="1465" y="0" type="line"/>
      <point x="1415" y="-17"/>
      <point x="1364" y="-26"/>
      <point x="1313" y="-26" type="curve" smooth="yes"/>
      <point x="1220" y="-26"/>
      <point x="1138" y="9"/>
      <point x="1071" y="74" type="curve" smooth="yes"/>
      <point x="1004" y="139"/>
      <point x="955" y="213"/>
      <point x="903" y="316" type="curve" smooth="yes"/>
    </contour>
    <contour>
      <point x="545" y="150" type="line"/>
      <point x="755" y="98" type="line"/>
      <point x="733" y="0" type="line"/>
      <point x="95" y="0" type="line"/>
      <point x="113" y="90" type="line"/>
      <point x="323" y="156" type="line"/>
      <point x="511" y="1354" type="line"/>
      <point x="303" y="1414" type="line"/>
      <point x="327" y="1506" type="line"/>
      <point x="961" y="1506" type="line"/>
      <point x="941" y="1414" type="line"/>
      <point x="733" y="1358" type="line"/>
    </contour>
    <contour>
      <point x="732" y="0" type="move" name="bottom"/>
    </contour>
    <contour>
      <point x="732" y="1506" type="move" name="top"/>
    </contour>
  </outline>
</glyph>
<glyph name="M" format="1">
  <advance width="1992"/>
  <unicode hex="004D"/>
  <outline>
    <contour>
      <point x="877" y="38" type="line"/>
      <point x="657" y="1170" type="line"/>
      <point x="421" y="138" type="line"/>
      <point x="631" y="98" type="line"/>
      <point x="605" y="0" type="line"/>
      <point x="51" y="0" type="line"/>
      <point x="73" y="90" type="line"/>
      <point x="273" y="146" type="line"/>
      <point x="549" y="1364" type="line"/>
      <point x="345" y="1414" type="line"/>
      <point x="367" y="1506" type="line"/>
      <point x="829" y="1506" type="line"/>
      <point x="881" y="1272" type="line"/>
      <point x="1041" y="374" type="line"/>
      <point x="1547" y="1312" type="line"/>
      <point x="1651" y="1506" type="line"/>
      <point x="2107" y="1506" type="line"/>
      <point x="2087" y="1414" type="line"/>
      <point x="1885" y="1368" type="line"/>
      <point x="1753" y="138" type="line"/>
      <point x="1957" y="98" type="line"/>
      <point x="1935" y="0" type="line"/>
      <point x="1319" y="0" type="line"/>
      <point x="1341" y="90" type="line"/>
      <point x="1539" y="146" type="line"/>
      <point x="1643" y="1216" type="line"/>
      <point x="1021" y="62" type="line"/>
    </contour>
  </outline>
</glyph>
<glyph name="O" format="1">
  <advance width="1622"/>
  <unicode hex="004F"/>
  <outline>
    <contour>
      <point x="1390" y="1008"/>
      <point x="1361" y="1139"/>
      <point x="1305" y="1247" type="curve" smooth="yes"/>
      <point x="1248" y="1355"/>
      <point x="1147" y="1424"/>
      <point x="1020" y="1424" type="curve" smooth="yes"/>
      <point x="888" y="1424"/>
      <point x="775" y="1382"/>
      <point x="702" y="1320" type="curve" smooth="yes"/>
      <point x="629" y="1258"/>
      <point x="571" y="1161"/>
      <point x="539" y="1070" type="curve" smooth="yes"/>
      <point x="507" y="978"/>
      <point x="487" y="861"/>
      <point x="481" y="774" type="curve" smooth="yes"/>
      <point x="478" y="730"/>
      <point x="476" y="685"/>
      <point x="476" y="638" type="curve" smooth="yes"/>
      <point x="476" y="491"/>
      <point x="504" y="365"/>
      <point x="561" y="262" type="curve" smooth="yes"/>
      <point x="617" y="159"/>
      <point x="716" y="96"/>
      <point x="844" y="96" type="curve" smooth="yes"/>
      <point x="975" y="96"/>
      <point x="1086" y="138"/>
      <point x="1160" y="200" type="curve" smooth="yes"/>
      <point x="1234" y="262"/>
      <point x="1292" y="357"/>
      <point x="1325" y="447" type="curve" smooth="yes"/>
      <point x="1357" y="537"/>
      <point x="1378" y="650"/>
      <point x="1385" y="735" type="curve" smooth="yes"/>
      <point x="1388" y="778"/>
      <point x="1390" y="821"/>
      <point x="1390" y="864" type="curve" smooth="yes"/>
    </contour>
    <contour>
      <point x="1270" y="1542"/>
      <point x="1415" y="1468"/>
      <point x="1507" y="1348" type="curve" smooth="yes"/>
      <point x="1598" y="1228"/>
      <point x="1648" y="1066"/>
      <point x="1648" y="882" type="curve" smooth="yes"/>
      <point x="1648" y="690"/>
      <point x="1596" y="504"/>
      <point x="1494" y="352" type="curve" smooth="yes"/>
      <point x="1392" y="199"/>
      <point x="1254" y="81"/>
      <point x="1066" y="17" type="curve" smooth="yes"/>
      <point x="972" y="-16"/>
      <point x="872" y="-32"/>
      <point x="766" y="-32" type="curve" smooth="yes"/>
      <point x="541" y="-32"/>
      <point x="365" y="91"/>
      <point x="278" y="284" type="curve" smooth="yes"/>
      <point x="234" y="381"/>
      <point x="212" y="490"/>
      <point x="212" y="612" type="curve" smooth="yes"/>
      <point x="212" y="876"/>
      <point x="303" y="1112"/>
      <point x="456" y="1277" type="curve" smooth="yes"/>
      <point x="609" y="1441"/>
      <point x="837" y="1542"/>
      <point x="1094" y="1542" type="curve" smooth="yes"/>
    </contour>
    <contour>
      <point x="1111" y="1506" type="move" name="top"/>
    </contour>
  </outline>
</glyph>
<glyph name="P" format="1">
  <advance width="1296"/>
  <unicode hex="0050"/>
  <outline>
    <contour>
      <point x="1240" y="1520"/>
      <point x="1411" y="1399"/>
      <point x="1411" y="1158" type="curve" smooth="yes"/>
      <point x="1411" y="995"/>
      <point x="1339" y="847"/>
      <point x="1228" y="751" type="curve" smooth="yes"/>
      <point x="1117" y="654"/>
      <point x="966" y="594"/>
      <point x="813" y="594" type="curve" smooth="yes"/>
      <point x="775" y="594"/>
      <point x="732" y="597"/>
      <point x="683" y="604" type="curve"/>
      <point x="675" y="704" type="line"/>
      <point x="737" y="704" type="line" smooth="yes"/>
      <point x="1022" y="704"/>
      <point x="1163" y="847"/>
      <point x="1163" y="1110" type="curve" smooth="yes"/>
      <point x="1163" y="1295"/>
      <point x="1063" y="1420"/>
      <point x="859" y="1420" type="curve"/>
      <point x="735" y="1414" type="line"/>
      <point x="535" y="148" type="line"/>
      <point x="803" y="102" type="line"/>
      <point x="777" y="0" type="line"/>
      <point x="93" y="0" type="line"/>
      <point x="113" y="90" type="line"/>
      <point x="316" y="146" type="line"/>
      <point x="501" y="1338" type="line"/>
      <point x="311" y="1374" type="line"/>
      <point x="337" y="1466" type="line"/>
      <point x="565" y="1502"/>
      <point x="752" y="1520"/>
      <point x="897" y="1520" type="curve" smooth="yes"/>
    </contour>
  </outline>
</glyph>
<glyph name="Q" format="1">
  <advance width="1638"/>
  <unicode hex="0051"/>
  <outline>
    <contour>
      <point x="1416" y="945"/>
      <point x="1396" y="1061"/>
      <point x="1353" y="1161" type="curve" smooth="yes"/>
      <point x="1309" y="1261"/>
      <point x="1250" y="1338"/>
      <point x="1164" y="1382" type="curve" smooth="yes"/>
      <point x="1121" y="1403"/>
      <point x="1074" y="1414"/>
      <point x="1024" y="1414" type="curve" smooth="yes"/>
      <point x="675" y="1414"/>
      <point x="456" y="1138"/>
      <point x="456" y="678" type="curve" smooth="yes"/>
      <point x="456" y="567"/>
      <point x="472" y="466"/>
      <point x="517" y="363" type="curve" smooth="yes"/>
      <point x="561" y="259"/>
      <point x="624" y="180"/>
      <point x="732" y="128" type="curve" smooth="yes"/>
      <point x="785" y="101"/>
      <point x="846" y="86"/>
      <point x="914" y="82" type="curve"/>
      <point x="1037" y="113"/>
      <point x="1140" y="170"/>
      <point x="1208" y="232" type="curve" smooth="yes"/>
      <point x="1276" y="294"/>
      <point x="1329" y="379"/>
      <point x="1359" y="456" type="curve" smooth="yes"/>
      <point x="1389" y="533"/>
      <point x="1406" y="630"/>
      <point x="1412" y="705" type="curve" smooth="yes"/>
      <point x="1415" y="742"/>
      <point x="1416" y="782"/>
      <point x="1416" y="824" type="curve" smooth="yes"/>
    </contour>
    <contour>
      <point x="986" y="-466"/>
      <point x="840" y="-316"/>
      <point x="840" y="-76" type="curve" smooth="yes"/>
      <point x="840" y="-55"/>
      <point x="841" y="-38"/>
      <point x="842" y="-26" type="curve"/>
      <point x="832" y="-30"/>
      <point x="807" y="-32"/>
      <point x="768" y="-32" type="curve" smooth="yes"/>
      <point x="543" y="-32"/>
      <point x="365" y="91"/>
      <point x="277" y="284" type="curve" smooth="yes"/>
      <point x="232" y="381"/>
      <point x="210" y="490"/>
      <point x="210" y="612" type="curve" smooth="yes"/>
      <point x="210" y="872"/>
      <point x="307" y="1111"/>
      <point x="466" y="1276" type="curve" smooth="yes"/>
      <point x="625" y="1440"/>
      <point x="857" y="1542"/>
      <point x="1110" y="1542" type="curve" smooth="yes"/>
      <point x="1285" y="1542"/>
      <point x="1431" y="1470"/>
      <point x="1523" y="1352" type="curve" smooth="yes"/>
      <point x="1615" y="1234"/>
      <point x="1666" y="1073"/>
      <point x="1666" y="892" type="curve" smooth="yes"/>
      <point x="1666" y="609"/>
      <point x="1550" y="351"/>
      <point x="1342" y="175" type="curve" smooth="yes"/>
      <point x="1237" y="86"/>
      <point x="1117" y="25"/>
      <point x="980" y="-8" type="curve"/>
      <point x="1001" y="-96"/>
      <point x="1032" y="-154"/>
      <point x="1098" y="-210" type="curve" smooth="yes"/>
      <point x="1164" y="-266"/>
      <point x="1269" y="-306"/>
      <point x="1426" y="-334" type="curve"/>
      <point x="1421" y="-371"/>
      <point x="1413" y="-401"/>
      <point x="1400" y="-424" type="curve"/>
      <point x="1341" y="-452"/>
      <point x="1271" y="-466"/>
      <point x="1190" y="-466" type="curve" smooth="yes"/>
    </contour>
  </outline>
</glyph>
<glyph name="T" format="1">
  <advance width="1345"/>
  <unicode hex="0054"/>
  <outline>
    <contour>
      <point x="276" y="1506" type="line"/>
      <point x="1558" y="1506" type="line"/>
      <point x="1456" y="1098" type="line"/>
      <point x="1348" y="1116" type="line"/>
      <point x="1348" y="1396" type="line"/>
      <point x="998" y="1396" type="line"/>
      <point x="798" y="138" type="line"/>
      <point x="1004" y="98" type="line"/>
      <point x="980" y="0" type="line"/>
      <point x="356" y="0" type="line"/>
      <point x="376" y="90" type="line"/>
      <point x="578" y="146" type="line"/>
      <point x="776" y="1396" type="line"/>
      <point x="436" y="1396" type="line"/>
      <point x="328" y="1102" type="line"/>
      <point x="224" y="1118" type="line"/>
    </contour>
    <contour>
      <point x="673" y="0" type="move" name="bottom"/>
    </contour>
    <contour>
      <point x="673" y="753" type="move" name="center"/>
    </contour>
    <contour>
      <point x="905" y="1506" type="move" name="top"/>
    </contour>
  </outline>
</glyph>
<glyph name="U" format="1">
  <advance width="1643"/>
  <unicode hex="0055"/>
  <outline>
    <contour>
      <point x="569" y="598" type="line" smooth="yes"/>
      <point x="561" y="548"/>
      <point x="557" y="503"/>
      <point x="557" y="464" type="curve" smooth="yes"/>
      <point x="557" y="225"/>
      <point x="684" y="112"/>
      <point x="895" y="112" type="curve" smooth="yes"/>
      <point x="991" y="112"/>
      <point x="1074" y="136"/>
      <point x="1131" y="172" type="curve" smooth="yes"/>
      <point x="1187" y="207"/>
      <point x="1236" y="265"/>
      <point x="1265" y="318" type="curve" smooth="yes"/>
      <point x="1293" y="370"/>
      <point x="1317" y="444"/>
      <point x="1329" y="496" type="curve" smooth="yes"/>
      <point x="1335" y="522"/>
      <point x="1340" y="551"/>
      <point x="1345" y="582" type="curve" smooth="yes"/>
      <point x="1469" y="1364" type="line"/>
      <point x="1269" y="1414" type="line"/>
      <point x="1287" y="1506" type="line"/>
      <point x="1839" y="1506" type="line"/>
      <point x="1819" y="1414" type="line"/>
      <point x="1617" y="1368" type="line"/>
      <point x="1491" y="604" type="line" smooth="yes"/>
      <point x="1420" y="180"/>
      <point x="1189" y="-32"/>
      <point x="797" y="-32" type="curve" smooth="yes"/>
      <point x="710" y="-32"/>
      <point x="637" y="-22"/>
      <point x="551" y="18" type="curve" smooth="yes"/>
      <point x="465" y="58"/>
      <point x="404" y="116"/>
      <point x="364" y="226" type="curve" smooth="yes"/>
      <point x="343" y="281"/>
      <point x="333" y="344"/>
      <point x="333" y="416" type="curve" smooth="yes"/>
      <point x="333" y="461"/>
      <point x="337" y="512"/>
      <point x="345" y="568" type="curve" smooth="yes"/>
      <point x="471" y="1364" type="line"/>
      <point x="265" y="1414" type="line"/>
      <point x="287" y="1506" type="line"/>
      <point x="911" y="1506" type="line"/>
      <point x="893" y="1414" type="line"/>
      <point x="689" y="1368" type="line"/>
    </contour>
    <contour>
      <point x="1479" y="10" type="move" name="ogonek"/>
    </contour>
    <contour>
      <point x="1154" y="1506" type="move" name="top"/>
    </contour>
  </outline>
</glyph>
<glyph name="V" format="1">
  <advance width="1409"/>
  <unicode hex="0056"/>
  <outline>
    <contour>
      <point x="616" y="-30" type="line"/>
      <point x="348" y="1364" type="line"/>
      <point x="190" y="1414" type="line"/>
      <point x="210" y="1506" type="line"/>
      <point x="822" y="1506" type="line"/>
      <point x="804" y="1414" type="line"/>
      <point x="600" y="1368" type="line"/>
      <point x="794" y="304" type="line"/>
      <point x="1328" y="1364" type="line"/>
      <point x="1126" y="1414" type="line"/>
      <point x="1144" y="1506" type="line"/>
      <point x="1670" y="1506" type="line"/>
      <point x="1652" y="1414" type="line"/>
      <point x="1494" y="1368" type="line"/>
      <point x="786" y="6" type="line"/>
    </contour>
  </outline>
</glyph>
<glyph name="W" format="1">
  <advance width="2046"/>
  <unicode hex="0057"/>
  <outline>
    <contour>
      <point x="1324" y="-30" type="line"/>
      <point x="1216" y="1152" type="line"/>
      <point x="696" y="6" type="line"/>
      <point x="514" y="-30" type="line"/>
      <point x="352" y="1364" type="line"/>
      <point x="202" y="1414" type="line"/>
      <point x="220" y="1506" type="line"/>
      <point x="806" y="1506" type="line"/>
      <point x="782" y="1414" type="line"/>
      <point x="580" y="1368" type="line"/>
      <point x="698" y="330" type="line"/>
      <point x="1208" y="1446" type="line"/>
      <point x="1408" y="1476" type="line"/>
      <point x="1506" y="348" type="line"/>
      <point x="1966" y="1364" type="line"/>
      <point x="1768" y="1414" type="line"/>
      <point x="1788" y="1506" type="line"/>
      <point x="2306" y="1506" type="line"/>
      <point x="2286" y="1414" type="line"/>
      <point x="2136" y="1368" type="line"/>
      <point x="1500" y="6" type="line"/>
    </contour>
    <contour>
      <point x="1328" y="1506" type="move" name="top"/>
    </contour>
  </outline>
</glyph>
<glyph name="X" format="1">
  <advance width="1387"/>
  <unicode hex="0058"/>
  <outline>
    <contour>
      <point x="936" y="788" type="line"/>
      <point x="1228" y="138" type="line"/>
      <point x="1384" y="98" type="line"/>
      <point x="1358" y="0" type="line"/>
      <point x="774" y="0" type="line"/>
      <point x="798" y="90" type="line"/>
      <point x="998" y="146" type="line"/>
      <point x="770" y="632" type="line"/>
      <point x="352" y="138" type="line"/>
      <point x="558" y="98" type="line"/>
      <point x="536" y="0" type="line"/>
      <point x="14" y="0" type="line"/>
      <point x="38" y="90" type="line"/>
      <point x="184" y="146" type="line"/>
      <point x="702" y="736" type="line"/>
      <point x="404" y="1354" type="line"/>
      <point x="262" y="1414" type="line"/>
      <point x="284" y="1506" type="line"/>
      <point x="884" y="1506" type="line"/>
      <point x="862" y="1414" type="line"/>
      <point x="662" y="1358" type="line"/>
      <point x="868" y="900" type="line"/>
      <point x="1254" y="1364" type="line"/>
      <point x="1046" y="1414" type="line"/>
      <point x="1068" y="1506" type="line"/>
      <point x="1590" y="1506" type="line"/>
      <point x="1572" y="1414" type="line"/>
      <point x="1418" y="1368" type="line"/>
    </contour>
  </outline>
</glyph>
<glyph name="Y" format="1">
  <advance width="1278"/>
  <unicode hex="0059"/>
  <outline>
    <contour>
      <point x="854" y="640" type="line"/>
      <point x="774" y="138" type="line"/>
      <point x="960" y="98" type="line"/>
      <point x="938" y="0" type="line"/>
      <point x="352" y="0" type="line"/>
      <point x="372" y="90" type="line"/>
      <point x="554" y="146" type="line"/>
      <point x="628" y="612" type="line"/>
      <point x="336" y="1364" type="line"/>
      <point x="188" y="1414" type="line"/>
      <point x="212" y="1506" type="line"/>
      <point x="790" y="1506" type="line"/>
      <point x="768" y="1414" type="line"/>
      <point x="578" y="1368" type="line"/>
      <point x="810" y="772" type="line"/>
      <point x="1206" y="1364" type="line"/>
      <point x="1006" y="1414" type="line"/>
      <point x="1024" y="1506" type="line"/>
      <point x="1536" y="1506" type="line"/>
      <point x="1518" y="1414" type="line"/>
      <point x="1366" y="1368" type="line"/>
    </contour>
    <contour>
      <point x="923" y="1506" type="move" name="top"/>
    </contour>
  </outline>
</glyph>
<glyph name="Z" format="1">
  <advance width="1325"/>
  <unicode hex="005A"/>
  <outline>
    <contour>
      <point x="352" y="1506" type="line"/>
      <point x="1460" y="1506" type="line"/>
      <point x="1446" y="1414" type="line"/>
      <point x="360" y="122" type="line"/>
      <point x="1006" y="122" type="line"/>
      <point x="1178" y="424" type="line"/>
      <point x="1288" y="406" type="line"/>
      <point x="1188" y="0" type="line"/>
      <point x="104" y="0" type="line"/>
      <point x="112" y="126" type="line"/>
      <point x="1172" y="1392" type="line"/>
      <point x="522" y="1392" type="line"/>
      <point x="412" y="1094" type="line"/>
      <point x="306" y="1116" type="line"/>
    </contour>
    <contour>
      <point x="663" y="1506" type="move" name="top"/>
    </contour>
  </outline>
</glyph>
<glyph name="bracketleft" format="1">
  <advance width="534"/>
  <unicode hex="005B"/>
  <outline>
    <contour>
      <point x="423" y="-454" type="line"/>
      <point x="87" y="-456" type="line"/>
      <point x="403" y="1520" type="line"/>
      <point x="731" y="1520" type="line"/>
      <point x="727" y="1412" type="line"/>
      <point x="553" y="1388" type="line"/>
      <point x="285" y="-314" type="line"/>
      <point x="453" y="-338" type="line"/>
    </contour>
  </outline>
</glyph>
<glyph name="backslash" format="1">
  <advance width="860"/>
  <unicode hex="005C"/>
  <outline>
    <contour>
      <point x="462" y="1496" type="line"/>
      <point x="716" y="-440" type="line"/>
      <point x="560" y="-430" type="line"/>
      <point x="304" y="1506" type="line"/>
    </contour>
  </outline>
</glyph>
<glyph name="bracketright" format="1">
  <advance width="536"/>
  <unicode hex="005D"/>
  <outline>
    <contour>
      <point x="-29" y="-454" type="line"/>
      <point x="-23" y="-338" type="line"/>
      <point x="153" y="-314" type="line"/>
      <point x="421" y="1388" type="line"/>
      <point x="255" y="1412" type="line"/>
      <point x="287" y="1520" type="line"/>
      <point x="615" y="1520" type="line"/>
      <point x="303" y="-456" type="line"/>
    </contour>
  </outline>
</glyph>
<glyph name="asciicircum" format="1">
  <advance width="909"/>
  <unicode hex="005E"/>
  <outline>
    <contour>
      <point x="722" y="1514" type="line"/>
      <point x="1000" y="998" type="line"/>
      <point x="924" y="954" type="line"/>
      <point x="648" y="1300" type="line"/>
      <point x="636" y="1300" type="line"/>
      <point x="280" y="960" type="line"/>
      <point x="226" y="1000" type="line"/>
      <point x="654" y="1498" type="line"/>
    </contour>
  </outline>
</glyph>
<glyph name="underscore" format="1">
  <advance width="1018"/>
  <unicode hex="005F"/>
  <outline>
    <contour>
      <point x="9" y="-32" type="line"/>
      <point x="1013" y="-32" type="line"/>
      <point x="979" y="-160" type="line"/>
      <point x="-25" y="-160" type="line"/>
    </contour>
  </outline>
</glyph>
<glyph name="grave" format="1">
  <advance width="767"/>
  <unicode hex="0060"/>
  <outline>
    <contour>
      <point x="198" y="2010" type="line"/>
      <point x="338" y="2056" type="line"/>
      <point x="498" y="1652" type="line"/>
      <point x="428" y="1610" type="line"/>
    </contour>
    <contour>
      <point x="468" y="1506" type="move" name="_top"/>
    </contour>
  </outline>
</glyph>
<glyph name="a" format="1">
  <advance width="1034"/>
  <unicode hex="0061"/>
  <outline>
    <contour>
      <point x="1023" y="102" type="line"/>
      <point x="999" y="18" type="line"/>
      <point x="943" y="-6"/>
      <point x="886" y="-18"/>
      <point x="829" y="-18" type="curve" smooth="yes"/>
      <point x="748" y="-18"/>
      <point x="685" y="19"/>
      <point x="685" y="100" type="curve" smooth="yes"/>
      <point x="685" y="114" type="line"/>
      <point x="689" y="160" type="line"/>
      <point x="675" y="160" type="line"/>
      <point x="615" y="53"/>
      <point x="505" y="-26"/>
      <point x="389" y="-26" type="curve" smooth="yes"/>
      <point x="238" y="-26"/>
      <point x="145" y="109"/>
      <point x="145" y="332" type="curve" smooth="yes"/>
      <point x="145" y="516"/>
      <point x="201" y="684"/>
      <point x="286" y="799" type="curve" smooth="yes"/>
      <point x="370" y="914"/>
      <point x="482" y="1001"/>
      <point x="596" y="1042" type="curve" smooth="yes"/>
      <point x="653" y="1062"/>
      <point x="708" y="1072"/>
      <point x="763" y="1072" type="curve" smooth="yes"/>
      <point x="867" y="1072"/>
      <point x="942" y="1058"/>
      <point x="987" y="1030" type="curve"/>
      <point x="1007" y="1008" type="line"/>
      <point x="921" y="458" type="line" smooth="yes"/>
      <point x="900" y="319"/>
      <point x="889" y="232"/>
      <point x="889" y="196" type="curve" smooth="yes"/>
      <point x="889" y="141"/>
      <point x="902" y="123"/>
      <point x="941" y="116" type="curve" smooth="yes"/>
    </contour>
    <contour>
      <point x="799" y="904" type="line"/>
      <point x="769" y="932"/>
      <point x="721" y="946"/>
      <point x="655" y="946" type="curve" smooth="yes"/>
      <point x="532" y="946"/>
      <point x="427" y="815"/>
      <point x="378" y="647" type="curve" smooth="yes"/>
      <point x="353" y="563"/>
      <point x="341" y="477"/>
      <point x="341" y="388" type="curve" smooth="yes"/>
      <point x="341" y="209"/>
      <point x="390" y="128"/>
      <point x="487" y="128" type="curve" smooth="yes"/>
      <point x="571" y="128"/>
      <point x="628" y="169"/>
      <point x="695" y="244" type="curve"/>
    </contour>
    <contour>
      <point x="931" y="10" type="move" name="ogonek"/>
    </contour>
    <contour>
      <point x="777" y="1056" type="move" name="top"/>
    </contour>
  </outline>
</glyph>
<glyph name="b" format="1">
  <advance width="1048"/>
  <unicode hex="0062"/>
  <outline>
    <contour>
      <point x="367" y="1384" type="line"/>
      <point x="205" y="1412" type="line"/>
      <point x="213" y="1504" type="line"/>
      <point x="547" y="1534" type="line"/>
      <point x="569" y="1506" type="line"/>
      <point x="493" y="1020" type="line"/>
      <point x="461" y="874" type="line"/>
      <point x="475" y="874" type="line"/>
      <point x="540" y="986"/>
      <point x="676" y="1078"/>
      <point x="785" y="1078" type="curve" smooth="yes"/>
      <point x="892" y="1078"/>
      <point x="983" y="989"/>
      <point x="1029" y="858" type="curve" smooth="yes"/>
      <point x="1052" y="793"/>
      <point x="1063" y="723"/>
      <point x="1063" y="648" type="curve" smooth="yes"/>
      <point x="1063" y="403"/>
      <point x="949" y="184"/>
      <point x="756" y="63" type="curve" smooth="yes"/>
      <point x="659" y="2"/>
      <point x="552" y="-28"/>
      <point x="435" y="-28" type="curve" smooth="yes"/>
      <point x="338" y="-28"/>
      <point x="216" y="4"/>
      <point x="155" y="60" type="curve"/>
    </contour>
    <contour>
      <point x="603" y="108"/>
      <point x="653" y="124"/>
      <point x="709" y="172" type="curve" smooth="yes"/>
      <point x="765" y="220"/>
      <point x="809" y="288"/>
      <point x="838" y="409" type="curve" smooth="yes"/>
      <point x="852" y="469"/>
      <point x="859" y="537"/>
      <point x="859" y="612" type="curve" smooth="yes"/>
      <point x="859" y="697"/>
      <point x="837" y="791"/>
      <point x="783" y="857" type="curve" smooth="yes"/>
      <point x="756" y="890"/>
      <point x="724" y="906"/>
      <point x="689" y="906" type="curve" smooth="yes"/>
      <point x="593" y="906"/>
      <point x="536" y="871"/>
      <point x="465" y="806" type="curve"/>
      <point x="361" y="186" type="line"/>
      <point x="393" y="138"/>
      <point x="468" y="108"/>
      <point x="555" y="108" type="curve" smooth="yes"/>
    </contour>
  </outline>
</glyph>
<glyph name="c" format="1">
  <advance width="806"/>
  <unicode hex="0063"/>
  <outline>
    <contour>
      <point x="356" y="223"/>
      <point x="415" y="112"/>
      <point x="540" y="112" type="curve" smooth="yes"/>
      <point x="631" y="112"/>
      <point x="687" y="139"/>
      <point x="762" y="188" type="curve"/>
      <point x="790" y="128" type="line"/>
      <point x="714" y="33"/>
      <point x="582" y="-36"/>
      <point x="466" y="-36" type="curve" smooth="yes"/>
      <point x="267" y="-36"/>
      <point x="148" y="113"/>
      <point x="148" y="372" type="curve" smooth="yes"/>
      <point x="148" y="543"/>
      <point x="202" y="705"/>
      <point x="280" y="817" type="curve" smooth="yes"/>
      <point x="358" y="929"/>
      <point x="459" y="1017"/>
      <point x="556" y="1059" type="curve" smooth="yes"/>
      <point x="605" y="1080"/>
      <point x="650" y="1090"/>
      <point x="692" y="1090" type="curve" smooth="yes"/>
      <point x="820" y="1090"/>
      <point x="896" y="1021"/>
      <point x="896" y="916" type="curve" smooth="yes"/>
      <point x="896" y="836"/>
      <point x="823" y="786"/>
      <point x="728" y="778" type="curve"/>
      <point x="724" y="825"/>
      <point x="718" y="864"/>
      <point x="704" y="907" type="curve" smooth="yes"/>
      <point x="690" y="950"/>
      <point x="664" y="976"/>
      <point x="632" y="976" type="curve" smooth="yes"/>
      <point x="572" y="976"/>
      <point x="505" y="917"/>
      <point x="450" y="821" type="curve" smooth="yes"/>
      <point x="395" y="725"/>
      <point x="356" y="568"/>
      <point x="356" y="400" type="curve" smooth="yes"/>
    </contour>
    <contour>
      <point x="403" y="0" type="move" name="bottom"/>
    </contour>
    <contour>
      <point x="769" y="1056" type="move" name="top"/>
    </contour>
  </outline>
</glyph>
<glyph name="f" format="1">
  <advance width="711"/>
  <unicode hex="0066"/>
  <outline>
    <contour>
      <point x="958" y="1558"/>
      <point x="1033" y="1513"/>
      <point x="1033" y="1420" type="curve" smooth="yes"/>
      <point x="1033" y="1369"/>
      <point x="994" y="1319"/>
      <point x="909" y="1296" type="curve"/>
      <point x="892" y="1345"/>
      <point x="814" y="1404"/>
      <point x="743" y="1404" type="curve" smooth="yes"/>
      <point x="695" y="1404"/>
      <point x="659" y="1374"/>
      <point x="636" y="1322" type="curve" smooth="yes"/>
      <point x="613" y="1270"/>
      <point x="602" y="1223"/>
      <point x="591" y="1158" type="curve" smooth="yes"/>
      <point x="575" y="1058" type="line"/>
      <point x="801" y="1058" type="line"/>
      <point x="771" y="950" type="line"/>
      <point x="559" y="950" type="line"/>
      <point x="429" y="132" type="line"/>
      <point x="681" y="96" type="line"/>
      <point x="659" y="0" type="line"/>
      <point x="61" y="0" type="line"/>
      <point x="81" y="92" type="line"/>
      <point x="231" y="132" type="line"/>
      <point x="359" y="950" type="line"/>
      <point x="215" y="950" type="line"/>
      <point x="235" y="1032" type="line"/>
      <point x="379" y="1076" type="line"/>
      <point x="414" y="1247"/>
      <point x="514" y="1405"/>
      <point x="642" y="1493" type="curve" smooth="yes"/>
      <point x="705" y="1536"/>
      <point x="768" y="1558"/>
      <point x="830" y="1558" type="curve" smooth="yes"/>
    </contour>
  </outline>
</glyph>
<glyph name="h" format="1">
  <advance width="1087"/>
  <unicode hex="0068"/>
  <outline>
    <contour>
      <point x="929" y="122" type="line"/>
      <point x="1079" y="88" type="line"/>
      <point x="1053" y="0" type="line"/>
      <point x="725" y="0" type="line"/>
      <point x="827" y="636" type="line" smooth="yes"/>
      <point x="834" y="683"/>
      <point x="837" y="720"/>
      <point x="837" y="748" type="curve" smooth="yes"/>
      <point x="837" y="851"/>
      <point x="802" y="902"/>
      <point x="731" y="902" type="curve" smooth="yes"/>
      <point x="660" y="902"/>
      <point x="592" y="873"/>
      <point x="560" y="849" type="curve" smooth="yes"/>
      <point x="543" y="836"/>
      <point x="525" y="821"/>
      <point x="505" y="802" type="curve"/>
      <point x="397" y="124" type="line"/>
      <point x="545" y="86" type="line"/>
      <point x="523" y="0" type="line"/>
      <point x="33" y="0" type="line"/>
      <point x="59" y="90" type="line"/>
      <point x="205" y="130" type="line"/>
      <point x="405" y="1384" type="line"/>
      <point x="243" y="1412" type="line"/>
      <point x="255" y="1504" type="line"/>
      <point x="587" y="1534" type="line"/>
      <point x="613" y="1506" type="line"/>
      <point x="537" y="1024" type="line"/>
      <point x="503" y="874" type="line"/>
      <point x="517" y="874" type="line"/>
      <point x="600" y="983"/>
      <point x="729" y="1082"/>
      <point x="861" y="1082" type="curve" smooth="yes"/>
      <point x="980" y="1082"/>
      <point x="1039" y="1009"/>
      <point x="1039" y="864" type="curve" smooth="yes"/>
      <point x="1039" y="821"/>
      <point x="1036" y="781"/>
      <point x="1029" y="742" type="curve" smooth="yes"/>
    </contour>
    <contour>
      <point x="544" y="528" type="move" name="center"/>
    </contour>
    <contour>
      <point x="544" y="1506" type="move" name="top"/>
    </contour>
  </outline>
</glyph>
<glyph name="i" format="1">
  <advance width="602"/>
  <unicode hex="0069"/>
  <outline>
    <contour>
      <point x="617" y="1585"/>
      <point x="684" y="1525"/>
      <point x="684" y="1448" type="curve" smooth="yes"/>
      <point x="684" y="1367"/>
      <point x="616" y="1300"/>
      <point x="536" y="1300" type="curve" smooth="yes"/>
      <point x="456" y="1300"/>
      <point x="392" y="1367"/>
      <point x="392" y="1450" type="curve" smooth="yes"/>
      <point x="392" y="1526"/>
      <point x="459" y="1585"/>
      <point x="536" y="1585" type="curve" smooth="yes"/>
    </contour>
    <contour>
      <point x="244" y="128" type="line"/>
      <point x="366" y="904" type="line"/>
      <point x="208" y="930" type="line"/>
      <point x="220" y="1022" type="line"/>
      <point x="552" y="1052" type="line"/>
      <point x="576" y="1024" type="line"/>
      <point x="436" y="124" type="line"/>
      <point x="588" y="86" type="line"/>
      <point x="568" y="0" type="line"/>
      <point x="74" y="0" type="line"/>
      <point x="96" y="88" type="line"/>
    </contour>
  </outline>
</glyph>
<glyph name="j" format="1">
  <advance width="534"/>
  <unicode hex="006A"/>
  <outline>
    <contour>
      <point x="360" y="1523"/>
      <point x="431" y="1588"/>
      <point x="508" y="1588" type="curve" smooth="yes"/>
      <point x="592" y="1588"/>
      <point x="664" y="1522"/>
      <point x="664" y="1442" type="curve" smooth="yes"/>
      <point x="664" y="1359"/>
      <point x="592" y="1288"/>
      <point x="508" y="1288" type="curve" smooth="yes"/>
      <point x="428" y="1288"/>
      <point x="360" y="1362"/>
      <point x="360" y="1446" type="curve" smooth="yes"/>
    </contour>
    <contour>
      <point x="-102" y="-372" type="line"/>
      <point x="77" y="-241"/>
      <point x="181" y="-77"/>
      <point x="210" y="120" type="curve" smooth="yes"/>
      <point x="335" y="906" type="line"/>
      <point x="174" y="932" type="line"/>
      <point x="186" y="1024" type="line"/>
      <point x="518" y="1054" type="line"/>
      <point x="544" y="1026" type="line"/>
      <point x="398" y="104" type="line" smooth="yes"/>
      <point x="378" y="-25"/>
      <point x="319" y="-148"/>
      <point x="257" y="-228" type="curve" smooth="yes"/>
      <point x="195" y="-308"/>
      <point x="107" y="-380"/>
      <point x="48" y="-418" type="curve" smooth="yes"/>
      <point x="18" y="-437"/>
      <point x="-12" y="-454"/>
      <point x="-42" y="-468" type="curve"/>
    </contour>
  </outline>
</glyph>
<glyph name="k" format="1">
  <advance width="1041"/>
  <unicode hex="006B"/>
  <outline>
    <contour>
      <point x="490" y="526" type="line"/>
      <point x="494" y="546" type="line"/>
      <point x="812" y="932" type="line"/>
      <point x="664" y="972" type="line"/>
      <point x="682" y="1058" type="line"/>
      <point x="1142" y="1058" type="line"/>
      <point x="1116" y="966" type="line"/>
      <point x="956" y="926" type="line"/>
      <point x="666" y="590" type="line"/>
      <point x="726" y="464" type="line" smooth="yes"/>
      <point x="733" y="448"/>
      <point x="743" y="427"/>
      <point x="756" y="400" type="curve" smooth="yes"/>
      <point x="780" y="346"/>
      <point x="787" y="331"/>
      <point x="808" y="288" type="curve" smooth="yes"/>
      <point x="828" y="244"/>
      <point x="837" y="231"/>
      <point x="857" y="199" type="curve" smooth="yes"/>
      <point x="877" y="167"/>
      <point x="889" y="157"/>
      <point x="912" y="136" type="curve" smooth="yes"/>
      <point x="935" y="115"/>
      <point x="954" y="107"/>
      <point x="981" y="98" type="curve"/>
      <point x="994" y="93"/>
      <point x="1009" y="90"/>
      <point x="1024" y="88" type="curve" smooth="yes"/>
      <point x="1066" y="82" type="line"/>
      <point x="1040" y="0" type="line"/>
      <point x="1012" y="-9"/>
      <point x="923" y="-24"/>
      <point x="878" y="-24" type="curve" smooth="yes"/>
      <point x="821" y="-24"/>
      <point x="775" y="-4"/>
      <point x="739" y="28" type="curve" smooth="yes"/>
      <point x="702" y="60"/>
      <point x="660" y="133"/>
      <point x="627" y="204" type="curve" smooth="yes"/>
      <point x="610" y="239"/>
      <point x="589" y="287"/>
      <point x="564" y="348" type="curve" smooth="yes"/>
    </contour>
    <contour>
      <point x="206" y="130" type="line"/>
      <point x="406" y="1384" type="line"/>
      <point x="246" y="1410" type="line"/>
      <point x="260" y="1502" type="line"/>
      <point x="588" y="1532" type="line"/>
      <point x="616" y="1504" type="line"/>
      <point x="398" y="126" type="line"/>
      <point x="550" y="88" type="line"/>
      <point x="530" y="0" type="line"/>
      <point x="36" y="0" type="line"/>
      <point x="56" y="90" type="line"/>
    </contour>
    <contour>
      <point x="521" y="0" type="move" name="bottom"/>
    </contour>
  </outline>
</glyph>
<glyph name="l" format="1">
  <advance width="564"/>
  <unicode hex="006C"/>
  <outline>
    <contour>
      <point x="205" y="130" type="line"/>
      <point x="405" y="1384" type="line"/>
      <point x="245" y="1410" type="line"/>
      <point x="259" y="1502" type="line"/>
      <point x="587" y="1532" type="line"/>
      <point x="613" y="1504" type="line"/>
      <point x="397" y="126" type="line"/>
      <point x="551" y="88" type="line"/>
      <point x="529" y="0" type="line"/>
      <point x="35" y="0" type="line"/>
      <point x="57" y="90" type="line"/>
    </contour>
    <contour>
      <point x="282" y="0" type="move" name="bottom"/>
    </contour>
    <contour>
      <point x="544" y="1056" type="move" name="topright"/>
    </contour>
    <contour>
      <point x="282" y="1056" type="move" name="top"/>
    </contour>
  </outline>
</glyph>
<glyph name="m" format="1">
  <advance width="1653"/>
  <unicode hex="006D"/>
  <outline>
    <contour>
      <point x="1502" y="122" type="line"/>
      <point x="1652" y="88" type="line"/>
      <point x="1626" y="0" type="line"/>
      <point x="1308" y="0" type="line"/>
      <point x="1294" y="16" type="line"/>
      <point x="1390" y="636" type="line" smooth="yes"/>
      <point x="1397" y="685"/>
      <point x="1400" y="723"/>
      <point x="1400" y="752" type="curve" smooth="yes"/>
      <point x="1400" y="853"/>
      <point x="1369" y="904"/>
      <point x="1308" y="904" type="curve" smooth="yes"/>
      <point x="1221" y="904"/>
      <point x="1144" y="870"/>
      <point x="1076" y="802" type="curve"/>
      <point x="1068" y="742"/>
      <point x="1059" y="680"/>
      <point x="1048" y="616" type="curve" smooth="yes"/>
      <point x="1018" y="426" type="line"/>
      <point x="970" y="124" type="line"/>
      <point x="1120" y="90" type="line"/>
      <point x="1094" y="0" type="line"/>
      <point x="776" y="0" type="line"/>
      <point x="762" y="18" type="line"/>
      <point x="862" y="636" type="line" smooth="yes"/>
      <point x="870" y="682"/>
      <point x="874" y="724"/>
      <point x="874" y="762" type="curve" smooth="yes"/>
      <point x="874" y="857"/>
      <point x="843" y="904"/>
      <point x="780" y="904" type="curve" smooth="yes"/>
      <point x="699" y="904"/>
      <point x="623" y="870"/>
      <point x="552" y="802" type="curve"/>
      <point x="446" y="126" type="line"/>
      <point x="594" y="88" type="line"/>
      <point x="572" y="0" type="line"/>
      <point x="76" y="0" type="line"/>
      <point x="102" y="92" type="line"/>
      <point x="248" y="132" type="line"/>
      <point x="364" y="898" type="line"/>
      <point x="206" y="924" type="line"/>
      <point x="222" y="1024" type="line"/>
      <point x="562" y="1054" type="line"/>
      <point x="588" y="1026" type="line"/>
      <point x="550" y="874" type="line"/>
      <point x="564" y="874" type="line"/>
      <point x="585" y="909"/>
      <point x="624" y="950"/>
      <point x="684" y="998" type="curve" smooth="yes"/>
      <point x="743" y="1046"/>
      <point x="828" y="1082"/>
      <point x="908" y="1082" type="curve" smooth="yes"/>
      <point x="1012" y="1082"/>
      <point x="1080" y="1023"/>
      <point x="1080" y="900" type="curve" smooth="yes"/>
      <point x="1080" y="884" type="line"/>
      <point x="1094" y="884" type="line"/>
      <point x="1194" y="1016"/>
      <point x="1306" y="1082"/>
      <point x="1430" y="1082" type="curve" smooth="yes"/>
      <point x="1549" y="1082"/>
      <point x="1602" y="1012"/>
      <point x="1602" y="868" type="curve" smooth="yes"/>
      <point x="1602" y="835"/>
      <point x="1599" y="793"/>
      <point x="1592" y="742" type="curve" smooth="yes"/>
    </contour>
  </outline>
</glyph>
<glyph name="p" format="1">
  <advance width="1095"/>
  <unicode hex="0070"/>
  <outline>
    <contour>
      <point x="156" y="-316" type="line"/>
      <point x="332" y="902" type="line"/>
      <point x="172" y="928" type="line"/>
      <point x="186" y="1020" type="line"/>
      <point x="522" y="1054" type="line"/>
      <point x="546" y="1026" type="line"/>
      <point x="508" y="872" type="line"/>
      <point x="522" y="872" type="line"/>
      <point x="575" y="973"/>
      <point x="713" y="1078"/>
      <point x="820" y="1078" type="curve" smooth="yes"/>
      <point x="980" y="1078"/>
      <point x="1106" y="888"/>
      <point x="1106" y="644" type="curve" smooth="yes"/>
      <point x="1106" y="440"/>
      <point x="1035" y="263"/>
      <point x="927" y="152" type="curve" smooth="yes"/>
      <point x="819" y="41"/>
      <point x="677" y="-22"/>
      <point x="532" y="-22" type="curve" smooth="yes"/>
      <point x="478" y="-22"/>
      <point x="441" y="-17"/>
      <point x="420" y="-8" type="curve"/>
      <point x="446" y="130" type="line"/>
      <point x="469" y="119"/>
      <point x="525" y="108"/>
      <point x="552" y="108" type="curve" smooth="yes"/>
      <point x="596" y="108"/>
      <point x="624" y="110"/>
      <point x="674" y="124" type="curve" smooth="yes"/>
      <point x="724" y="138"/>
      <point x="758" y="160"/>
      <point x="799" y="208" type="curve" smooth="yes"/>
      <point x="840" y="256"/>
      <point x="866" y="317"/>
      <point x="883" y="418" type="curve" smooth="yes"/>
      <point x="892" y="469"/>
      <point x="896" y="525"/>
      <point x="896" y="588" type="curve" smooth="yes"/>
      <point x="896" y="780"/>
      <point x="823" y="904"/>
      <point x="736" y="904" type="curve" smooth="yes"/>
      <point x="644" y="904"/>
      <point x="597" y="879"/>
      <point x="510" y="800" type="curve"/>
      <point x="342" y="-318" type="line"/>
      <point x="530" y="-356" type="line"/>
      <point x="508" y="-442" type="line"/>
      <point x="-14" y="-446" type="line"/>
      <point x="10" y="-356" type="line"/>
    </contour>
  </outline>
</glyph>
<glyph name="q" format="1">
  <advance width="1002"/>
  <unicode hex="0071"/>
  <outline>
    <contour>
      <point x="619" y="-312" type="line"/>
      <point x="797" y="902" type="line"/>
      <point x="750" y="930"/>
      <point x="704" y="944"/>
      <point x="659" y="944" type="curve" smooth="yes"/>
      <point x="559" y="944"/>
      <point x="473" y="866"/>
      <point x="423" y="757" type="curve" smooth="yes"/>
      <point x="373" y="648"/>
      <point x="345" y="519"/>
      <point x="345" y="400" type="curve" smooth="yes"/>
      <point x="345" y="243"/>
      <point x="396" y="124"/>
      <point x="485" y="124" type="curve" smooth="yes"/>
      <point x="550" y="124"/>
      <point x="616" y="146"/>
      <point x="655" y="178" type="curve"/>
      <point x="665" y="116" type="line"/>
      <point x="597" y="27"/>
      <point x="517" y="-26"/>
      <point x="377" y="-26" type="curve" smooth="yes"/>
      <point x="228" y="-26"/>
      <point x="141" y="116"/>
      <point x="141" y="320" type="curve" smooth="yes"/>
      <point x="141" y="477"/>
      <point x="189" y="636"/>
      <point x="269" y="759" type="curve" smooth="yes"/>
      <point x="348" y="882"/>
      <point x="450" y="980"/>
      <point x="569" y="1032" type="curve" smooth="yes"/>
      <point x="628" y="1057"/>
      <point x="687" y="1070"/>
      <point x="745" y="1070" type="curve" smooth="yes"/>
      <point x="796" y="1070"/>
      <point x="838" y="1062"/>
      <point x="871" y="1046" type="curve"/>
      <point x="991" y="1064" type="line"/>
      <point x="1011" y="1056" type="line"/>
      <point x="807" y="-318" type="line"/>
      <point x="971" y="-356" type="line"/>
      <point x="949" y="-442" type="line"/>
      <point x="409" y="-442" type="line"/>
      <point x="433" y="-352" type="line"/>
    </contour>
  </outline>
</glyph>
<glyph name="s" format="1">
  <advance width="787"/>
  <unicode hex="0073"/>
  <outline>
    <contour>
      <point x="733" y="1092"/>
      <point x="822" y="1035"/>
      <point x="822" y="924" type="curve" smooth="yes"/>
      <point x="822" y="817"/>
      <point x="765" y="755"/>
      <point x="666" y="744" type="curve"/>
      <point x="662" y="772" type="line"/>
      <point x="650" y="924"/>
      <point x="610" y="1000"/>
      <point x="542" y="1000" type="curve" smooth="yes"/>
      <point x="458" y="1000"/>
      <point x="394" y="947"/>
      <point x="394" y="844" type="curve" smooth="yes"/>
      <point x="394" y="761"/>
      <point x="452" y="681"/>
      <point x="524" y="620" type="curve" smooth="yes"/>
      <point x="596" y="559"/>
      <point x="672" y="500"/>
      <point x="723" y="421" type="curve" smooth="yes"/>
      <point x="748" y="381"/>
      <point x="761" y="339"/>
      <point x="761" y="296" type="curve" smooth="yes"/>
      <point x="761" y="215"/>
      <point x="724" y="139"/>
      <point x="669" y="86" type="curve" smooth="yes"/>
      <point x="613" y="33"/>
      <point x="543" y="-8"/>
      <point x="472" y="-27" type="curve" smooth="yes"/>
      <point x="436" y="-37"/>
      <point x="402" y="-42"/>
      <point x="370" y="-42" type="curve" smooth="yes"/>
      <point x="201" y="-42"/>
      <point x="98" y="44"/>
      <point x="98" y="148" type="curve" smooth="yes"/>
      <point x="98" y="227"/>
      <point x="153" y="291"/>
      <point x="246" y="300" type="curve"/>
      <point x="286" y="135"/>
      <point x="343" y="66"/>
      <point x="418" y="66" type="curve" smooth="yes"/>
      <point x="502" y="66"/>
      <point x="586" y="124"/>
      <point x="586" y="220" type="curve" smooth="yes"/>
      <point x="586" y="277"/>
      <point x="528" y="337"/>
      <point x="456" y="393" type="curve" smooth="yes"/>
      <point x="384" y="448"/>
      <point x="307" y="505"/>
      <point x="256" y="597" type="curve" smooth="yes"/>
      <point x="231" y="642"/>
      <point x="218" y="691"/>
      <point x="218" y="744" type="curve" smooth="yes"/>
      <point x="218" y="831"/>
      <point x="262" y="920"/>
      <point x="330" y="985" type="curve" smooth="yes"/>
      <point x="398" y="1049"/>
      <point x="499" y="1092"/>
      <point x="604" y="1092" type="curve" smooth="yes"/>
    </contour>
    <contour>
      <point x="394" y="0" type="move" name="bottom"/>
    </contour>
    <contour>
      <point x="584" y="1056" type="move" name="top"/>
    </contour>
  </outline>
</glyph>
<glyph name="t" format="1">
  <advance width="683"/>
  <unicode hex="0074"/>
  <outline>
    <contour>
      <point x="576" y="1308" type="line"/>
      <point x="534" y="1056" type="line"/>
      <point x="794" y="1056" type="line"/>
      <point x="770" y="940" type="line"/>
      <point x="510" y="940" type="line"/>
      <point x="428" y="420" type="line" smooth="yes"/>
      <point x="417" y="354"/>
      <point x="412" y="308"/>
      <point x="412" y="282" type="curve" smooth="yes"/>
      <point x="412" y="207"/>
      <point x="433" y="146"/>
      <point x="488" y="146" type="curve" smooth="yes"/>
      <point x="548" y="146"/>
      <point x="611" y="159"/>
      <point x="676" y="186" type="curve"/>
      <point x="692" y="124" type="line"/>
      <point x="619" y="43"/>
      <point x="501" y="-26"/>
      <point x="394" y="-26" type="curve" smooth="yes"/>
      <point x="279" y="-26"/>
      <point x="214" y="45"/>
      <point x="214" y="184" type="curve" smooth="yes"/>
      <point x="214" y="227"/>
      <point x="218" y="270"/>
      <point x="226" y="314" type="curve" smooth="yes"/>
      <point x="326" y="940" type="line"/>
      <point x="192" y="940" type="line"/>
      <point x="204" y="998" type="line"/>
      <point x="313" y="1075"/>
      <point x="394" y="1169"/>
      <point x="498" y="1308" type="curve"/>
    </contour>
    <contour>
      <point x="342" y="0" type="move" name="bottom"/>
    </contour>
    <contour>
      <point x="342" y="528" type="move" name="center"/>
    </contour>
  </outline>
</glyph>
<glyph name="v" format="1">
  <advance width="929"/>
  <unicode hex="0076"/>
  <outline>
    <contour>
      <point x="391" y="-34" type="line"/>
      <point x="261" y="934" type="line"/>
      <point x="145" y="972" type="line"/>
      <point x="167" y="1058" type="line"/>
      <point x="625" y="1058" type="line"/>
      <point x="603" y="974" type="line"/>
      <point x="455" y="928" type="line"/>
      <point x="539" y="260" type="line"/>
      <point x="829" y="932" type="line"/>
      <point x="681" y="972" type="line"/>
      <point x="701" y="1058" type="line"/>
      <point x="1103" y="1058" type="line"/>
      <point x="1079" y="968" type="line"/>
      <point x="959" y="926" type="line"/>
      <point x="517" y="-12" type="line"/>
    </contour>
  </outline>
</glyph>
<glyph name="w" format="1">
  <advance width="1413"/>
  <unicode hex="0077"/>
  <outline>
    <contour>
      <point x="797" y="980" type="line"/>
      <point x="959" y="1002" type="line"/>
      <point x="1031" y="420" type="line"/>
      <point x="1037" y="260" type="line"/>
      <point x="1315" y="934" type="line"/>
      <point x="1169" y="972" type="line"/>
      <point x="1189" y="1058" type="line"/>
      <point x="1583" y="1058" type="line"/>
      <point x="1559" y="968" type="line"/>
      <point x="1443" y="928" type="line"/>
      <point x="1035" y="-14" type="line"/>
      <point x="907" y="-36" type="line"/>
      <point x="811" y="730" type="line"/>
      <point x="497" y="-14" type="line"/>
      <point x="357" y="-36" type="line"/>
      <point x="265" y="934" type="line"/>
      <point x="147" y="972" type="line"/>
      <point x="169" y="1058" type="line"/>
      <point x="597" y="1058" type="line"/>
      <point x="575" y="968" type="line"/>
      <point x="429" y="928" type="line"/>
      <point x="489" y="438" type="line"/>
      <point x="499" y="274" type="line"/>
    </contour>
    <contour>
      <point x="907" y="1056" type="move" name="top"/>
    </contour>
  </outline>
</glyph>
<glyph name="x" format="1">
  <advance width="1036"/>
  <unicode hex="0078"/>
  <outline>
    <contour>
      <point x="907" y="126" type="line"/>
      <point x="1021" y="84" type="line"/>
      <point x="999" y="0" type="line"/>
      <point x="521" y="0" type="line"/>
      <point x="545" y="84" type="line"/>
      <point x="693" y="126" type="line"/>
      <point x="555" y="426" type="line"/>
      <point x="313" y="128" type="line"/>
      <point x="467" y="86" type="line"/>
      <point x="443" y="0" type="line"/>
      <point x="23" y="0" type="line"/>
      <point x="47" y="84" type="line"/>
      <point x="161" y="126" type="line"/>
      <point x="509" y="526" type="line"/>
      <point x="323" y="934" type="line"/>
      <point x="207" y="970" type="line"/>
      <point x="229" y="1056" type="line"/>
      <point x="689" y="1056" type="line"/>
      <point x="665" y="972" type="line"/>
      <point x="523" y="934" type="line"/>
      <point x="659" y="648" type="line"/>
      <point x="885" y="930" type="line"/>
      <point x="759" y="970" type="line"/>
      <point x="781" y="1056" type="line"/>
      <point x="1159" y="1056" type="line"/>
      <point x="1133" y="970" type="line"/>
      <point x="1013" y="926" type="line"/>
      <point x="699" y="562" type="line"/>
    </contour>
  </outline>
</glyph>
<glyph name="y" format="1">
  <advance width="1007"/>
  <unicode hex="0079"/>
  <outline>
    <contour>
      <point x="564" y="272" type="line"/>
      <point x="904" y="932" type="line"/>
      <point x="756" y="972" type="line"/>
      <point x="780" y="1058" type="line"/>
      <point x="1184" y="1058" type="line"/>
      <point x="1160" y="968" type="line"/>
      <point x="1044" y="930" type="line"/>
      <point x="526" y="-64" type="line" smooth="yes"/>
      <point x="370" y="-363"/>
      <point x="258" y="-460"/>
      <point x="90" y="-460" type="curve" smooth="yes"/>
      <point x="-17" y="-460"/>
      <point x="-68" y="-405"/>
      <point x="-68" y="-324" type="curve" smooth="yes"/>
      <point x="-68" y="-266"/>
      <point x="-39" y="-215"/>
      <point x="18" y="-170" type="curve"/>
      <point x="73" y="-214"/>
      <point x="131" y="-236"/>
      <point x="190" y="-236" type="curve" smooth="yes"/>
      <point x="263" y="-236"/>
      <point x="317" y="-207"/>
      <point x="394" y="-60" type="curve" smooth="yes"/>
      <point x="416" y="-18" type="line"/>
      <point x="262" y="934" type="line"/>
      <point x="148" y="972" type="line"/>
      <point x="168" y="1058" type="line"/>
      <point x="634" y="1058" type="line"/>
      <point x="612" y="974" type="line"/>
      <point x="462" y="926" type="line"/>
    </contour>
    <contour>
      <point x="704" y="1056" type="move" name="top"/>
    </contour>
  </outline>
</glyph>
<glyph name="z" format="1">
  <advance width="903"/>
  <unicode hex="007A"/>
  <outline>
    <contour>
      <point x="216" y="767" type="line"/>
      <point x="274" y="1058" type="line"/>
      <point x="974" y="1058" type="line"/>
      <point x="962" y="976" type="line"/>
      <point x="296" y="106" type="line"/>
      <point x="662" y="106" type="line"/>
      <point x="802" y="304" type="line"/>
      <point x="878" y="294" type="line"/>
      <point x="782" y="0" type="line"/>
      <point x="82" y="0" type="line"/>
      <point x="92" y="96" type="line"/>
      <point x="748" y="956" type="line"/>
      <point x="402" y="956" type="line"/>
      <point x="296" y="752" type="line"/>
    </contour>
    <contour>
      <point x="642" y="1056" type="move" name="top"/>
    </contour>
  </outline>
</glyph>
<glyph name="braceleft" format="1">
  <advance width="639"/>
  <unicode hex="007B"/>
  <outline>
    <contour>
      <point x="522" y="-336" type="line"/>
      <point x="512" y="-458" type="line"/>
      <point x="438" y="-458" type="line" smooth="yes"/>
      <point x="270" y="-458"/>
      <point x="210" y="-361"/>
      <point x="210" y="-200" type="curve" smooth="yes"/>
      <point x="210" y="-152"/>
      <point x="217" y="-76"/>
      <point x="232" y="29" type="curve" smooth="yes"/>
      <point x="247" y="134"/>
      <point x="254" y="208"/>
      <point x="254" y="252" type="curve" smooth="yes"/>
      <point x="254" y="373"/>
      <point x="224" y="447"/>
      <point x="132" y="462" type="curve" smooth="yes"/>
      <point x="72" y="472" type="line"/>
      <point x="90" y="592" type="line"/>
      <point x="150" y="602" type="line" smooth="yes"/>
      <point x="247" y="618"/>
      <point x="311" y="703"/>
      <point x="342" y="812" type="curve" smooth="yes"/>
      <point x="357" y="866"/>
      <point x="371" y="925"/>
      <point x="382" y="989" type="curve" smooth="yes"/>
      <point x="405" y="1117"/>
      <point x="431" y="1247"/>
      <point x="477" y="1349" type="curve" smooth="yes"/>
      <point x="523" y="1451"/>
      <point x="614" y="1520"/>
      <point x="749" y="1520" type="curve" smooth="yes"/>
      <point x="820" y="1520" type="line"/>
      <point x="790" y="1400" type="line"/>
      <point x="742" y="1392" type="line" smooth="yes"/>
      <point x="685" y="1383"/>
      <point x="649" y="1316"/>
      <point x="630" y="1225" type="curve" smooth="yes"/>
      <point x="620" y="1179"/>
      <point x="611" y="1129"/>
      <point x="603" y="1074" type="curve" smooth="yes"/>
      <point x="587" y="964"/>
      <point x="565" y="846"/>
      <point x="527" y="747" type="curve" smooth="yes"/>
      <point x="489" y="648"/>
      <point x="415" y="566"/>
      <point x="312" y="538" type="curve"/>
      <point x="310" y="530" type="line"/>
      <point x="422" y="497"/>
      <point x="460" y="401"/>
      <point x="460" y="257" type="curve" smooth="yes"/>
      <point x="460" y="202"/>
      <point x="452" y="120"/>
      <point x="436" y="13" type="curve" smooth="yes"/>
      <point x="420" y="-94"/>
      <point x="412" y="-167"/>
      <point x="412" y="-204" type="curve" smooth="yes"/>
      <point x="412" y="-281"/>
      <point x="435" y="-323"/>
      <point x="482" y="-330" type="curve" smooth="yes"/>
    </contour>
  </outline>
</glyph>
<glyph name="bar" format="1">
  <advance width="461"/>
  <unicode hex="007C"/>
  <outline>
    <contour>
      <point x="231" y="-440" type="line"/>
      <point x="93" y="-424" type="line"/>
      <point x="401" y="1520" type="line"/>
      <point x="539" y="1506" type="line"/>
    </contour>
  </outline>
</glyph>
<glyph name="braceright" format="1">
  <advance width="638"/>
  <unicode hex="007D"/>
  <outline>
    <contour>
      <point x="11" y="-336" type="line"/>
      <point x="51" y="-330" type="line" smooth="yes"/>
      <point x="112" y="-321"/>
      <point x="152" y="-255"/>
      <point x="173" y="-162" type="curve" smooth="yes"/>
      <point x="184" y="-116"/>
      <point x="193" y="-65"/>
      <point x="202" y="-10" type="curve" smooth="yes"/>
      <point x="219" y="101"/>
      <point x="244" y="220"/>
      <point x="281" y="320" type="curve" smooth="yes"/>
      <point x="318" y="419"/>
      <point x="392" y="502"/>
      <point x="495" y="530" type="curve"/>
      <point x="497" y="538" type="line"/>
      <point x="398" y="567"/>
      <point x="349" y="653"/>
      <point x="349" y="796" type="curve" smooth="yes"/>
      <point x="349" y="851"/>
      <point x="358" y="933"/>
      <point x="375" y="1042" type="curve" smooth="yes"/>
      <point x="392" y="1151"/>
      <point x="401" y="1225"/>
      <point x="401" y="1264" type="curve" smooth="yes"/>
      <point x="401" y="1341"/>
      <point x="386" y="1384"/>
      <point x="339" y="1392" type="curve" smooth="yes"/>
      <point x="291" y="1400" type="line"/>
      <point x="301" y="1520" type="line"/>
      <point x="373" y="1520" type="line" smooth="yes"/>
      <point x="461" y="1520"/>
      <point x="522" y="1494"/>
      <point x="554" y="1443" type="curve" smooth="yes"/>
      <point x="585" y="1392"/>
      <point x="597" y="1336"/>
      <point x="597" y="1256" type="curve" smooth="yes"/>
      <point x="597" y="1207"/>
      <point x="590" y="1131"/>
      <point x="576" y="1027" type="curve" smooth="yes"/>
      <point x="562" y="922"/>
      <point x="555" y="848"/>
      <point x="555" y="804" type="curve" smooth="yes"/>
      <point x="555" y="689"/>
      <point x="588" y="619"/>
      <point x="679" y="602" type="curve" smooth="yes"/>
      <point x="735" y="592" type="line"/>
      <point x="717" y="472" type="line"/>
      <point x="653" y="462" type="line" smooth="yes"/>
      <point x="577" y="450"/>
      <point x="523" y="398"/>
      <point x="492" y="324" type="curve" smooth="yes"/>
      <point x="460" y="250"/>
      <point x="439" y="154"/>
      <point x="422" y="55" type="curve" smooth="yes"/>
      <point x="405" y="-44"/>
      <point x="388" y="-144"/>
      <point x="354" y="-232" type="curve" smooth="yes"/>
      <point x="320" y="-320"/>
      <point x="276" y="-389"/>
      <point x="196" y="-428" type="curve" smooth="yes"/>
      <point x="155" y="-448"/>
      <point x="108" y="-458"/>
      <point x="55" y="-458" type="curve" smooth="yes"/>
      <point x="-19" y="-458" type="line"/>
    </contour>
  </outline>
</glyph>
<glyph name="asciitilde" format="1">
  <advance width="1147"/>
  <unicode hex="007E"/>
  <outline>
    <contour>
      <point x="198" y="500" type="line"/>
      <point x="199" y="507"/>
      <point x="202" y="515"/>
      <point x="205" y="526" type="curve"/>
      <point x="212" y="547"/>
      <point x="239" y="615"/>
      <point x="269" y="657" type="curve" smooth="yes"/>
      <point x="299" y="699"/>
      <point x="353" y="740"/>
      <point x="412" y="740" type="curve" smooth="yes"/>
      <point x="428" y="740" type="line"/>
      <point x="969" y="686" type="line"/>
      <point x="974" y="686" type="line" smooth="yes"/>
      <point x="1001" y="686"/>
      <point x="1038" y="717"/>
      <point x="1058" y="742" type="curve" smooth="yes"/>
      <point x="1072" y="760" type="line"/>
      <point x="1150" y="758" type="line"/>
      <point x="1148" y="751"/>
      <point x="1145" y="743"/>
      <point x="1142" y="732" type="curve"/>
      <point x="1135" y="710"/>
      <point x="1106" y="641"/>
      <point x="1075" y="598" type="curve" smooth="yes"/>
      <point x="1043" y="554"/>
      <point x="987" y="512"/>
      <point x="928" y="512" type="curve" smooth="yes"/>
      <point x="926" y="512"/>
      <point x="923" y="512"/>
      <point x="919" y="513" type="curve" smooth="yes"/>
      <point x="915" y="514"/>
      <point x="912" y="514"/>
      <point x="910" y="514" type="curve"/>
      <point x="370" y="568" type="line"/>
      <point x="364" y="568" type="line" smooth="yes"/>
      <point x="335" y="568"/>
      <point x="297" y="533"/>
      <point x="278" y="505" type="curve" smooth="yes"/>
      <point x="264" y="484" type="line"/>
    </contour>
  </outline>
</glyph>
<glyph name="exclamdown" format="1">
  <advance width="499"/>
  <unicode hex="00A1"/>
  <outline>
    <contour>
      <point x="553" y="901"/>
      <point x="478" y="828"/>
      <point x="383" y="828" type="curve" smooth="yes"/>
      <point x="308" y="828"/>
      <point x="259" y="889"/>
      <point x="259" y="958" type="curve" smooth="yes"/>
      <point x="259" y="1057"/>
      <point x="332" y="1126"/>
      <point x="425" y="1126" type="curve" smooth="yes"/>
      <point x="490" y="1126"/>
      <point x="553" y="1059"/>
      <point x="553" y="998" type="curve" smooth="yes"/>
    </contour>
    <contour>
      <point x="301" y="654" type="line"/>
      <point x="405" y="630" type="line"/>
      <point x="405" y="626" type="line"/>
      <point x="360" y="72"/>
      <point x="326" y="-279"/>
      <point x="303" y="-428" type="curve"/>
      <point x="301" y="-432" type="line"/>
      <point x="289" y="-463"/>
      <point x="193" y="-480"/>
      <point x="133" y="-480" type="curve" smooth="yes"/>
      <point x="97" y="-480"/>
      <point x="63" y="-467"/>
      <point x="63" y="-438" type="curve" smooth="yes"/>
      <point x="63" y="-432" type="line"/>
      <point x="90" y="-259"/>
      <point x="170" y="100"/>
      <point x="301" y="646" type="curve"/>
    </contour>
  </outline>
</glyph>
<glyph name="cent" format="1">
  <advance width="1022"/>
  <unicode hex="00A2"/>
  <outline>
    <contour>
      <point x="897" y="1254" type="line"/>
      <point x="847" y="1084" type="line"/>
      <point x="994" y="1069"/>
      <point x="1047" y="1012"/>
      <point x="1047" y="920" type="curve" smooth="yes"/>
      <point x="1047" y="847"/>
      <point x="976" y="784"/>
      <point x="875" y="776" type="curve"/>
      <point x="872" y="829"/>
      <point x="849" y="904"/>
      <point x="797" y="944" type="curve"/>
      <point x="561" y="126" type="line"/>
      <point x="594" y="111"/>
      <point x="635" y="104"/>
      <point x="683" y="104" type="curve" smooth="yes"/>
      <point x="782" y="104"/>
      <point x="855" y="136"/>
      <point x="947" y="188" type="curve"/>
      <point x="954" y="175"/>
      <point x="959" y="152"/>
      <point x="963" y="120" type="curve"/>
      <point x="844" y="13"/>
      <point x="718" y="-36"/>
      <point x="551" y="-36" type="curve" smooth="yes"/>
      <point x="534" y="-36"/>
      <point x="521" y="-35"/>
      <point x="513" y="-34" type="curve"/>
      <point x="483" y="-138" type="line"/>
      <point x="335" y="-162" type="line"/>
      <point x="383" y="0" type="line"/>
      <point x="304" y="40"/>
      <point x="246" y="103"/>
      <point x="215" y="177" type="curve" smooth="yes"/>
      <point x="184" y="251"/>
      <point x="171" y="323"/>
      <point x="171" y="404" type="curve" smooth="yes"/>
      <point x="171" y="552"/>
      <point x="219" y="694"/>
      <point x="291" y="798" type="curve" smooth="yes"/>
      <point x="363" y="901"/>
      <point x="460" y="985"/>
      <point x="559" y="1034" type="curve" smooth="yes"/>
      <point x="608" y="1058"/>
      <point x="657" y="1074"/>
      <point x="705" y="1082" type="curve"/>
      <point x="749" y="1228" type="line"/>
    </contour>
    <contour>
      <point x="685" y="972" type="line"/>
      <point x="558" y="940"/>
      <point x="419" y="715"/>
      <point x="419" y="492" type="curve" smooth="yes"/>
      <point x="419" y="360"/>
      <point x="426" y="310"/>
      <point x="473" y="222" type="curve"/>
    </contour>
  </outline>
</glyph>
<glyph name="sterling" format="1">
  <advance width="1389"/>
  <unicode hex="00A3"/>
  <outline>
    <contour>
      <point x="1251" y="1084" type="line"/>
      <point x="1151" y="1100" type="line"/>
      <point x="1141" y="1358" type="line"/>
      <point x="1109" y="1377"/>
      <point x="1076" y="1386"/>
      <point x="1043" y="1386" type="curve" smooth="yes"/>
      <point x="962" y="1386"/>
      <point x="904" y="1363"/>
      <point x="859" y="1316" type="curve" smooth="yes"/>
      <point x="814" y="1268"/>
      <point x="780" y="1175"/>
      <point x="753" y="1064" type="curve" smooth="yes"/>
      <point x="739" y="1008"/>
      <point x="724" y="937"/>
      <point x="709" y="852" type="curve" smooth="yes"/>
      <point x="699" y="794" type="line"/>
      <point x="969" y="810" type="line"/>
      <point x="935" y="688" type="line"/>
      <point x="679" y="672" type="line"/>
      <point x="669" y="624" type="line" smooth="yes"/>
      <point x="626" y="381"/>
      <point x="574" y="213"/>
      <point x="515" y="120" type="curve"/>
      <point x="1073" y="116" type="line"/>
      <point x="1279" y="422" type="line"/>
      <point x="1379" y="400" type="line"/>
      <point x="1271" y="0" type="line"/>
      <point x="73" y="0" type="line"/>
      <point x="97" y="90" type="line"/>
      <point x="307" y="146" type="line"/>
      <point x="360" y="258"/>
      <point x="381" y="347"/>
      <point x="421" y="558" type="curve" smooth="yes"/>
      <point x="439" y="664" type="line"/>
      <point x="221" y="652" type="line"/>
      <point x="255" y="774" type="line"/>
      <point x="463" y="786" type="line"/>
      <point x="493" y="952" type="line" smooth="yes"/>
      <point x="529" y="1143"/>
      <point x="606" y="1291"/>
      <point x="710" y="1380" type="curve" smooth="yes"/>
      <point x="813" y="1469"/>
      <point x="935" y="1514"/>
      <point x="1075" y="1514" type="curve" smooth="yes"/>
      <point x="1187" y="1514"/>
      <point x="1279" y="1498"/>
      <point x="1351" y="1466" type="curve"/>
    </contour>
  </outline>
</glyph>
<glyph name="currency" format="1">
  <advance width="986"/>
  <unicode hex="00A4"/>
  <outline>
    <contour>
      <point x="781" y="748"/>
      <point x="733" y="812"/>
      <point x="617" y="812" type="curve" smooth="yes"/>
      <point x="501" y="812"/>
      <point x="395" y="706"/>
      <point x="395" y="574" type="curve" smooth="yes"/>
      <point x="395" y="441"/>
      <point x="440" y="380"/>
      <point x="551" y="380" type="curve" smooth="yes"/>
      <point x="670" y="380"/>
      <point x="781" y="487"/>
      <point x="781" y="612" type="curve" smooth="yes"/>
    </contour>
    <contour>
      <point x="175" y="308" type="line"/>
      <point x="291" y="402" type="line"/>
      <point x="264" y="457"/>
      <point x="259" y="476"/>
      <point x="259" y="536" type="curve" smooth="yes"/>
      <point x="259" y="588"/>
      <point x="305" y="716"/>
      <point x="341" y="760" type="curve"/>
      <point x="249" y="864" type="line"/>
      <point x="367" y="964" type="line"/>
      <point x="443" y="858" type="line"/>
      <point x="503" y="902"/>
      <point x="581" y="930"/>
      <point x="641" y="930" type="curve" smooth="yes"/>
      <point x="708" y="930"/>
      <point x="780" y="907"/>
      <point x="821" y="871" type="curve"/>
      <point x="931" y="966" type="line"/>
      <point x="1007" y="860" type="line"/>
      <point x="890" y="770" type="line"/>
      <point x="909" y="726"/>
      <point x="911" y="712"/>
      <point x="911" y="648" type="curve" smooth="yes"/>
      <point x="911" y="556"/>
      <point x="872" y="467"/>
      <point x="825" y="414" type="curve"/>
      <point x="923" y="310" type="line"/>
      <point x="801" y="210" type="line"/>
      <point x="723" y="320" type="line"/>
      <point x="652" y="281"/>
      <point x="586" y="262"/>
      <point x="525" y="262" type="curve" smooth="yes"/>
      <point x="474" y="262"/>
      <point x="422" y="279"/>
      <point x="371" y="312" type="curve"/>
      <point x="261" y="204" type="line"/>
    </contour>
  </outline>
</glyph>
<glyph name="yen" format="1">
  <advance width="1375"/>
  <unicode hex="00A5"/>
  <outline>
    <contour>
      <point x="656" y="572" type="line"/>
      <point x="284" y="572" type="line"/>
      <point x="318" y="700" type="line"/>
      <point x="638" y="700" type="line"/>
      <point x="452" y="1364" type="line"/>
      <point x="293" y="1414" type="line"/>
      <point x="324" y="1506" type="line"/>
      <point x="890" y="1506" type="line"/>
      <point x="860" y="1414" type="line"/>
      <point x="694" y="1368" type="line"/>
      <point x="854" y="776" type="line"/>
      <point x="1212" y="1364" type="line"/>
      <point x="1028" y="1414" type="line"/>
      <point x="1056" y="1506" type="line"/>
      <point x="1536" y="1506" type="line"/>
      <point x="1508" y="1414" type="line"/>
      <point x="1352" y="1368" type="line"/>
      <point x="938" y="700" type="line"/>
      <point x="1306" y="700" type="line"/>
      <point x="1272" y="572" type="line"/>
      <point x="890" y="572" type="line"/>
      <point x="866" y="418" type="line"/>
      <point x="1258" y="418" type="line"/>
      <point x="1222" y="290" type="line"/>
      <point x="844" y="290" type="line"/>
      <point x="820" y="138" type="line"/>
      <point x="1012" y="98" type="line"/>
      <point x="986" y="0" type="line"/>
      <point x="372" y="0" type="line"/>
      <point x="398" y="90" type="line"/>
      <point x="588" y="146" type="line"/>
      <point x="610" y="290" type="line"/>
      <point x="234" y="290" type="line"/>
      <point x="270" y="418" type="line"/>
      <point x="632" y="418" type="line"/>
    </contour>
  </outline>
</glyph>
<glyph name="brokenbar" format="1">
  <advance width="456"/>
  <unicode hex="00A6"/>
  <outline>
    <contour>
      <point x="94" y="-424" type="line"/>
      <point x="244" y="522" type="line"/>
      <point x="376" y="508" type="line"/>
      <point x="226" y="-440" type="line"/>
    </contour>
    <contour>
      <point x="264" y="654" type="line"/>
      <point x="402" y="1520" type="line"/>
      <point x="534" y="1506" type="line"/>
      <point x="390" y="640" type="line"/>
    </contour>
  </outline>
</glyph>
<glyph name="section" format="1">
  <advance width="969"/>
  <unicode hex="00A7"/>
  <outline>
    <contour>
      <point x="697" y="690" type="line" smooth="yes"/>
      <point x="772" y="641"/>
      <point x="811" y="611"/>
      <point x="859" y="563" type="curve" smooth="yes"/>
      <point x="906" y="514"/>
      <point x="927" y="461"/>
      <point x="927" y="400" type="curve" smooth="yes"/>
      <point x="927" y="273"/>
      <point x="859" y="160"/>
      <point x="761" y="92" type="curve" smooth="yes"/>
      <point x="663" y="23"/>
      <point x="542" y="-18"/>
      <point x="427" y="-18" type="curve" smooth="yes"/>
      <point x="288" y="-18"/>
      <point x="184" y="29"/>
      <point x="117" y="124" type="curve"/>
      <point x="173" y="386" type="line"/>
      <point x="261" y="374" type="line"/>
      <point x="277" y="184" type="line"/>
      <point x="314" y="120"/>
      <point x="384" y="76"/>
      <point x="457" y="76" type="curve" smooth="yes"/>
      <point x="501" y="76"/>
      <point x="547" y="84"/>
      <point x="598" y="108" type="curve" smooth="yes"/>
      <point x="649" y="131"/>
      <point x="689" y="163"/>
      <point x="714" y="219" type="curve" smooth="yes"/>
      <point x="727" y="246"/>
      <point x="733" y="277"/>
      <point x="733" y="312" type="curve" smooth="yes"/>
      <point x="733" y="361"/>
      <point x="696" y="405"/>
      <point x="641" y="441" type="curve" smooth="yes"/>
      <point x="614" y="458"/>
      <point x="584" y="476"/>
      <point x="551" y="495" type="curve" smooth="yes"/>
      <point x="485" y="532"/>
      <point x="416" y="580"/>
      <point x="361" y="637" type="curve" smooth="yes"/>
      <point x="306" y="693"/>
      <point x="269" y="779"/>
      <point x="269" y="880" type="curve" smooth="yes"/>
      <point x="269" y="888"/>
      <point x="276" y="914"/>
      <point x="282" y="938" type="curve" smooth="yes"/>
      <point x="285" y="949"/>
      <point x="286" y="956"/>
      <point x="287" y="958" type="curve"/>
    </contour>
    <contour>
      <point x="601" y="794" type="line" smooth="yes"/>
      <point x="441" y="899"/>
      <point x="338" y="955"/>
      <point x="323" y="1115" type="curve" smooth="yes"/>
      <point x="322" y="1126"/>
      <point x="321" y="1137"/>
      <point x="321" y="1148" type="curve" smooth="yes"/>
      <point x="321" y="1263"/>
      <point x="380" y="1364"/>
      <point x="464" y="1425" type="curve" smooth="yes"/>
      <point x="548" y="1485"/>
      <point x="652" y="1520"/>
      <point x="749" y="1520" type="curve" smooth="yes"/>
      <point x="863" y="1520"/>
      <point x="952" y="1486"/>
      <point x="1017" y="1418" type="curve"/>
      <point x="957" y="1142" type="line"/>
      <point x="875" y="1158" type="line"/>
      <point x="859" y="1348" type="line"/>
      <point x="854" y="1377"/>
      <point x="782" y="1436"/>
      <point x="707" y="1436" type="curve" smooth="yes"/>
      <point x="606" y="1436"/>
      <point x="513" y="1341"/>
      <point x="513" y="1220" type="curve" smooth="yes"/>
      <point x="513" y="1144"/>
      <point x="550" y="1083"/>
      <point x="605" y="1041" type="curve" smooth="yes"/>
      <point x="632" y="1020"/>
      <point x="663" y="1000"/>
      <point x="696" y="982" type="curve" smooth="yes"/>
      <point x="762" y="945"/>
      <point x="830" y="906"/>
      <point x="885" y="862" type="curve" smooth="yes"/>
      <point x="940" y="817"/>
      <point x="977" y="748"/>
      <point x="977" y="664" type="curve" smooth="yes"/>
      <point x="977" y="638"/>
      <point x="970" y="607"/>
      <point x="957" y="570" type="curve"/>
    </contour>
  </outline>
</glyph>
<glyph name="dieresis" format="1">
  <advance width="831"/>
  <unicode hex="00A8"/>
  <outline>
    <contour>
      <point x="632" y="1868"/>
      <point x="682" y="1829"/>
      <point x="682" y="1774" type="curve" smooth="yes"/>
      <point x="682" y="1717"/>
      <point x="632" y="1676"/>
      <point x="576" y="1676" type="curve" smooth="yes"/>
      <point x="521" y="1676"/>
      <point x="474" y="1717"/>
      <point x="474" y="1774" type="curve" smooth="yes"/>
      <point x="474" y="1830"/>
      <point x="523" y="1868"/>
      <point x="576" y="1868" type="curve" smooth="yes"/>
    </contour>
    <contour>
      <point x="308" y="1868"/>
      <point x="356" y="1829"/>
      <point x="356" y="1774" type="curve" smooth="yes"/>
      <point x="356" y="1717"/>
      <point x="308" y="1676"/>
      <point x="252" y="1676" type="curve" smooth="yes"/>
      <point x="197" y="1676"/>
      <point x="150" y="1717"/>
      <point x="150" y="1774" type="curve" smooth="yes"/>
      <point x="150" y="1830"/>
      <point x="199" y="1868"/>
      <point x="252" y="1868" type="curve" smooth="yes"/>
    </contour>
    <contour>
      <point x="416" y="1506" type="move" name="_top"/>
    </contour>
  </outline>
</glyph>
<glyph name="copyright" format="1">
  <advance width="1698"/>
  <unicode hex="00A9"/>
  <outline>
    <contour>
      <point x="1602" y="1013"/>
      <point x="1579" y="1117"/>
      <point x="1524" y="1210" type="curve" smooth="yes"/>
      <point x="1469" y="1303"/>
      <point x="1392" y="1372"/>
      <point x="1272" y="1412" type="curve" smooth="yes"/>
      <point x="1212" y="1432"/>
      <point x="1145" y="1442"/>
      <point x="1072" y="1442" type="curve" smooth="yes"/>
      <point x="923" y="1442"/>
      <point x="778" y="1397"/>
      <point x="654" y="1304" type="curve" smooth="yes"/>
      <point x="529" y="1211"/>
      <point x="433" y="1085"/>
      <point x="379" y="906" type="curve" smooth="yes"/>
      <point x="352" y="816"/>
      <point x="338" y="719"/>
      <point x="338" y="616" type="curve" smooth="yes"/>
      <point x="338" y="499"/>
      <point x="361" y="396"/>
      <point x="414" y="305" type="curve" smooth="yes"/>
      <point x="466" y="213"/>
      <point x="542" y="147"/>
      <point x="659" y="110" type="curve" smooth="yes"/>
      <point x="717" y="91"/>
      <point x="782" y="82"/>
      <point x="854" y="82" type="curve" smooth="yes"/>
      <point x="1007" y="82"/>
      <point x="1155" y="127"/>
      <point x="1282" y="219" type="curve" smooth="yes"/>
      <point x="1409" y="311"/>
      <point x="1506" y="436"/>
      <point x="1561" y="614" type="curve" smooth="yes"/>
      <point x="1588" y="703"/>
      <point x="1602" y="798"/>
      <point x="1602" y="900" type="curve" smooth="yes"/>
    </contour>
    <contour>
      <point x="1265" y="1552"/>
      <point x="1416" y="1501"/>
      <point x="1516" y="1422" type="curve" smooth="yes"/>
      <point x="1615" y="1342"/>
      <point x="1685" y="1230"/>
      <point x="1717" y="1111" type="curve" smooth="yes"/>
      <point x="1732" y="1052"/>
      <point x="1740" y="990"/>
      <point x="1740" y="926" type="curve" smooth="yes"/>
      <point x="1740" y="682"/>
      <point x="1668" y="468"/>
      <point x="1552" y="318" type="curve" smooth="yes"/>
      <point x="1436" y="168"/>
      <point x="1277" y="59"/>
      <point x="1100" y="7" type="curve" smooth="yes"/>
      <point x="1011" y="-19"/>
      <point x="920" y="-32"/>
      <point x="826" y="-32" type="curve" smooth="yes"/>
      <point x="654" y="-32"/>
      <point x="509" y="18"/>
      <point x="414" y="98" type="curve" smooth="yes"/>
      <point x="318" y="177"/>
      <point x="251" y="289"/>
      <point x="221" y="409" type="curve" smooth="yes"/>
      <point x="206" y="468"/>
      <point x="198" y="531"/>
      <point x="198" y="596" type="curve" smooth="yes"/>
      <point x="198" y="787"/>
      <point x="247" y="965"/>
      <point x="329" y="1104" type="curve" smooth="yes"/>
      <point x="411" y="1243"/>
      <point x="526" y="1359"/>
      <point x="658" y="1435" type="curve" smooth="yes"/>
      <point x="789" y="1510"/>
      <point x="939" y="1552"/>
      <point x="1088" y="1552" type="curve" smooth="yes"/>
    </contour>
    <contour>
      <point x="781" y="530"/>
      <point x="831" y="438"/>
      <point x="934" y="438" type="curve" smooth="yes"/>
      <point x="999" y="438"/>
      <point x="1059" y="459"/>
      <point x="1116" y="502" type="curve"/>
      <point x="1140" y="450" type="line"/>
      <point x="1079" y="373"/>
      <point x="969" y="316"/>
      <point x="874" y="316" type="curve" smooth="yes"/>
      <point x="711" y="316"/>
      <point x="612" y="440"/>
      <point x="612" y="652" type="curve" smooth="yes"/>
      <point x="612" y="792"/>
      <point x="656" y="925"/>
      <point x="721" y="1018" type="curve" smooth="yes"/>
      <point x="785" y="1110"/>
      <point x="867" y="1181"/>
      <point x="948" y="1216" type="curve" smooth="yes"/>
      <point x="988" y="1233"/>
      <point x="1025" y="1242"/>
      <point x="1060" y="1242" type="curve" smooth="yes"/>
      <point x="1164" y="1242"/>
      <point x="1228" y="1185"/>
      <point x="1228" y="1098" type="curve" smooth="yes"/>
      <point x="1228" y="1034"/>
      <point x="1167" y="993"/>
      <point x="1088" y="986" type="curve"/>
      <point x="1085" y="1038"/>
      <point x="1078" y="1083"/>
      <point x="1054" y="1120" type="curve" smooth="yes"/>
      <point x="1042" y="1139"/>
      <point x="1027" y="1148"/>
      <point x="1010" y="1148" type="curve" smooth="yes"/>
      <point x="902" y="1148"/>
      <point x="781" y="946"/>
      <point x="781" y="674" type="curve" smooth="yes"/>
    </contour>
  </outline>
</glyph>
<glyph name="ordfeminine" format="1">
  <advance width="655"/>
  <unicode hex="00AA"/>
  <outline>
    <contour>
      <point x="202" y="418" type="line"/>
      <point x="612" y="418" type="line"/>
      <point x="592" y="348" type="line"/>
      <point x="182" y="348" type="line"/>
    </contour>
    <contour>
      <point x="484" y="698" type="line"/>
      <point x="367" y="681"/>
      <point x="330" y="648"/>
      <point x="330" y="592" type="curve" smooth="yes"/>
      <point x="330" y="560"/>
      <point x="345" y="544"/>
      <point x="376" y="544" type="curve" smooth="yes"/>
      <point x="409" y="544"/>
      <point x="440" y="561"/>
      <point x="468" y="596" type="curve"/>
    </contour>
    <contour>
      <point x="604" y="504" type="line"/>
      <point x="599" y="503"/>
      <point x="592" y="502"/>
      <point x="584" y="500" type="curve" smooth="yes"/>
      <point x="567" y="496"/>
      <point x="555" y="494"/>
      <point x="538" y="494" type="curve" smooth="yes"/>
      <point x="494" y="494"/>
      <point x="470" y="519"/>
      <point x="470" y="548" type="curve" smooth="yes"/>
      <point x="470" y="549"/>
      <point x="470" y="551"/>
      <point x="471" y="554" type="curve" smooth="yes"/>
      <point x="472" y="557"/>
      <point x="472" y="559"/>
      <point x="472" y="560" type="curve" smooth="yes"/>
      <point x="472" y="566" type="line"/>
      <point x="466" y="566" type="line"/>
      <point x="445" y="529"/>
      <point x="382" y="492"/>
      <point x="322" y="492" type="curve" smooth="yes"/>
      <point x="273" y="492"/>
      <point x="242" y="520"/>
      <point x="242" y="564" type="curve" smooth="yes"/>
      <point x="242" y="648"/>
      <point x="313" y="701"/>
      <point x="488" y="732" type="curve"/>
      <point x="494" y="764" type="line"/>
      <point x="497" y="785"/>
      <point x="498" y="801"/>
      <point x="498" y="810" type="curve" smooth="yes"/>
      <point x="498" y="865"/>
      <point x="477" y="892"/>
      <point x="434" y="892" type="curve" smooth="yes"/>
      <point x="415" y="892"/>
      <point x="402" y="884"/>
      <point x="394" y="877" type="curve" smooth="yes"/>
      <point x="386" y="870"/>
      <point x="377" y="844"/>
      <point x="373" y="832" type="curve"/>
      <point x="371" y="825"/>
      <point x="368" y="814"/>
      <point x="364" y="798" type="curve"/>
      <point x="324" y="798"/>
      <point x="304" y="811"/>
      <point x="304" y="838" type="curve" smooth="yes"/>
      <point x="304" y="893"/>
      <point x="406" y="940"/>
      <point x="482" y="940" type="curve" smooth="yes"/>
      <point x="551" y="940"/>
      <point x="582" y="908"/>
      <point x="582" y="840" type="curve" smooth="yes"/>
      <point x="582" y="831"/>
      <point x="581" y="814"/>
      <point x="578" y="790" type="curve" smooth="yes"/>
      <point x="550" y="614" type="line" smooth="yes"/>
      <point x="549" y="607"/>
      <point x="548" y="599"/>
      <point x="548" y="590" type="curve" smooth="yes"/>
      <point x="548" y="565"/>
      <point x="559" y="554"/>
      <point x="594" y="550" type="curve"/>
      <point x="618" y="546" type="line"/>
    </contour>
  </outline>
</glyph>
<glyph name="guillemotleft" format="1">
  <advance width="789"/>
  <unicode hex="00AB"/>
  <outline>
    <contour>
      <point x="414" y="568" type="line"/>
      <point x="806" y="994" type="line"/>
      <point x="850" y="922" type="line"/>
      <point x="592" y="558" type="line"/>
      <point x="734" y="170" type="line"/>
      <point x="658" y="94" type="line"/>
      <point x="414" y="544" type="line"/>
    </contour>
    <contour>
      <point x="114" y="568" type="line"/>
      <point x="506" y="994" type="line"/>
      <point x="550" y="922" type="line"/>
      <point x="292" y="558" type="line"/>
      <point x="434" y="170" type="line"/>
      <point x="358" y="94" type="line"/>
      <point x="114" y="544" type="line"/>
    </contour>
  </outline>
</glyph>
<glyph name="logicalnot" format="1">
  <advance width="1172"/>
  <unicode hex="00AC"/>
  <outline>
    <contour>
      <point x="261" y="804" type="line"/>
      <point x="1163" y="804" type="line"/>
      <point x="1105" y="424" type="line"/>
      <point x="973" y="402" type="line"/>
      <point x="1017" y="676" type="line"/>
      <point x="227" y="676" type="line"/>
    </contour>
  </outline>
</glyph>
<glyph name="softhyphen" format="1">
  <advance width="776"/>
  <unicode hex="00AD"/>
  <outline>
    <contour>
      <point x="241" y="632" type="line"/>
      <point x="735" y="704" type="line"/>
      <point x="725" y="564" type="line"/>
      <point x="231" y="492" type="line"/>
    </contour>
  </outline>
</glyph>
<glyph name="registered" format="1">
  <advance width="723"/>
  <unicode hex="00AE"/>
  <outline>
    <contour>
      <point x="761" y="1584"/>
      <point x="842" y="1481"/>
      <point x="842" y="1352" type="curve" smooth="yes"/>
      <point x="842" y="1145"/>
      <point x="689" y="1014"/>
      <point x="509" y="1014" type="curve" smooth="yes"/>
      <point x="361" y="1014"/>
      <point x="285" y="1111"/>
      <point x="285" y="1232" type="curve" smooth="yes"/>
      <point x="285" y="1376"/>
      <point x="355" y="1491"/>
      <point x="451" y="1544" type="curve" smooth="yes"/>
      <point x="498" y="1571"/>
      <point x="550" y="1584"/>
      <point x="605" y="1584" type="curve" smooth="yes"/>
    </contour>
    <contour>
      <point x="795" y="1460"/>
      <point x="727" y="1546"/>
      <point x="599" y="1546" type="curve" smooth="yes"/>
      <point x="456" y="1546"/>
      <point x="335" y="1428"/>
      <point x="335" y="1244" type="curve" smooth="yes"/>
      <point x="335" y="1137"/>
      <point x="396" y="1054"/>
      <point x="519" y="1054" type="curve" smooth="yes"/>
      <point x="614" y="1054"/>
      <point x="699" y="1095"/>
      <point x="754" y="1187" type="curve" smooth="yes"/>
      <point x="781" y="1232"/>
      <point x="795" y="1286"/>
      <point x="795" y="1348" type="curve" smooth="yes"/>
    </contour>
    <contour>
      <point x="525" y="1314" type="line"/>
      <point x="567" y="1314" type="line" smooth="yes"/>
      <point x="595" y="1314"/>
      <point x="619" y="1349"/>
      <point x="619" y="1388" type="curve" smooth="yes"/>
      <point x="619" y="1420"/>
      <point x="600" y="1436"/>
      <point x="561" y="1436" type="curve"/>
      <point x="543" y="1434" type="line"/>
    </contour>
    <contour>
      <point x="651" y="1464"/>
      <point x="681" y="1445"/>
      <point x="681" y="1396" type="curve" smooth="yes"/>
      <point x="681" y="1363"/>
      <point x="650" y="1328"/>
      <point x="601" y="1308" type="curve"/>
      <point x="639" y="1242" type="line"/>
      <point x="656" y="1209"/>
      <point x="676" y="1187"/>
      <point x="699" y="1177" type="curve"/>
      <point x="707" y="1176" type="line"/>
      <point x="697" y="1154" type="line"/>
      <point x="689" y="1151"/>
      <point x="679" y="1150"/>
      <point x="667" y="1150" type="curve" smooth="yes"/>
      <point x="632" y="1150"/>
      <point x="606" y="1172"/>
      <point x="587" y="1216" type="curve" smooth="yes"/>
      <point x="557" y="1284" type="line"/>
      <point x="519" y="1284" type="line"/>
      <point x="505" y="1188" type="line"/>
      <point x="545" y="1176" type="line"/>
      <point x="539" y="1154" type="line"/>
      <point x="399" y="1154" type="line"/>
      <point x="405" y="1176" type="line"/>
      <point x="449" y="1186" type="line"/>
      <point x="487" y="1426" type="line"/>
      <point x="445" y="1434" type="line"/>
      <point x="451" y="1456" type="line"/>
      <point x="504" y="1461"/>
      <point x="540" y="1464"/>
      <point x="559" y="1464" type="curve" smooth="yes"/>
    </contour>
  </outline>
</glyph>
<glyph name="macron" format="1">
  <advance width="849"/>
  <unicode hex="00AF"/>
  <outline>
    <contour>
      <point x="166" y="1791" type="line"/>
      <point x="700" y="1791" type="line"/>
      <point x="684" y="1670" type="line"/>
      <point x="150" y="1670" type="line"/>
    </contour>
    <contour>
      <point x="425" y="1506" type="move" name="_top"/>
    </contour>
  </outline>
</glyph>
<glyph name="degree" format="1">
  <advance width="527"/>
  <unicode hex="00B0"/>
  <outline>
    <contour>
      <point x="588" y="1439"/>
      <point x="561" y="1498"/>
      <point x="494" y="1498" type="curve" smooth="yes"/>
      <point x="423" y="1498"/>
      <point x="366" y="1421"/>
      <point x="366" y="1332" type="curve" smooth="yes"/>
      <point x="366" y="1259"/>
      <point x="397" y="1206"/>
      <point x="460" y="1206" type="curve" smooth="yes"/>
      <point x="532" y="1206"/>
      <point x="588" y="1267"/>
      <point x="588" y="1384" type="curve" smooth="yes"/>
    </contour>
    <contour>
      <point x="276" y="1445"/>
      <point x="398" y="1556"/>
      <point x="518" y="1556" type="curve" smooth="yes"/>
      <point x="635" y="1556"/>
      <point x="676" y="1517"/>
      <point x="676" y="1402" type="curve" smooth="yes"/>
      <point x="676" y="1286"/>
      <point x="556" y="1148"/>
      <point x="436" y="1148" type="curve" smooth="yes"/>
      <point x="331" y="1148"/>
      <point x="276" y="1215"/>
      <point x="276" y="1304" type="curve" smooth="yes"/>
    </contour>
  </outline>
</glyph>
<glyph name="plusminus" format="1">
  <advance width="967"/>
  <unicode hex="00B1"/>
  <outline>
    <contour>
      <point x="171" y="142" type="line"/>
      <point x="913" y="150" type="line"/>
      <point x="873" y="24" type="line"/>
      <point x="131" y="16" type="line"/>
    </contour>
    <contour>
      <point x="607" y="576" type="line"/>
      <point x="563" y="290" type="line"/>
      <point x="431" y="304" type="line"/>
      <point x="475" y="576" type="line"/>
      <point x="207" y="576" type="line"/>
      <point x="239" y="698" type="line"/>
      <point x="493" y="698" type="line"/>
      <point x="537" y="978" type="line"/>
      <point x="665" y="964" type="line"/>
      <point x="625" y="698" type="line"/>
      <point x="891" y="698" type="line"/>
      <point x="859" y="576" type="line"/>
    </contour>
  </outline>
</glyph>
<glyph name="twosuperior" format="1">
  <advance width="387"/>
  <unicode hex="00B2"/>
  <outline>
    <contour>
      <point x="395" y="1536"/>
      <point x="378" y="1507"/>
      <point x="368" y="1448" type="curve"/>
      <point x="332" y="1452"/>
      <point x="324" y="1459"/>
      <point x="324" y="1484" type="curve" smooth="yes"/>
      <point x="324" y="1529"/>
      <point x="399" y="1576"/>
      <point x="450" y="1576" type="curve" smooth="yes"/>
      <point x="501" y="1576"/>
      <point x="530" y="1545"/>
      <point x="530" y="1494" type="curve" smooth="yes"/>
      <point x="530" y="1430"/>
      <point x="494" y="1393"/>
      <point x="398" y="1318" type="curve" smooth="yes"/>
      <point x="344" y="1276" type="line"/>
      <point x="504" y="1276" type="line"/>
      <point x="486" y="1224" type="line"/>
      <point x="272" y="1224" type="line"/>
      <point x="276" y="1262" type="line"/>
      <point x="398" y="1366" type="line" smooth="yes"/>
      <point x="441" y="1401"/>
      <point x="462" y="1441"/>
      <point x="462" y="1484" type="curve" smooth="yes"/>
      <point x="462" y="1519"/>
      <point x="448" y="1536"/>
      <point x="420" y="1536" type="curve" smooth="yes"/>
    </contour>
  </outline>
</glyph>
<glyph name="threesuperior" format="1">
  <advance width="387"/>
  <unicode hex="00B3"/>
  <outline>
    <contour>
      <point x="334" y="1370" type="line"/>
      <point x="335" y="1370"/>
      <point x="338" y="1371"/>
      <point x="344" y="1373" type="curve"/>
      <point x="356" y="1376"/>
      <point x="368" y="1379"/>
      <point x="386" y="1386" type="curve" smooth="yes"/>
      <point x="404" y="1393"/>
      <point x="418" y="1404"/>
      <point x="433" y="1417" type="curve" smooth="yes"/>
      <point x="448" y="1430"/>
      <point x="459" y="1451"/>
      <point x="462" y="1474" type="curve"/>
      <point x="462" y="1475"/>
      <point x="462" y="1478"/>
      <point x="463" y="1481" type="curve" smooth="yes"/>
      <point x="464" y="1484"/>
      <point x="464" y="1487"/>
      <point x="464" y="1488" type="curve" smooth="yes"/>
      <point x="464" y="1515"/>
      <point x="447" y="1536"/>
      <point x="418" y="1536" type="curve" smooth="yes"/>
      <point x="393" y="1536"/>
      <point x="367" y="1509"/>
      <point x="358" y="1452" type="curve"/>
      <point x="329" y="1454"/>
      <point x="314" y="1464"/>
      <point x="314" y="1482" type="curve" smooth="yes"/>
      <point x="314" y="1488" type="line"/>
      <point x="323" y="1539"/>
      <point x="398" y="1576"/>
      <point x="446" y="1576" type="curve" smooth="yes"/>
      <point x="493" y="1576"/>
      <point x="526" y="1543"/>
      <point x="526" y="1504" type="curve" smooth="yes"/>
      <point x="526" y="1503"/>
      <point x="526" y="1500"/>
      <point x="525" y="1497" type="curve" smooth="yes"/>
      <point x="524" y="1494"/>
      <point x="524" y="1491"/>
      <point x="524" y="1490" type="curve"/>
      <point x="519" y="1443"/>
      <point x="481" y="1397"/>
      <point x="436" y="1374" type="curve"/>
      <point x="436" y="1368" type="line"/>
      <point x="483" y="1355"/>
      <point x="510" y="1319"/>
      <point x="510" y="1278" type="curve" smooth="yes"/>
      <point x="510" y="1276"/>
      <point x="510" y="1273"/>
      <point x="509" y="1269" type="curve" smooth="yes"/>
      <point x="508" y="1265"/>
      <point x="508" y="1262"/>
      <point x="508" y="1260" type="curve"/>
      <point x="497" y="1195"/>
      <point x="436" y="1136"/>
      <point x="364" y="1136" type="curve" smooth="yes"/>
      <point x="292" y="1136"/>
      <point x="266" y="1164"/>
      <point x="266" y="1196" type="curve" smooth="yes"/>
      <point x="266" y="1204" type="line"/>
      <point x="270" y="1228"/>
      <point x="299" y="1243"/>
      <point x="320" y="1246" type="curve"/>
      <point x="320" y="1213"/>
      <point x="320" y="1200"/>
      <point x="333" y="1184" type="curve"/>
      <point x="340" y="1176"/>
      <point x="350" y="1172"/>
      <point x="364" y="1172" type="curve" smooth="yes"/>
      <point x="407" y="1172"/>
      <point x="435" y="1206"/>
      <point x="442" y="1250" type="curve"/>
      <point x="442" y="1252"/>
      <point x="442" y="1255"/>
      <point x="443" y="1258" type="curve" smooth="yes"/>
      <point x="444" y="1261"/>
      <point x="444" y="1264"/>
      <point x="444" y="1266" type="curve" smooth="yes"/>
      <point x="444" y="1306"/>
      <point x="417" y="1338"/>
      <point x="378" y="1338" type="curve" smooth="yes"/>
      <point x="374" y="1338"/>
      <point x="367" y="1338"/>
      <point x="357" y="1337" type="curve" smooth="yes"/>
      <point x="346" y="1336"/>
      <point x="339" y="1336"/>
      <point x="334" y="1336" type="curve"/>
      <point x="334" y="1356" type="line"/>
      <point x="334" y="1368" type="line"/>
    </contour>
  </outline>
</glyph>
<glyph name="acute" format="1">
  <advance width="749"/>
  <unicode hex="00B4"/>
  <outline>
    <contour>
      <point x="562" y="2018" type="line"/>
      <point x="340" y="1634" type="line"/>
      <point x="278" y="1672" type="line"/>
      <point x="426" y="2066" type="line"/>
    </contour>
    <contour>
      <point x="298" y="1506" type="move" name="_top"/>
    </contour>
  </outline>
</glyph>
<glyph name="micro" format="1">
  <advance width="1102"/>
  <unicode hex="00B5"/>
  <outline>
    <contour>
      <point x="740" y="158" type="line"/>
      <point x="697" y="77"/>
      <point x="571" y="-24"/>
      <point x="442" y="-24" type="curve" smooth="yes"/>
      <point x="368" y="-24"/>
      <point x="319" y="-7"/>
      <point x="296" y="28" type="curve"/>
      <point x="286" y="28" type="line"/>
      <point x="286" y="-7"/>
      <point x="283" y="-57"/>
      <point x="276" y="-122" type="curve" smooth="yes"/>
      <point x="244" y="-470" type="line"/>
      <point x="94" y="-438" type="line"/>
      <point x="95" y="-435"/>
      <point x="100" y="-407"/>
      <point x="111" y="-354" type="curve" smooth="yes"/>
      <point x="132" y="-247"/>
      <point x="163" y="-89"/>
      <point x="198" y="88" type="curve" smooth="yes"/>
      <point x="233" y="264"/>
      <point x="269" y="466"/>
      <point x="290" y="598" type="curve" smooth="yes"/>
      <point x="336" y="892" type="line"/>
      <point x="176" y="934" type="line"/>
      <point x="188" y="1026" type="line"/>
      <point x="524" y="1052" type="line"/>
      <point x="550" y="1022" type="line"/>
      <point x="446" y="382" type="line" smooth="yes"/>
      <point x="439" y="335"/>
      <point x="436" y="300"/>
      <point x="436" y="276" type="curve" smooth="yes"/>
      <point x="436" y="181"/>
      <point x="469" y="142"/>
      <point x="536" y="142" type="curve" smooth="yes"/>
      <point x="615" y="142"/>
      <point x="687" y="175"/>
      <point x="754" y="242" type="curve"/>
      <point x="854" y="904" type="line"/>
      <point x="692" y="932" type="line"/>
      <point x="704" y="1022" type="line"/>
      <point x="1050" y="1052" type="line"/>
      <point x="1074" y="1024" type="line"/>
      <point x="982" y="448" type="line" smooth="yes"/>
      <point x="963" y="325"/>
      <point x="954" y="245"/>
      <point x="954" y="206" type="curve" smooth="yes"/>
      <point x="954" y="141"/>
      <point x="969" y="123"/>
      <point x="1006" y="116" type="curve" smooth="yes"/>
      <point x="1086" y="102" type="line"/>
      <point x="1064" y="18" type="line"/>
      <point x="1008" y="-6"/>
      <point x="951" y="-18"/>
      <point x="894" y="-18" type="curve" smooth="yes"/>
      <point x="798" y="-18"/>
      <point x="750" y="24"/>
      <point x="750" y="120" type="curve" smooth="yes"/>
      <point x="750" y="136"/>
      <point x="751" y="149"/>
      <point x="752" y="158" type="curve"/>
    </contour>
  </outline>
</glyph>
<glyph name="paragraph" format="1">
  <advance width="1602"/>
  <unicode hex="00B6"/>
  <outline>
    <contour>
      <point x="1280" y="1374" type="line"/>
      <point x="1252" y="1368" type="line"/>
      <point x="1056" y="138" type="line"/>
      <point x="1082" y="134" type="line"/>
      <point x="1130" y="146" type="line"/>
      <point x="1324" y="1364" type="line"/>
    </contour>
    <contour>
      <point x="1748" y="1506" type="line"/>
      <point x="1720" y="1414" type="line"/>
      <point x="1508" y="1368" type="line"/>
      <point x="1312" y="138" type="line"/>
      <point x="1526" y="98" type="line"/>
      <point x="1500" y="0" type="line"/>
      <point x="622" y="0" type="line"/>
      <point x="646" y="90" type="line"/>
      <point x="856" y="146" type="line"/>
      <point x="926" y="588" type="line"/>
      <point x="874" y="584"/>
      <point x="821" y="582"/>
      <point x="768" y="582" type="curve" smooth="yes"/>
      <point x="601" y="582"/>
      <point x="481" y="602"/>
      <point x="381" y="657" type="curve" smooth="yes"/>
      <point x="281" y="712"/>
      <point x="228" y="809"/>
      <point x="228" y="952" type="curve" smooth="yes"/>
      <point x="228" y="1116"/>
      <point x="308" y="1265"/>
      <point x="427" y="1358" type="curve" smooth="yes"/>
      <point x="546" y="1451"/>
      <point x="698" y="1508"/>
      <point x="846" y="1508" type="curve" smooth="yes"/>
    </contour>
    <contour>
      <point x="944" y="702" type="line"/>
      <point x="1054" y="1396" type="line"/>
      <point x="1021" y="1397"/>
      <point x="978" y="1398"/>
      <point x="926" y="1398" type="curve" smooth="yes"/>
      <point x="655" y="1398"/>
      <point x="484" y="1259"/>
      <point x="484" y="992" type="curve" smooth="yes"/>
      <point x="484" y="932"/>
      <point x="493" y="881"/>
      <point x="522" y="829" type="curve" smooth="yes"/>
      <point x="551" y="777"/>
      <point x="596" y="741"/>
      <point x="674" y="718" type="curve" smooth="yes"/>
      <point x="713" y="706"/>
      <point x="757" y="700"/>
      <point x="808" y="700" type="curve"/>
      <point x="938" y="708" type="line"/>
    </contour>
  </outline>
</glyph>
<glyph name="periodcentered" format="1">
  <advance width="521"/>
  <unicode hex="00B7"/>
  <outline>
    <contour>
      <point x="212" y="683"/>
      <point x="294" y="748"/>
      <point x="378" y="748" type="curve" smooth="yes"/>
      <point x="455" y="748"/>
      <point x="500" y="691"/>
      <point x="500" y="612" type="curve" smooth="yes"/>
      <point x="500" y="531"/>
      <point x="415" y="462"/>
      <point x="332" y="462" type="curve" smooth="yes"/>
      <point x="252" y="462"/>
      <point x="212" y="504"/>
      <point x="212" y="588" type="curve" smooth="yes"/>
    </contour>
  </outline>
</glyph>
<glyph name="cedilla" format="1">
  <advance width="465"/>
  <unicode hex="00B8"/>
  <outline>
    <contour>
      <point x="258" y="-92" type="line"/>
      <point x="330" y="-155"/>
      <point x="366" y="-215"/>
      <point x="366" y="-274" type="curve" smooth="yes"/>
      <point x="366" y="-357"/>
      <point x="285" y="-423"/>
      <point x="124" y="-472" type="curve"/>
      <point x="100" y="-400" type="line"/>
      <point x="167" y="-377"/>
      <point x="204" y="-337"/>
      <point x="204" y="-300" type="curve" smooth="yes"/>
      <point x="204" y="-267"/>
      <point x="175" y="-222"/>
      <point x="116" y="-166" type="curve"/>
      <point x="234" y="4" type="line"/>
      <point x="324" y="4" type="line"/>
    </contour>
    <contour>
      <point x="273" y="0" type="move" name="_bottom"/>
    </contour>
  </outline>
</glyph>
<glyph name="onesuperior" format="1">
  <advance width="327"/>
  <unicode hex="00B9"/>
  <outline>
    <contour>
      <point x="440" y="1562" type="line"/>
      <point x="394" y="1264" type="line"/>
      <point x="458" y="1252" type="line"/>
      <point x="448" y="1222" type="line"/>
      <point x="262" y="1222" type="line"/>
      <point x="270" y="1250" type="line"/>
      <point x="334" y="1266" type="line"/>
      <point x="372" y="1506" type="line"/>
      <point x="316" y="1506" type="line"/>
      <point x="322" y="1534" type="line"/>
      <point x="430" y="1562" type="line"/>
    </contour>
  </outline>
</glyph>
<glyph name="ordmasculine" format="1">
  <advance width="667"/>
  <unicode hex="00BA"/>
  <outline>
    <contour>
      <point x="208" y="418" type="line"/>
      <point x="618" y="418" type="line"/>
      <point x="598" y="348" type="line"/>
      <point x="188" y="348" type="line"/>
    </contour>
    <contour>
      <point x="400" y="886"/>
      <point x="344" y="813"/>
      <point x="344" y="665" type="curve" smooth="yes"/>
      <point x="344" y="590"/>
      <point x="370" y="534"/>
      <point x="430" y="534" type="curve" smooth="yes"/>
      <point x="497" y="534"/>
      <point x="554" y="617"/>
      <point x="554" y="748" type="curve" smooth="yes"/>
      <point x="554" y="840"/>
      <point x="525" y="886"/>
      <point x="468" y="886" type="curve" smooth="yes"/>
    </contour>
    <contour>
      <point x="541" y="936"/>
      <point x="574" y="921"/>
      <point x="592" y="898" type="curve" smooth="yes"/>
      <point x="610" y="875"/>
      <point x="619" y="830"/>
      <point x="622" y="791" type="curve" smooth="yes"/>
      <point x="623" y="772"/>
      <point x="624" y="747"/>
      <point x="624" y="716" type="curve" smooth="yes"/>
      <point x="624" y="584"/>
      <point x="526" y="486"/>
      <point x="410" y="486" type="curve" smooth="yes"/>
      <point x="305" y="486"/>
      <point x="252" y="544"/>
      <point x="252" y="660" type="curve" smooth="yes"/>
      <point x="252" y="775"/>
      <point x="312" y="866"/>
      <point x="384" y="906" type="curve" smooth="yes"/>
      <point x="420" y="926"/>
      <point x="457" y="936"/>
      <point x="494" y="936" type="curve" smooth="yes"/>
    </contour>
  </outline>
</glyph>
<glyph name="guillemotright" format="1">
  <advance width="789"/>
  <unicode hex="00BB"/>
  <outline>
    <contour>
      <point x="552" y="568" type="line"/>
      <point x="548" y="544" type="line"/>
      <point x="160" y="94" type="line"/>
      <point x="108" y="170" type="line"/>
      <point x="374" y="558" type="line"/>
      <point x="232" y="922" type="line"/>
      <point x="296" y="994" type="line"/>
    </contour>
    <contour>
      <point x="852" y="568" type="line"/>
      <point x="848" y="544" type="line"/>
      <point x="460" y="94" type="line"/>
      <point x="408" y="170" type="line"/>
      <point x="674" y="558" type="line"/>
      <point x="532" y="922" type="line"/>
      <point x="596" y="994" type="line"/>
    </contour>
  </outline>
</glyph>
<glyph name="onequarter" format="1">
  <advance width="1270"/>
  <unicode hex="00BC"/>
  <outline>
    <contour>
      <point x="950" y="-6" type="line"/>
      <point x="972" y="174" type="line"/>
      <point x="735" y="174" type="line"/>
      <point x="728" y="210" type="line"/>
      <point x="1074" y="581" type="line"/>
      <point x="1105" y="572" type="line"/>
      <point x="1095" y="514"/>
      <point x="1082" y="420"/>
      <point x="1071" y="332" type="curve" smooth="yes"/>
      <point x="1059" y="233" type="line"/>
      <point x="1183" y="233" type="line"/>
      <point x="1168" y="172" type="line"/>
      <point x="1052" y="172" type="line"/>
      <point x="1031" y="7" type="line"/>
    </contour>
    <contour>
      <point x="977" y="233" type="line"/>
      <point x="1003" y="442" type="line"/>
      <point x="813" y="233" type="line"/>
    </contour>
    <contour>
      <point x="478" y="1186" type="line"/>
      <point x="414" y="666" type="line"/>
      <point x="545" y="650" type="line"/>
      <point x="535" y="610" type="line"/>
      <point x="182" y="610" type="line"/>
      <point x="190" y="646" type="line"/>
      <point x="331" y="669" type="line"/>
      <point x="385" y="1111" type="line"/>
      <point x="254" y="1111" type="line"/>
      <point x="261" y="1149" type="line"/>
      <point x="465" y="1186" type="line"/>
    </contour>
    <contour>
      <point x="1174" y="1167" type="line"/>
      <point x="1273" y="1177" type="line"/>
      <point x="290" y="-26" type="line"/>
      <point x="187" y="-36" type="line"/>
    </contour>
  </outline>
</glyph>
<glyph name="onehalf" format="1">
  <advance width="1273"/>
  <unicode hex="00BD"/>
  <outline>
    <contour>
      <point x="1149" y="0" type="line"/>
      <point x="770" y="0" type="line"/>
      <point x="774" y="50" type="line"/>
      <point x="904" y="149" type="line"/>
      <point x="991" y="217"/>
      <point x="1090" y="301"/>
      <point x="1102" y="399" type="curve" smooth="yes"/>
      <point x="1111" y="466"/>
      <point x="1098" y="522"/>
      <point x="1019" y="522" type="curve" smooth="yes"/>
      <point x="951" y="522"/>
      <point x="903" y="453"/>
      <point x="874" y="398" type="curve"/>
      <point x="836" y="413" type="line"/>
      <point x="865" y="495"/>
      <point x="955" y="588"/>
      <point x="1056" y="588" type="curve" smooth="yes"/>
      <point x="1162" y="588"/>
      <point x="1207" y="527"/>
      <point x="1194" y="421" type="curve" smooth="yes"/>
      <point x="1177" y="283"/>
      <point x="1011" y="181"/>
      <point x="921" y="104" type="curve"/>
      <point x="871" y="68" type="line"/>
      <point x="1105" y="68" type="line"/>
      <point x="1161" y="152" type="line"/>
      <point x="1194" y="147" type="line"/>
    </contour>
    <contour>
      <point x="502" y="1186" type="line"/>
      <point x="438" y="666" type="line"/>
      <point x="569" y="650" type="line"/>
      <point x="559" y="610" type="line"/>
      <point x="206" y="610" type="line"/>
      <point x="214" y="646" type="line"/>
      <point x="355" y="669" type="line"/>
      <point x="409" y="1111" type="line"/>
      <point x="278" y="1111" type="line"/>
      <point x="285" y="1149" type="line"/>
      <point x="489" y="1186" type="line"/>
    </contour>
    <contour>
      <point x="1174" y="1167" type="line"/>
      <point x="1273" y="1177" type="line"/>
      <point x="290" y="-26" type="line"/>
      <point x="187" y="-36" type="line"/>
    </contour>
  </outline>
</glyph>
<glyph name="threequarters" format="1">
  <advance width="1270"/>
  <unicode hex="00BE"/>
  <outline>
    <contour>
      <point x="261" y="710" type="curve"/>
      <point x="261" y="689"/>
      <point x="297" y="635"/>
      <point x="343" y="635" type="curve" smooth="yes"/>
      <point x="440" y="635"/>
      <point x="467" y="699"/>
      <point x="474" y="751" type="curve" smooth="yes"/>
      <point x="481" y="807"/>
      <point x="432" y="876"/>
      <point x="341" y="876" type="curve" smooth="yes"/>
      <point x="333" y="876" type="line"/>
      <point x="332" y="908" type="line"/>
      <point x="352" y="914"/>
      <point x="476" y="960"/>
      <point x="487" y="1048" type="curve" smooth="yes"/>
      <point x="492" y="1090"/>
      <point x="476" y="1132"/>
      <point x="413" y="1132" type="curve" smooth="yes"/>
      <point x="361" y="1132"/>
      <point x="331" y="1102"/>
      <point x="307" y="1058" type="curve"/>
      <point x="273" y="1071" type="line"/>
      <point x="289" y="1123"/>
      <point x="364" y="1196"/>
      <point x="451" y="1196" type="curve" smooth="yes"/>
      <point x="525" y="1196"/>
      <point x="586" y="1145"/>
      <point x="577" y="1074" type="curve" smooth="yes"/>
      <point x="568" y="995"/>
      <point x="506" y="948"/>
      <point x="444" y="926" type="curve"/>
      <point x="444" y="921" type="line"/>
      <point x="529" y="909"/>
      <point x="571" y="843"/>
      <point x="563" y="780" type="curve" smooth="yes"/>
      <point x="550" y="674"/>
      <point x="440" y="592"/>
      <point x="312" y="592" type="curve" smooth="yes"/>
      <point x="228" y="592"/>
      <point x="190" y="628"/>
      <point x="193" y="660" type="curve" smooth="yes"/>
      <point x="196" y="684"/>
      <point x="220" y="706"/>
    </contour>
    <contour>
      <point x="950" y="-6" type="line"/>
      <point x="972" y="174" type="line"/>
      <point x="735" y="174" type="line"/>
      <point x="728" y="210" type="line"/>
      <point x="1074" y="581" type="line"/>
      <point x="1105" y="572" type="line"/>
      <point x="1095" y="514"/>
      <point x="1082" y="420"/>
      <point x="1071" y="332" type="curve" smooth="yes"/>
      <point x="1059" y="233" type="line"/>
      <point x="1183" y="233" type="line"/>
      <point x="1168" y="172" type="line"/>
      <point x="1052" y="172" type="line"/>
      <point x="1031" y="7" type="line"/>
    </contour>
    <contour>
      <point x="977" y="233" type="line"/>
      <point x="1003" y="442" type="line"/>
      <point x="813" y="233" type="line"/>
    </contour>
    <contour>
      <point x="1174" y="1167" type="line"/>
      <point x="1273" y="1177" type="line"/>
      <point x="290" y="-26" type="line"/>
      <point x="187" y="-36" type="line"/>
    </contour>
  </outline>
</glyph>
<glyph name="questiondown" format="1">
  <advance width="813"/>
  <unicode hex="00BF"/>
  <outline>
    <contour>
      <point x="758" y="907"/>
      <point x="683" y="834"/>
      <point x="588" y="834" type="curve" smooth="yes"/>
      <point x="513" y="834"/>
      <point x="464" y="895"/>
      <point x="464" y="964" type="curve" smooth="yes"/>
      <point x="464" y="1063"/>
      <point x="537" y="1132"/>
      <point x="630" y="1132" type="curve" smooth="yes"/>
      <point x="695" y="1132"/>
      <point x="758" y="1065"/>
      <point x="758" y="1004" type="curve" smooth="yes"/>
    </contour>
    <contour>
      <point x="662" y="-187"/>
      <point x="692" y="-231"/>
      <point x="692" y="-292" type="curve" smooth="yes"/>
      <point x="692" y="-327"/>
      <point x="671" y="-367"/>
      <point x="631" y="-404" type="curve" smooth="yes"/>
      <point x="591" y="-441"/>
      <point x="515" y="-468"/>
      <point x="426" y="-468" type="curve" smooth="yes"/>
      <point x="235" y="-468"/>
      <point x="84" y="-281"/>
      <point x="84" y="-32" type="curve" smooth="yes"/>
      <point x="84" y="73"/>
      <point x="118" y="156"/>
      <point x="169" y="205" type="curve" smooth="yes"/>
      <point x="220" y="254"/>
      <point x="284" y="293"/>
      <point x="345" y="323" type="curve" smooth="yes"/>
      <point x="406" y="353"/>
      <point x="459" y="380"/>
      <point x="491" y="427" type="curve" smooth="yes"/>
      <point x="506" y="450"/>
      <point x="514" y="477"/>
      <point x="514" y="508" type="curve" smooth="yes"/>
      <point x="514" y="548"/>
      <point x="511" y="588"/>
      <point x="506" y="628" type="curve"/>
      <point x="598" y="648" type="line"/>
      <point x="634" y="581"/>
      <point x="652" y="511"/>
      <point x="652" y="436" type="curve" smooth="yes"/>
      <point x="652" y="347"/>
      <point x="616" y="278"/>
      <point x="565" y="238" type="curve" smooth="yes"/>
      <point x="513" y="197"/>
      <point x="448" y="166"/>
      <point x="385" y="138" type="curve" smooth="yes"/>
      <point x="322" y="110"/>
      <point x="269" y="81"/>
      <point x="237" y="28" type="curve" smooth="yes"/>
      <point x="220" y="1"/>
      <point x="212" y="-30"/>
      <point x="212" y="-66" type="curve" smooth="yes"/>
      <point x="212" y="-175"/>
      <point x="297" y="-257"/>
      <point x="376" y="-257" type="curve" smooth="yes"/>
      <point x="469" y="-257"/>
      <point x="561" y="-226"/>
      <point x="622" y="-170" type="curve"/>
    </contour>
  </outline>
</glyph>
<glyph name="Aacute" format="1">
  <advance width="1402"/>
  <unicode hex="00C1"/>
  <outline>
    <contour>
      <point x="1057" y="1536" type="line"/>
      <point x="1285" y="150" type="line"/>
      <point x="1435" y="98" type="line"/>
      <point x="1413" y="0" type="line"/>
      <point x="827" y="0" type="line"/>
      <point x="851" y="90" type="line"/>
      <point x="1059" y="156" type="line"/>
      <point x="991" y="524" type="line"/>
      <point x="507" y="524" type="line"/>
      <point x="321" y="150" type="line"/>
      <point x="527" y="98" type="line"/>
      <point x="501" y="0" type="line"/>
      <point x="-39" y="0" type="line"/>
      <point x="-17" y="90" type="line"/>
      <point x="163" y="156" type="line"/>
      <point x="879" y="1498" type="line"/>
    </contour>
    <contour>
      <point x="569" y="646" type="line"/>
      <point x="975" y="646" type="line"/>
      <point x="879" y="1252" type="line"/>
    </contour>
    <contour>
      <point x="1251" y="2018" type="line"/>
      <point x="1029" y="1634" type="line"/>
      <point x="967" y="1672" type="line"/>
      <point x="1115" y="2066" type="line"/>
    </contour>
  </outline>
</glyph>
<glyph name="Acircumflex" format="1">
  <advance width="1402"/>
  <unicode hex="00C2"/>
  <outline>
    <contour>
      <point x="1057" y="1536" type="line"/>
      <point x="1285" y="150" type="line"/>
      <point x="1435" y="98" type="line"/>
      <point x="1413" y="0" type="line"/>
      <point x="827" y="0" type="line"/>
      <point x="851" y="90" type="line"/>
      <point x="1059" y="156" type="line"/>
      <point x="991" y="524" type="line"/>
      <point x="507" y="524" type="line"/>
      <point x="321" y="150" type="line"/>
      <point x="527" y="98" type="line"/>
      <point x="501" y="0" type="line"/>
      <point x="-39" y="0" type="line"/>
      <point x="-17" y="90" type="line"/>
      <point x="163" y="156" type="line"/>
      <point x="879" y="1498" type="line"/>
    </contour>
    <contour>
      <point x="569" y="646" type="line"/>
      <point x="975" y="646" type="line"/>
      <point x="879" y="1252" type="line"/>
    </contour>
    <contour>
      <point x="1005" y="1914" type="line"/>
      <point x="1221" y="1689" type="line"/>
      <point x="1161" y="1646" type="line"/>
      <point x="963" y="1778" type="line"/>
      <point x="951" y="1778" type="line"/>
      <point x="781" y="1644" type="line"/>
      <point x="735" y="1680" type="line"/>
      <point x="939" y="1898" type="line"/>
    </contour>
  </outline>
</glyph>
<glyph name="Atilde" format="1">
  <advance width="1402"/>
  <unicode hex="00C3"/>
  <outline>
    <contour>
      <point x="1057" y="1536" type="line"/>
      <point x="1285" y="150" type="line"/>
      <point x="1435" y="98" type="line"/>
      <point x="1413" y="0" type="line"/>
      <point x="827" y="0" type="line"/>
      <point x="851" y="90" type="line"/>
      <point x="1059" y="156" type="line"/>
      <point x="991" y="524" type="line"/>
      <point x="507" y="524" type="line"/>
      <point x="321" y="150" type="line"/>
      <point x="527" y="98" type="line"/>
      <point x="501" y="0" type="line"/>
      <point x="-39" y="0" type="line"/>
      <point x="-17" y="90" type="line"/>
      <point x="163" y="156" type="line"/>
      <point x="879" y="1498" type="line"/>
    </contour>
    <contour>
      <point x="569" y="646" type="line"/>
      <point x="975" y="646" type="line"/>
      <point x="879" y="1252" type="line"/>
    </contour>
    <contour>
      <point x="697" y="1670" type="line"/>
      <point x="698" y="1673"/>
      <point x="699" y="1676"/>
      <point x="700" y="1680" type="curve" smooth="yes"/>
      <point x="702" y="1688"/>
      <point x="712" y="1717"/>
      <point x="722" y="1739" type="curve" smooth="yes"/>
      <point x="732" y="1761"/>
      <point x="749" y="1790"/>
      <point x="769" y="1810" type="curve" smooth="yes"/>
      <point x="788" y="1829"/>
      <point x="816" y="1844"/>
      <point x="845" y="1844" type="curve" smooth="yes"/>
      <point x="847" y="1844"/>
      <point x="850" y="1844"/>
      <point x="853" y="1843" type="curve" smooth="yes"/>
      <point x="856" y="1842"/>
      <point x="859" y="1842"/>
      <point x="861" y="1842" type="curve"/>
      <point x="1131" y="1806" type="line"/>
      <point x="1135" y="1806" type="line" smooth="yes"/>
      <point x="1154" y="1806"/>
      <point x="1180" y="1827"/>
      <point x="1193" y="1844" type="curve"/>
      <point x="1203" y="1856" type="line"/>
      <point x="1261" y="1854" type="line"/>
      <point x="1260" y="1849"/>
      <point x="1258" y="1843"/>
      <point x="1256" y="1835" type="curve"/>
      <point x="1251" y="1819"/>
      <point x="1230" y="1771"/>
      <point x="1208" y="1741" type="curve" smooth="yes"/>
      <point x="1186" y="1711"/>
      <point x="1146" y="1680"/>
      <point x="1103" y="1680" type="curve" smooth="yes"/>
      <point x="1089" y="1680" type="line"/>
      <point x="819" y="1718" type="line"/>
      <point x="815" y="1718" type="line" smooth="yes"/>
      <point x="794" y="1718"/>
      <point x="766" y="1694"/>
      <point x="753" y="1674" type="curve"/>
      <point x="743" y="1660" type="line"/>
    </contour>
  </outline>
</glyph>
<glyph name="Adieresis" format="1">
  <advance width="1402"/>
  <unicode hex="00C4"/>
  <outline>
    <contour>
      <point x="1057" y="1536" type="line"/>
      <point x="1285" y="150" type="line"/>
      <point x="1435" y="98" type="line"/>
      <point x="1413" y="0" type="line"/>
      <point x="827" y="0" type="line"/>
      <point x="851" y="90" type="line"/>
      <point x="1059" y="156" type="line"/>
      <point x="991" y="524" type="line"/>
      <point x="507" y="524" type="line"/>
      <point x="321" y="150" type="line"/>
      <point x="527" y="98" type="line"/>
      <point x="501" y="0" type="line"/>
      <point x="-39" y="0" type="line"/>
      <point x="-17" y="90" type="line"/>
      <point x="163" y="156" type="line"/>
      <point x="879" y="1498" type="line"/>
    </contour>
    <contour>
      <point x="569" y="646" type="line"/>
      <point x="975" y="646" type="line"/>
      <point x="879" y="1252" type="line"/>
    </contour>
    <contour>
      <point x="1195" y="1868"/>
      <point x="1245" y="1829"/>
      <point x="1245" y="1774" type="curve" smooth="yes"/>
      <point x="1245" y="1717"/>
      <point x="1195" y="1676"/>
      <point x="1139" y="1676" type="curve" smooth="yes"/>
      <point x="1084" y="1676"/>
      <point x="1037" y="1717"/>
      <point x="1037" y="1774" type="curve" smooth="yes"/>
      <point x="1037" y="1830"/>
      <point x="1086" y="1868"/>
      <point x="1139" y="1868" type="curve" smooth="yes"/>
    </contour>
    <contour>
      <point x="871" y="1868"/>
      <point x="919" y="1829"/>
      <point x="919" y="1774" type="curve" smooth="yes"/>
      <point x="919" y="1717"/>
      <point x="871" y="1676"/>
      <point x="815" y="1676" type="curve" smooth="yes"/>
      <point x="760" y="1676"/>
      <point x="713" y="1717"/>
      <point x="713" y="1774" type="curve" smooth="yes"/>
      <point x="713" y="1830"/>
      <point x="762" y="1868"/>
      <point x="815" y="1868" type="curve" smooth="yes"/>
    </contour>
  </outline>
</glyph>
<glyph name="Aring" format="1">
  <advance width="1402"/>
  <unicode hex="00C5"/>
  <outline>
    <contour>
      <point x="1057" y="1536" type="line"/>
      <point x="1285" y="150" type="line"/>
      <point x="1435" y="98" type="line"/>
      <point x="1413" y="0" type="line"/>
      <point x="827" y="0" type="line"/>
      <point x="851" y="90" type="line"/>
      <point x="1059" y="156" type="line"/>
      <point x="991" y="524" type="line"/>
      <point x="507" y="524" type="line"/>
      <point x="321" y="150" type="line"/>
      <point x="527" y="98" type="line"/>
      <point x="501" y="0" type="line"/>
      <point x="-39" y="0" type="line"/>
      <point x="-17" y="90" type="line"/>
      <point x="163" y="156" type="line"/>
      <point x="879" y="1498" type="line"/>
    </contour>
    <contour>
      <point x="569" y="646" type="line"/>
      <point x="975" y="646" type="line"/>
      <point x="879" y="1252" type="line"/>
    </contour>
    <contour>
      <point x="905" y="2000"/>
      <point x="869" y="1939"/>
      <point x="869" y="1864" type="curve" smooth="yes"/>
      <point x="869" y="1783"/>
      <point x="912" y="1708"/>
      <point x="985" y="1708" type="curve" smooth="yes"/>
      <point x="1052" y="1708"/>
      <point x="1089" y="1758"/>
      <point x="1089" y="1846" type="curve" smooth="yes"/>
      <point x="1089" y="1929"/>
      <point x="1045" y="2000"/>
      <point x="973" y="2000" type="curve" smooth="yes"/>
    </contour>
    <contour>
      <point x="1102" y="2058"/>
      <point x="1175" y="1978"/>
      <point x="1175" y="1862" type="curve" smooth="yes"/>
      <point x="1175" y="1747"/>
      <point x="1091" y="1650"/>
      <point x="971" y="1650" type="curve" smooth="yes"/>
      <point x="858" y="1650"/>
      <point x="783" y="1727"/>
      <point x="783" y="1850" type="curve" smooth="yes"/>
      <point x="783" y="1963"/>
      <point x="874" y="2058"/>
      <point x="987" y="2058" type="curve" smooth="yes"/>
    </contour>
  </outline>
</glyph>
<glyph name="AE" format="1">
  <advance width="1955"/>
  <unicode hex="00C6"/>
  <outline>
    <contour>
      <point x="1132" y="1281" type="line"/>
      <point x="684" y="686" type="line"/>
      <point x="1036" y="686" type="line"/>
    </contour>
    <contour>
      <point x="1020" y="572" type="line"/>
      <point x="606" y="572" type="line"/>
      <point x="291" y="152" type="line"/>
      <point x="498" y="100" type="line"/>
      <point x="472" y="0" type="line"/>
      <point x="-54" y="0" type="line"/>
      <point x="-32" y="92" type="line"/>
      <point x="134" y="158" type="line"/>
      <point x="1170" y="1506" type="line"/>
      <point x="2064" y="1506" type="line"/>
      <point x="1968" y="1124" type="line"/>
      <point x="1872" y="1140" type="line"/>
      <point x="1866" y="1396" type="line"/>
      <point x="1362" y="1396" type="line"/>
      <point x="1270" y="824" type="line"/>
      <point x="1568" y="824" type="line"/>
      <point x="1640" y="972" type="line"/>
      <point x="1752" y="980" type="line"/>
      <point x="1640" y="514" type="line"/>
      <point x="1536" y="496" type="line"/>
      <point x="1532" y="710" type="line"/>
      <point x="1252" y="710" type="line"/>
      <point x="1158" y="116" type="line"/>
      <point x="1694" y="116" type="line"/>
      <point x="1852" y="398" type="line"/>
      <point x="1942" y="380" type="line"/>
      <point x="1848" y="0" type="line"/>
      <point x="1298" y="0" type="line"/>
      <point x="788" y="0" type="line"/>
      <point x="728" y="0" type="line"/>
      <point x="752" y="90" type="line"/>
      <point x="948" y="144" type="line"/>
      <point x="954" y="146" type="line"/>
    </contour>
  </outline>
</glyph>
<glyph name="Ccedilla" format="1">
  <advance width="1390"/>
  <unicode hex="00C7"/>
  <outline>
    <contour>
      <point x="824" y="-92" type="line"/>
      <point x="896" y="-155"/>
      <point x="932" y="-215"/>
      <point x="932" y="-274" type="curve" smooth="yes"/>
      <point x="932" y="-357"/>
      <point x="851" y="-423"/>
      <point x="690" y="-472" type="curve"/>
      <point x="666" y="-400" type="line"/>
      <point x="733" y="-377"/>
      <point x="770" y="-337"/>
      <point x="770" y="-300" type="curve" smooth="yes"/>
      <point x="770" y="-267"/>
      <point x="741" y="-222"/>
      <point x="682" y="-166" type="curve"/>
      <point x="776" y="-30" type="line"/>
      <point x="620" y="-27"/>
      <point x="480" y="29"/>
      <point x="375" y="130" type="curve" smooth="yes"/>
      <point x="270" y="230"/>
      <point x="204" y="392"/>
      <point x="204" y="584" type="curve" smooth="yes"/>
      <point x="204" y="696"/>
      <point x="227" y="819"/>
      <point x="276" y="943" type="curve" smooth="yes"/>
      <point x="324" y="1067"/>
      <point x="392" y="1184"/>
      <point x="492" y="1285" type="curve" smooth="yes"/>
      <point x="591" y="1385"/>
      <point x="704" y="1462"/>
      <point x="854" y="1506" type="curve" smooth="yes"/>
      <point x="929" y="1527"/>
      <point x="1007" y="1538"/>
      <point x="1090" y="1538" type="curve" smooth="yes"/>
      <point x="1265" y="1538"/>
      <point x="1397" y="1497"/>
      <point x="1486" y="1416" type="curve"/>
      <point x="1386" y="1014" type="line"/>
      <point x="1288" y="1030" type="line"/>
      <point x="1284" y="1296" type="line"/>
      <point x="1240" y="1372"/>
      <point x="1143" y="1422"/>
      <point x="1002" y="1422" type="curve" smooth="yes"/>
      <point x="861" y="1422"/>
      <point x="725" y="1343"/>
      <point x="625" y="1212" type="curve" smooth="yes"/>
      <point x="525" y="1080"/>
      <point x="460" y="877"/>
      <point x="460" y="652" type="curve" smooth="yes"/>
      <point x="460" y="477"/>
      <point x="510" y="338"/>
      <point x="592" y="255" type="curve" smooth="yes"/>
      <point x="674" y="171"/>
      <point x="780" y="128"/>
      <point x="900" y="128" type="curve" smooth="yes"/>
      <point x="1047" y="128"/>
      <point x="1187" y="189"/>
      <point x="1320" y="312" type="curve"/>
      <point x="1366" y="246" type="line"/>
      <point x="1231" y="88"/>
      <point x="1066" y="-3"/>
      <point x="870" y="-26" type="curve"/>
    </contour>
  </outline>
</glyph>
